<?xml version="1.0" encoding="utf-8"?>
<!-- Generator: Adobe Illustrator 22.1.0, SVG Export Plug-In . SVG Version: 6.00 Build 0)  -->
<svg version="1.1" id="Layer_1" xmlns="http://www.w3.org/2000/svg" xmlns:xlink="http://www.w3.org/1999/xlink" x="0px" y="0px"
	 viewBox="0 0 130 130" style="enable-background:new 0 0 130 130;" xml:space="preserve">
<style type="text/css">
	.st0{clip-path:url(#SVGID_2_);}
	.st1{opacity:2.170000e-04;}
	.st2{fill:#0055FF;}
	.st3{opacity:6.540000e-04;}
	.st4{opacity:1.311000e-03;}
	.st5{opacity:2.194000e-03;}
	.st6{opacity:3.307000e-03;}
	.st7{opacity:4.657000e-03;}
	.st8{opacity:6.254000e-03;}
	.st9{opacity:8.108000e-03;}
	.st10{opacity:1.023200e-02;}
	.st11{opacity:1.264500e-02;}
	.st12{opacity:1.536500e-02;}
	.st13{opacity:1.842100e-02;}
	.st14{opacity:2.184300e-02;}
	.st15{opacity:2.567400e-02;}
	.st16{opacity:2.997000e-02;}
	.st17{opacity:3.480300e-02;}
	.st18{opacity:4.027800e-02;}
	.st19{opacity:4.654400e-02;}
	.st20{opacity:5.384100e-02;}
	.st21{opacity:6.258100e-02;}
	.st22{opacity:7.361100e-02;}
	.st23{opacity:8.930700e-02;}
	.st24{opacity:0.1407;}
	.st25{fill:#80AAFF;}
	.st26{fill:#FFFFFF;}
	.st27{fill:#009B4D;}
	.st28{fill:#80CDA6;}
	.st29{fill:#E28300;}
	.st30{fill:#F1C180;}
	.st31{fill:#FF0078;}
	.st32{fill:#FF80BC;}
	.st33{fill:#FF0026;}
	.st34{fill:#FF8093;}
	.st35{fill:#0079B8;}
	.st36{fill:#80BCDC;}
	.st37{opacity:0.6;clip-path:url(#SVGID_2_);fill:url(#SVGID_3_);}
	.st38{opacity:0.6;clip-path:url(#SVGID_2_);fill:url(#SVGID_4_);}
	.st39{opacity:0.6;clip-path:url(#SVGID_2_);fill:url(#SVGID_5_);}
	.st40{opacity:0.6;clip-path:url(#SVGID_2_);fill:url(#SVGID_6_);}
	.st41{opacity:0.6;clip-path:url(#SVGID_2_);fill:url(#SVGID_7_);}
	.st42{opacity:0.6;clip-path:url(#SVGID_2_);fill:url(#SVGID_8_);}
	.st43{clip-path:url(#SVGID_2_);fill:url(#SVGID_9_);}
	.st44{clip-path:url(#SVGID_2_);fill:url(#SVGID_10_);}
	.st45{clip-path:url(#SVGID_2_);fill:url(#SVGID_11_);}
	.st46{clip-path:url(#SVGID_2_);fill:url(#SVGID_12_);}
	.st47{clip-path:url(#SVGID_2_);fill:url(#SVGID_13_);}
	.st48{clip-path:url(#SVGID_2_);fill:url(#SVGID_14_);}
	.st49{clip-path:url(#SVGID_2_);fill:url(#SVGID_15_);}
	.st50{clip-path:url(#SVGID_2_);fill:url(#SVGID_16_);}
	.st51{clip-path:url(#SVGID_2_);fill:url(#SVGID_17_);}
	.st52{clip-path:url(#SVGID_2_);fill:url(#SVGID_18_);}
	.st53{clip-path:url(#SVGID_2_);fill:url(#SVGID_19_);}
	.st54{clip-path:url(#SVGID_2_);fill:url(#SVGID_20_);}
	.st55{clip-path:url(#SVGID_2_);fill:url(#SVGID_21_);}
	.st56{clip-path:url(#SVGID_2_);fill:url(#SVGID_22_);}
	.st57{clip-path:url(#SVGID_2_);fill:url(#SVGID_23_);}
	.st58{clip-path:url(#SVGID_2_);fill:url(#SVGID_24_);}
	.st59{clip-path:url(#SVGID_2_);fill:url(#SVGID_25_);}
	.st60{clip-path:url(#SVGID_2_);fill:url(#SVGID_26_);}
	.st61{fill:#8C00D4;}
	.st62{fill:#9B2EDB;}
	.st63{fill:#A46EC4;}
	.st64{opacity:0.6;fill:url(#SVGID_27_);}
	.st65{opacity:0.6;fill:url(#SVGID_28_);}
	.st66{opacity:0.6;fill:url(#SVGID_29_);}
</style>
<g>
	<g>
		<g class="st1">
			<path class="st61" d="M65.5,126c-34,0-61.6-27.6-61.6-61.6S31.5,2.8,65.5,2.8s61.6,27.6,61.6,61.6S99.5,126,65.5,126z M65.5,19.1
				c-25,0-45.3,20.3-45.3,45.3s20.3,45.3,45.3,45.3c25,0,45.3-20.3,45.3-45.3S90.4,19.1,65.5,19.1z"/>
		</g>
		<g class="st3">
			<path class="st61" d="M65.5,125.7c-33.8,0-61.3-27.5-61.3-61.3S31.7,3.1,65.5,3.1c33.8,0,61.3,27.5,61.3,61.3
				S99.3,125.7,65.5,125.7z M65.5,18.8c-25.1,0-45.6,20.4-45.6,45.6S40.4,110,65.5,110s45.6-20.4,45.6-45.6S90.6,18.8,65.5,18.8z"/>
		</g>
		<g class="st4">
			<path class="st61" d="M65.5,125.4c-33.6,0-61-27.4-61-61c0-33.6,27.4-61,61-61c33.6,0,61,27.4,61,61
				C126.5,98,99.1,125.4,65.5,125.4z M65.5,18.5c-25.3,0-45.9,20.6-45.9,45.9c0,25.3,20.6,45.9,45.9,45.9
				c25.3,0,45.9-20.6,45.9-45.9C111.4,39.1,90.8,18.5,65.5,18.5z"/>
		</g>
		<g class="st5">
			<path class="st61" d="M65.5,125.1C32,125.1,4.8,97.9,4.8,64.4S32,3.7,65.5,3.7c33.5,0,60.7,27.2,60.7,60.7S98.9,125.1,65.5,125.1
				z M65.5,18.2c-25.5,0-46.2,20.7-46.2,46.2s20.7,46.2,46.2,46.2s46.2-20.7,46.2-46.2S91,18.2,65.5,18.2z"/>
		</g>
		<g class="st6">
			<path class="st61" d="M65.5,124.8c-33.3,0-60.4-27.1-60.4-60.4S32.2,4,65.5,4s60.4,27.1,60.4,60.4S98.8,124.8,65.5,124.8z
				 M65.5,17.9C39.8,17.9,19,38.7,19,64.4s20.9,46.5,46.5,46.5c25.7,0,46.5-20.9,46.5-46.5S91.1,17.9,65.5,17.9z"/>
		</g>
		<g class="st7">
			<path class="st61" d="M65.5,124.4c-33.1,0-60-26.9-60-60c0-33.1,26.9-60,60-60s60,26.9,60,60C125.5,97.5,98.6,124.4,65.5,124.4z
				 M65.5,17.6c-25.8,0-46.8,21-46.8,46.8s21,46.8,46.8,46.8c25.8,0,46.8-21,46.8-46.8S91.3,17.6,65.5,17.6z"/>
		</g>
		<g class="st8">
			<path class="st61" d="M65.5,124.1c-32.9,0-59.7-26.8-59.7-59.7S32.6,4.7,65.5,4.7c32.9,0,59.7,26.8,59.7,59.7
				S98.4,124.1,65.5,124.1z M65.5,17.2c-26,0-47.2,21.2-47.2,47.2s21.2,47.2,47.2,47.2s47.2-21.2,47.2-47.2S91.5,17.2,65.5,17.2z"/>
		</g>
		<g class="st9">
			<path class="st61" d="M65.5,123.8c-32.8,0-59.4-26.7-59.4-59.4S32.7,5,65.5,5c32.8,0,59.4,26.7,59.4,59.4S98.3,123.8,65.5,123.8z
				 M65.5,16.9C39.3,16.9,18,38.2,18,64.4c0,26.2,21.3,47.5,47.5,47.5S113,90.6,113,64.4C113,38.2,91.7,16.9,65.5,16.9z"/>
		</g>
		<g class="st10">
			<path class="st61" d="M65.5,123.5C32.9,123.5,6.4,97,6.4,64.4S32.9,5.3,65.5,5.3c32.6,0,59.1,26.5,59.1,59.1
				S98.1,123.5,65.5,123.5z M65.5,16.6c-26.3,0-47.8,21.4-47.8,47.8s21.4,47.8,47.8,47.8s47.8-21.4,47.8-47.8S91.8,16.6,65.5,16.6z"
				/>
		</g>
		<g class="st11">
			<path class="st61" d="M65.5,123.2c-32.4,0-58.8-26.4-58.8-58.8S33.1,5.6,65.5,5.6s58.8,26.4,58.8,58.8S97.9,123.2,65.5,123.2z
				 M65.5,16.3c-26.5,0-48.1,21.6-48.1,48.1s21.6,48.1,48.1,48.1c26.5,0,48.1-21.6,48.1-48.1S92,16.3,65.5,16.3z"/>
		</g>
		<g class="st12">
			<path class="st61" d="M65.5,122.9C33.2,122.9,7,96.6,7,64.4C7,32.2,33.2,5.9,65.5,5.9c32.2,0,58.5,26.2,58.5,58.5
				C124,96.6,97.7,122.9,65.5,122.9z M65.5,16c-26.7,0-48.4,21.7-48.4,48.4c0,26.7,21.7,48.4,48.4,48.4c26.7,0,48.4-21.7,48.4-48.4
				C113.9,37.7,92.2,16,65.5,16z"/>
		</g>
		<g class="st13">
			<path class="st61" d="M65.5,122.6c-32.1,0-58.2-26.1-58.2-58.2S33.4,6.2,65.5,6.2c32.1,0,58.2,26.1,58.2,58.2
				S97.6,122.6,65.5,122.6z M65.5,15.7c-26.9,0-48.7,21.9-48.7,48.7s21.9,48.7,48.7,48.7s48.7-21.9,48.7-48.7S92.4,15.7,65.5,15.7z"
				/>
		</g>
		<g class="st14">
			<path class="st61" d="M65.5,122.2c-31.9,0-57.8-25.9-57.8-57.8S33.6,6.6,65.5,6.6c31.9,0,57.8,25.9,57.8,57.8
				S97.4,122.2,65.5,122.2z M65.5,15.4c-27,0-49,22-49,49s22,49,49,49s49-22,49-49S92.5,15.4,65.5,15.4z"/>
		</g>
		<g class="st15">
			<path class="st61" d="M65.5,121.9C33.8,121.9,8,96.1,8,64.4C8,32.7,33.8,6.9,65.5,6.9c31.7,0,57.5,25.8,57.5,57.5
				C123,96.1,97.2,121.9,65.5,121.9z M65.5,15c-27.2,0-49.4,22.1-49.4,49.4s22.1,49.4,49.4,49.4s49.4-22.1,49.4-49.4
				S92.7,15,65.5,15z"/>
		</g>
		<g class="st16">
			<path class="st61" d="M65.5,121.6c-31.5,0-57.2-25.7-57.2-57.2S33.9,7.2,65.5,7.2s57.2,25.7,57.2,57.2S97,121.6,65.5,121.6z
				 M65.5,14.7c-27.4,0-49.7,22.3-49.7,49.7s22.3,49.7,49.7,49.7c27.4,0,49.7-22.3,49.7-49.7S92.9,14.7,65.5,14.7z"/>
		</g>
		<g class="st17">
			<path class="st61" d="M65.5,121.3c-31.4,0-56.9-25.5-56.9-56.9C8.6,33,34.1,7.5,65.5,7.5s56.9,25.5,56.9,56.9
				C122.4,95.8,96.9,121.3,65.5,121.3z M65.5,14.4c-27.6,0-50,22.4-50,50c0,27.6,22.4,50,50,50c27.6,0,50-22.4,50-50
				C115.5,36.8,93,14.4,65.5,14.4z"/>
		</g>
		<g class="st18">
			<path class="st61" d="M65.5,121C34.3,121,8.9,95.6,8.9,64.4c0-31.2,25.4-56.6,56.6-56.6c31.2,0,56.6,25.4,56.6,56.6
				C122.1,95.6,96.7,121,65.5,121z M65.5,14.1c-27.7,0-50.3,22.6-50.3,50.3s22.6,50.3,50.3,50.3c27.7,0,50.3-22.6,50.3-50.3
				S93.2,14.1,65.5,14.1z"/>
		</g>
		<g class="st19">
			<path class="st61" d="M65.5,120.7c-31,0-56.3-25.2-56.3-56.3S34.5,8.1,65.5,8.1c31,0,56.3,25.2,56.3,56.3S96.5,120.7,65.5,120.7z
				 M65.5,13.8c-27.9,0-50.6,22.7-50.6,50.6S37.6,115,65.5,115s50.6-22.7,50.6-50.6S93.4,13.8,65.5,13.8z"/>
		</g>
		<g class="st20">
			<path class="st61" d="M65.5,120.4c-30.9,0-56-25.1-56-56c0-30.9,25.1-56,56-56c30.9,0,56,25.1,56,56
				C121.4,95.3,96.3,120.4,65.5,120.4z M65.5,13.5c-28.1,0-50.9,22.8-50.9,50.9c0,28.1,22.8,50.9,50.9,50.9
				c28.1,0,50.9-22.8,50.9-50.9C116.4,36.3,93.6,13.5,65.5,13.5z"/>
		</g>
		<g class="st21">
			<path class="st61" d="M65.5,120c-30.7,0-55.6-25-55.6-55.6s25-55.6,55.6-55.6s55.6,25,55.6,55.6S96.2,120,65.5,120z M65.5,13.2
				c-28.3,0-51.2,23-51.2,51.2s23,51.2,51.2,51.2c28.3,0,51.2-23,51.2-51.2S93.7,13.2,65.5,13.2z"/>
		</g>
		<g class="st22">
			<path class="st61" d="M65.5,119.7c-30.5,0-55.3-24.8-55.3-55.3S35,9.1,65.5,9.1s55.3,24.8,55.3,55.3S96,119.7,65.5,119.7z
				 M65.5,12.8c-28.4,0-51.6,23.1-51.6,51.6c0,28.4,23.1,51.6,51.6,51.6c28.4,0,51.6-23.1,51.6-51.6C117,36,93.9,12.8,65.5,12.8z"/>
		</g>
		<g class="st23">
			<path class="st61" d="M65.5,119.4c-30.3,0-55-24.7-55-55c0-30.3,24.7-55,55-55c30.3,0,55,24.7,55,55
				C120.5,94.7,95.8,119.4,65.5,119.4z M65.5,12.5c-28.6,0-51.9,23.3-51.9,51.9s23.3,51.9,51.9,51.9c28.6,0,51.9-23.3,51.9-51.9
				S94.1,12.5,65.5,12.5z"/>
		</g>
		<g class="st24">
			<path class="st61" d="M65.5,119.1c-30.2,0-54.7-24.5-54.7-54.7S35.3,9.7,65.5,9.7c30.2,0,54.7,24.5,54.7,54.7
				S95.7,119.1,65.5,119.1z M65.5,12.2c-28.8,0-52.2,23.4-52.2,52.2s23.4,52.2,52.2,52.2s52.2-23.4,52.2-52.2S94.3,12.2,65.5,12.2z"
				/>
		</g>
		<g>
			<path class="st62" d="M65.5,118.8c-30,0-54.4-24.4-54.4-54.4S35.5,10,65.5,10c30,0,54.4,24.4,54.4,54.4S95.5,118.8,65.5,118.8z
				 M65.5,11.9C36.5,11.9,13,35.5,13,64.4c0,28.9,23.6,52.5,52.5,52.5c28.9,0,52.5-23.6,52.5-52.5C118,35.5,94.4,11.9,65.5,11.9z"/>
		</g>
		<g>
			<path class="st63" d="M65.3,119.3c-30,0-54.5-24.5-54.5-54.6c0-30.1,24.4-54.6,54.5-54.6s54.5,24.5,54.5,54.6
				C119.8,94.8,95.4,119.3,65.3,119.3z M65.3,11.2c-29.4,0-53.3,24-53.3,53.4c0,29.5,23.9,53.4,53.3,53.4c29.4,0,53.3-24,53.3-53.4
				C118.7,35.2,94.8,11.2,65.3,11.2z"/>
		</g>
		<g>
			<path class="st26" d="M65.3,118.9c-29.8,0-54.1-24.3-54.1-54.2c0-29.9,24.3-54.2,54.1-54.2c29.8,0,54.1,24.3,54.1,54.2
				C119.4,94.6,95.2,118.9,65.3,118.9z M65.3,10.8c-29.6,0-53.7,24.1-53.7,53.8c0,29.7,24.1,53.8,53.7,53.8
				c29.6,0,53.7-24.1,53.7-53.8C119.1,35,95,10.8,65.3,10.8z"/>
		</g>
	</g>
	<g>
		<g class="st1">
			<path class="st61" d="M8.4,110.6c-2.1,0-4.2-0.8-5.8-2.4c-3.2-3.2-3.2-8.4,0-11.6l18.4-18.4c3.2-3.2,8.4-3.2,11.6,0
				c3.2,3.2,3.2,8.4,0,11.6l-18.4,18.4C12.6,109.8,10.5,110.6,8.4,110.6z"/>
		</g>
		<g class="st3">
			<path class="st61" d="M8.4,110.2c-2,0-4-0.8-5.6-2.3c-3.1-3.1-3.1-8,0-11.1l18.4-18.4c3.1-3.1,8.1-3.1,11.1,0
				c3.1,3.1,3.1,8,0,11.1L14,107.9C12.5,109.5,10.4,110.2,8.4,110.2z"/>
		</g>
		<g class="st4">
			<path class="st61" d="M8.4,109.9c-1.9,0-3.9-0.7-5.3-2.2c-2.9-2.9-2.9-7.7,0-10.7l18.4-18.4c2.9-2.9,7.7-2.9,10.7,0
				c2.9,2.9,2.9,7.7,0,10.7l-18.4,18.4C12.3,109.2,10.4,109.9,8.4,109.9z"/>
		</g>
		<g class="st5">
			<path class="st61" d="M8.4,109.6c-1.9,0-3.7-0.7-5.1-2.1c-2.8-2.8-2.8-7.4,0-10.2l18.4-18.4c2.8-2.8,7.4-2.8,10.2,0
				c2.8,2.8,2.8,7.4,0,10.2l-18.4,18.4C12.1,108.9,10.3,109.6,8.4,109.6z"/>
		</g>
		<g class="st6">
			<path class="st61" d="M8.4,109.3c-1.8,0-3.5-0.7-4.9-2c-2.7-2.7-2.7-7.1,0-9.8L22,79c2.7-2.7,7.1-2.7,9.8,0
				c2.7,2.7,2.7,7.1,0,9.8l-18.4,18.4C12,108.6,10.2,109.3,8.4,109.3z"/>
		</g>
		<g class="st7">
			<path class="st61" d="M8.4,109c-1.7,0-3.4-0.6-4.7-1.9c-2.6-2.6-2.6-6.8,0-9.3l18.4-18.4c2.6-2.6,6.8-2.6,9.3,0
				c2.6,2.6,2.6,6.8,0,9.3l-18.4,18.4C11.8,108.3,10.1,109,8.4,109z"/>
		</g>
		<g class="st8">
			<path class="st61" d="M8.4,108.7c-1.6,0-3.2-0.6-4.4-1.8c-2.5-2.5-2.5-6.4,0-8.9l18.4-18.4c2.5-2.5,6.4-2.5,8.9,0
				c2.5,2.5,2.5,6.4,0,8.9l-18.4,18.4C11.6,108.1,10,108.7,8.4,108.7z"/>
		</g>
		<g class="st9">
			<path class="st61" d="M8.4,108.4c-1.5,0-3.1-0.6-4.2-1.8c-2.3-2.3-2.3-6.1,0-8.5l18.4-18.4c2.3-2.3,6.1-2.3,8.5,0
				c2.3,2.3,2.3,6.1,0,8.5l-18.4,18.4C11.5,107.8,10,108.4,8.4,108.4z"/>
		</g>
		<g class="st10">
			<path class="st61" d="M8.4,108c-1.4,0-2.9-0.6-4-1.7c-2.2-2.2-2.2-5.8,0-8l18.4-18.4c2.2-2.2,5.8-2.2,8,0s2.2,5.8,0,8l-18.4,18.4
				C11.3,107.5,9.9,108,8.4,108z"/>
		</g>
		<g class="st11">
			<path class="st61" d="M8.4,107.7c-1.4,0-2.7-0.5-3.8-1.6c-2.1-2.1-2.1-5.5,0-7.6l18.4-18.4c2.1-2.1,5.5-2.1,7.6,0
				c2.1,2.1,2.1,5.5,0,7.6l-18.4,18.4C11.2,107.2,9.8,107.7,8.4,107.7z"/>
		</g>
		<g class="st12">
			<path class="st61" d="M8.4,107.4c-1.3,0-2.6-0.5-3.6-1.5c-2-2-2-5.2,0-7.1l18.4-18.4c2-2,5.2-2,7.1,0c2,2,2,5.2,0,7.1L12,105.9
				C11,106.9,9.7,107.4,8.4,107.4z"/>
		</g>
		<g class="st13">
			<path class="st61" d="M8.4,107.1c-1.2,0-2.4-0.5-3.3-1.4c-1.8-1.8-1.8-4.8,0-6.7l18.4-18.4c1.8-1.8,4.8-1.8,6.7,0
				c1.8,1.8,1.8,4.8,0,6.7l-18.4,18.4C10.8,106.6,9.6,107.1,8.4,107.1z"/>
		</g>
		<g class="st14">
			<path class="st61" d="M8.4,106.8c-1.1,0-2.3-0.4-3.1-1.3c-1.7-1.7-1.7-4.5,0-6.2l18.4-18.4c1.7-1.7,4.5-1.7,6.2,0
				c1.7,1.7,1.7,4.5,0,6.2l-18.4,18.4C10.7,106.4,9.6,106.8,8.4,106.8z"/>
		</g>
		<g class="st15">
			<path class="st61" d="M8.4,106.5c-1,0-2.1-0.4-2.9-1.2c-1.6-1.6-1.6-4.2,0-5.8L24,81c1.6-1.6,4.2-1.6,5.8,0
				c1.6,1.6,1.6,4.2,0,5.8l-18.4,18.4C10.5,106.1,9.5,106.5,8.4,106.5z"/>
		</g>
		<g class="st16">
			<path class="st61" d="M8.4,106.2c-1,0-1.9-0.4-2.7-1.1c-1.5-1.5-1.5-3.9,0-5.3l18.4-18.4c1.5-1.5,3.9-1.5,5.3,0
				c1.5,1.5,1.5,3.9,0,5.3L11.1,105C10.4,105.8,9.4,106.2,8.4,106.2z"/>
		</g>
		<g class="st17">
			<path class="st61" d="M8.4,105.8c-0.9,0-1.8-0.3-2.4-1c-1.4-1.4-1.4-3.5,0-4.9l18.4-18.4c1.4-1.4,3.5-1.4,4.9,0
				c1.4,1.4,1.4,3.5,0,4.9l-18.4,18.4C10.2,105.5,9.3,105.8,8.4,105.8z"/>
		</g>
		<g class="st18">
			<path class="st61" d="M8.4,105.5c-0.8,0-1.6-0.3-2.2-0.9c-1.2-1.2-1.2-3.2,0-4.4l18.4-18.4c1.2-1.2,3.2-1.2,4.4,0s1.2,3.2,0,4.4
				l-18.4,18.4C10,105.2,9.2,105.5,8.4,105.5z"/>
		</g>
		<g class="st19">
			<path class="st61" d="M8.4,105.2c-0.7,0-1.4-0.3-2-0.8c-1.1-1.1-1.1-2.9,0-4l18.4-18.4c1.1-1.1,2.9-1.1,4,0c1.1,1.1,1.1,2.9,0,4
				l-18.4,18.4C9.9,104.9,9.2,105.2,8.4,105.2z"/>
		</g>
		<g class="st20">
			<path class="st61" d="M8.4,104.9c-0.6,0-1.3-0.2-1.8-0.7c-1-1-1-2.6,0-3.6l18.4-18.4c1-1,2.6-1,3.6,0c1,1,1,2.6,0,3.6l-18.4,18.4
				C9.7,104.7,9.1,104.9,8.4,104.9z"/>
		</g>
		<g class="st21">
			<path class="st61" d="M8.4,104.6c-0.6,0-1.1-0.2-1.6-0.6c-0.9-0.9-0.9-2.3,0-3.1l18.4-18.4c0.9-0.9,2.3-0.9,3.1,0
				c0.9,0.9,0.9,2.3,0,3.1L10,103.9C9.6,104.4,9,104.6,8.4,104.6z"/>
		</g>
		<g class="st22">
			<path class="st61" d="M8.4,104.3c-0.5,0-1-0.2-1.3-0.6c-0.7-0.7-0.7-1.9,0-2.7l18.4-18.4c0.7-0.7,1.9-0.7,2.7,0
				c0.7,0.7,0.7,1.9,0,2.7L9.8,103.7C9.4,104.1,8.9,104.3,8.4,104.3z"/>
		</g>
		<g class="st23">
			<path class="st61" d="M8.4,104c-0.4,0-0.8-0.2-1.1-0.5c-0.6-0.6-0.6-1.6,0-2.2l18.4-18.4c0.6-0.6,1.6-0.6,2.2,0
				c0.6,0.6,0.6,1.6,0,2.2L9.5,103.5C9.2,103.8,8.8,104,8.4,104z"/>
		</g>
		<g class="st24">
			<path class="st61" d="M8.4,103.6c-0.3,0-0.6-0.1-0.9-0.4c-0.5-0.5-0.5-1.3,0-1.8L26,83c0.5-0.5,1.3-0.5,1.8,0
				c0.5,0.5,0.5,1.3,0,1.8L9.3,103.3C9.1,103.5,8.7,103.6,8.4,103.6z"/>
		</g>
		<g>
			<path class="st62" d="M8.4,103.3c-0.2,0-0.5-0.1-0.7-0.3c-0.4-0.4-0.4-1,0-1.3l18.4-18.4c0.4-0.4,1-0.4,1.3,0
				c0.4,0.4,0.4,1,0,1.3L9.1,103C8.9,103.2,8.7,103.3,8.4,103.3z"/>
		</g>
		<g>
			<path class="st63" d="M8.4,102.9c-0.1,0-0.3-0.1-0.4-0.2c-0.2-0.2-0.2-0.6,0-0.8l18.4-18.4c0.2-0.2,0.6-0.2,0.8,0
				c0.2,0.2,0.2,0.6,0,0.8L8.8,102.8C8.7,102.9,8.6,102.9,8.4,102.9z"/>
		</g>
		<g>
			<path class="st26" d="M8.4,102.6c0,0-0.1,0-0.1-0.1c-0.1-0.1-0.1-0.2,0-0.3l18.4-18.4c0.1-0.1,0.2-0.1,0.3,0
				c0.1,0.1,0.1,0.2,0,0.3L8.6,102.5C8.5,102.6,8.5,102.6,8.4,102.6z"/>
		</g>
	</g>
	<g>
		<g class="st1">
			<path class="st61" d="M19.1,115.4c-2.1,0-4.2-0.8-5.8-2.4c-3.2-3.2-3.2-8.4,0-11.6l30.3-30.3c3.2-3.2,8.4-3.2,11.6,0
				c3.2,3.2,3.2,8.4,0,11.6L24.9,113C23.3,114.6,21.2,115.4,19.1,115.4z"/>
		</g>
		<g class="st3">
			<path class="st61" d="M19.1,115.1c-2,0-4-0.8-5.6-2.3c-3.1-3.1-3.1-8,0-11.1l30.3-30.3c3.1-3.1,8-3.1,11.1,0
				c3.1,3.1,3.1,8,0,11.1l-30.3,30.3C23.2,114.3,21.1,115.1,19.1,115.1z"/>
		</g>
		<g class="st4">
			<path class="st61" d="M19.1,114.7c-1.9,0-3.9-0.7-5.3-2.2c-2.9-2.9-2.9-7.7,0-10.7L44,71.6c2.9-2.9,7.7-2.9,10.7,0
				c2.9,2.9,2.9,7.7,0,10.7l-30.3,30.3C23,114,21.1,114.7,19.1,114.7z"/>
		</g>
		<g class="st5">
			<path class="st61" d="M19.1,114.4c-1.9,0-3.7-0.7-5.1-2.1c-2.8-2.8-2.8-7.4,0-10.2l30.3-30.3c2.8-2.8,7.4-2.8,10.2,0
				c2.8,2.8,2.8,7.4,0,10.2l-30.3,30.3C22.8,113.7,21,114.4,19.1,114.4z"/>
		</g>
		<g class="st6">
			<path class="st61" d="M19.1,114.1c-1.8,0-3.5-0.7-4.9-2c-2.7-2.7-2.7-7.1,0-9.8L44.5,72c2.7-2.7,7.1-2.7,9.8,0
				c2.7,2.7,2.7,7.1,0,9.8L24,112.1C22.7,113.4,20.9,114.1,19.1,114.1z"/>
		</g>
		<g class="st7">
			<path class="st61" d="M19.1,113.8c-1.7,0-3.4-0.6-4.7-1.9c-2.6-2.6-2.6-6.8,0-9.3l30.3-30.3c2.6-2.6,6.8-2.6,9.3,0
				c2.6,2.6,2.6,6.8,0,9.3l-30.3,30.3C22.5,113.2,20.8,113.8,19.1,113.8z"/>
		</g>
		<g class="st8">
			<path class="st61" d="M19.1,113.5c-1.6,0-3.2-0.6-4.4-1.8c-2.5-2.5-2.5-6.4,0-8.9l30.3-30.3c2.5-2.5,6.4-2.5,8.9,0
				c2.5,2.5,2.5,6.4,0,8.9l-30.3,30.3C22.3,112.9,20.7,113.5,19.1,113.5z"/>
		</g>
		<g class="st9">
			<path class="st61" d="M19.1,113.2c-1.5,0-3.1-0.6-4.2-1.8c-2.3-2.3-2.3-6.1,0-8.5l30.3-30.3c2.3-2.3,6.1-2.3,8.5,0
				c2.3,2.3,2.3,6.1,0,8.5l-30.3,30.3C22.2,112.6,20.7,113.2,19.1,113.2z"/>
		</g>
		<g class="st10">
			<path class="st61" d="M19.1,112.9c-1.4,0-2.9-0.6-4-1.7c-2.2-2.2-2.2-5.8,0-8l30.3-30.3c2.2-2.2,5.8-2.2,8,0c2.2,2.2,2.2,5.8,0,8
				l-30.3,30.3C22,112.3,20.6,112.9,19.1,112.9z"/>
		</g>
		<g class="st11">
			<path class="st61" d="M19.1,112.5c-1.4,0-2.7-0.5-3.8-1.6c-2.1-2.1-2.1-5.5,0-7.6l30.3-30.3c2.1-2.1,5.5-2.1,7.6,0
				c2.1,2.1,2.1,5.5,0,7.6L22.9,111C21.9,112,20.5,112.5,19.1,112.5z"/>
		</g>
		<g class="st12">
			<path class="st61" d="M19.1,112.2c-1.3,0-2.6-0.5-3.6-1.5c-2-2-2-5.2,0-7.1l30.3-30.3c2-2,5.2-2,7.1,0c2,2,2,5.2,0,7.1
				l-30.3,30.3C21.7,111.7,20.4,112.2,19.1,112.2z"/>
		</g>
		<g class="st13">
			<path class="st61" d="M19.1,111.9c-1.2,0-2.4-0.5-3.3-1.4c-1.8-1.8-1.8-4.8,0-6.7l30.3-30.3c1.8-1.8,4.8-1.8,6.7,0
				c1.8,1.8,1.8,4.8,0,6.7l-30.3,30.3C21.5,111.5,20.3,111.9,19.1,111.9z"/>
		</g>
		<g class="st14">
			<path class="st61" d="M19.1,111.6c-1.1,0-2.3-0.4-3.1-1.3c-1.7-1.7-1.7-4.5,0-6.2l30.3-30.3c1.7-1.7,4.5-1.7,6.2,0
				c1.7,1.7,1.7,4.5,0,6.2l-30.3,30.3C21.4,111.2,20.3,111.6,19.1,111.6z"/>
		</g>
		<g class="st15">
			<path class="st61" d="M19.1,111.3c-1,0-2.1-0.4-2.9-1.2c-1.6-1.6-1.6-4.2,0-5.8L46.5,74c1.6-1.6,4.2-1.6,5.8,0
				c1.6,1.6,1.6,4.2,0,5.8L22,110.1C21.2,110.9,20.2,111.3,19.1,111.3z"/>
		</g>
		<g class="st16">
			<path class="st61" d="M19.1,111c-1,0-1.9-0.4-2.7-1.1c-1.5-1.5-1.5-3.9,0-5.3l30.3-30.3c1.5-1.5,3.9-1.5,5.3,0
				c1.5,1.5,1.5,3.9,0,5.3l-30.3,30.3C21.1,110.6,20.1,111,19.1,111z"/>
		</g>
		<g class="st17">
			<path class="st61" d="M19.1,110.7c-0.9,0-1.8-0.3-2.4-1c-1.4-1.4-1.4-3.5,0-4.9l30.3-30.3c1.4-1.4,3.5-1.4,4.9,0
				c1.4,1.4,1.4,3.5,0,4.9l-30.3,30.3C20.9,110.3,20,110.7,19.1,110.7z"/>
		</g>
		<g class="st18">
			<path class="st61" d="M19.1,110.3c-0.8,0-1.6-0.3-2.2-0.9c-1.2-1.2-1.2-3.2,0-4.4l30.3-30.3c1.2-1.2,3.2-1.2,4.4,0
				c1.2,1.2,1.2,3.2,0,4.4l-30.3,30.3C20.7,110,19.9,110.3,19.1,110.3z"/>
		</g>
		<g class="st19">
			<path class="st61" d="M19.1,110c-0.7,0-1.4-0.3-2-0.8c-1.1-1.1-1.1-2.9,0-4l30.3-30.3c1.1-1.1,2.9-1.1,4,0c1.1,1.1,1.1,2.9,0,4
				l-30.3,30.3C20.6,109.8,19.9,110,19.1,110z"/>
		</g>
		<g class="st20">
			<path class="st61" d="M19.1,109.7c-0.6,0-1.3-0.2-1.8-0.7c-1-1-1-2.6,0-3.6l30.3-30.3c1-1,2.6-1,3.6,0c1,1,1,2.6,0,3.6L20.9,109
				C20.4,109.5,19.8,109.7,19.1,109.7z"/>
		</g>
		<g class="st21">
			<path class="st61" d="M19.1,109.4c-0.6,0-1.1-0.2-1.6-0.6c-0.9-0.9-0.9-2.3,0-3.1l30.3-30.3c0.9-0.9,2.3-0.9,3.1,0
				c0.9,0.9,0.9,2.3,0,3.1l-30.3,30.3C20.3,109.2,19.7,109.4,19.1,109.4z"/>
		</g>
		<g class="st22">
			<path class="st61" d="M19.1,109.1c-0.5,0-1-0.2-1.3-0.6c-0.7-0.7-0.7-1.9,0-2.7l30.3-30.3c0.7-0.7,1.9-0.7,2.7,0
				c0.7,0.7,0.7,1.9,0,2.7l-30.3,30.3C20.1,108.9,19.6,109.1,19.1,109.1z"/>
		</g>
		<g class="st23">
			<path class="st61" d="M19.1,108.8c-0.4,0-0.8-0.2-1.1-0.5c-0.6-0.6-0.6-1.6,0-2.2l30.3-30.3c0.6-0.6,1.6-0.6,2.2,0
				c0.6,0.6,0.6,1.6,0,2.2l-30.3,30.3C19.9,108.6,19.5,108.8,19.1,108.8z"/>
		</g>
		<g class="st24">
			<path class="st61" d="M19.1,108.5c-0.3,0-0.6-0.1-0.9-0.4c-0.5-0.5-0.5-1.3,0-1.8L48.5,76c0.5-0.5,1.3-0.5,1.8,0
				c0.5,0.5,0.5,1.3,0,1.8L20,108.1C19.8,108.3,19.4,108.5,19.1,108.5z"/>
		</g>
		<g>
			<path class="st62" d="M19.1,108.1c-0.2,0-0.5-0.1-0.7-0.3c-0.4-0.4-0.4-1,0-1.3l30.3-30.3c0.4-0.4,1-0.4,1.3,0
				c0.4,0.4,0.4,1,0,1.3l-30.3,30.3C19.6,108,19.4,108.1,19.1,108.1z"/>
		</g>
		<g>
			<path class="st63" d="M19.1,107.8c-0.1,0-0.3-0.1-0.4-0.2c-0.2-0.2-0.2-0.6,0-0.8L49,76.5c0.2-0.2,0.6-0.2,0.8,0
				c0.2,0.2,0.2,0.6,0,0.8l-30.3,30.3C19.4,107.7,19.3,107.8,19.1,107.8z"/>
		</g>
		<g>
			<path class="st26" d="M19.1,107.4c0,0-0.1,0-0.1-0.1c-0.1-0.1-0.1-0.2,0-0.3l30.3-30.3c0.1-0.1,0.2-0.1,0.3,0
				c0.1,0.1,0.1,0.2,0,0.3l-30.3,30.3C19.2,107.4,19.2,107.4,19.1,107.4z"/>
		</g>
	</g>
	<radialGradient id="SVGID_2_" cx="65.0088" cy="65.0079" r="65.0079" gradientUnits="userSpaceOnUse">
		<stop  offset="0.302" style="stop-color:#FFFFFF;stop-opacity:0"/>
		<stop  offset="0.3785" style="stop-color:#FDFBFE;stop-opacity:0.1392"/>
		<stop  offset="0.4485" style="stop-color:#F8F0FD;stop-opacity:0.2666"/>
		<stop  offset="0.516" style="stop-color:#F0DEF9;stop-opacity:0.3895"/>
		<stop  offset="0.5819" style="stop-color:#E4C3F5;stop-opacity:0.5094"/>
		<stop  offset="0.6468" style="stop-color:#D5A2EF;stop-opacity:0.6274"/>
		<stop  offset="0.7107" style="stop-color:#C278E8;stop-opacity:0.7439"/>
		<stop  offset="0.774" style="stop-color:#AC47E0;stop-opacity:0.8591"/>
		<stop  offset="0.8353" style="stop-color:#9310D7;stop-opacity:0.9706"/>
		<stop  offset="0.8515" style="stop-color:#8C00D4"/>
		<stop  offset="0.9155" style="stop-color:#C074E8;stop-opacity:0.569"/>
		<stop  offset="0.974" style="stop-color:#EDD8F8;stop-opacity:0.1749"/>
		<stop  offset="1" style="stop-color:#FFFFFF;stop-opacity:0"/>
	</radialGradient>
	<circle style="opacity:0.6;fill:url(#SVGID_2_);" cx="65" cy="65" r="65"/>
</g>
</svg>
