<?xml version="1.0" encoding="utf-8"?>
<!-- Generator: Adobe Illustrator 22.1.0, SVG Export Plug-In . SVG Version: 6.00 Build 0)  -->
<svg version="1.1" id="Layer_1" xmlns="http://www.w3.org/2000/svg" xmlns:xlink="http://www.w3.org/1999/xlink" x="0px" y="0px"
	 viewBox="0 0 135.6 130" style="enable-background:new 0 0 135.6 130;" xml:space="preserve">
<style type="text/css">
	.st0{clip-path:url(#SVGID_2_);}
	.st1{opacity:2.170000e-04;}
	.st2{fill:#0055FF;}
	.st3{opacity:6.540000e-04;}
	.st4{opacity:1.311000e-03;}
	.st5{opacity:2.194000e-03;}
	.st6{opacity:3.307000e-03;}
	.st7{opacity:4.657000e-03;}
	.st8{opacity:6.254000e-03;}
	.st9{opacity:8.108000e-03;}
	.st10{opacity:1.023200e-02;}
	.st11{opacity:1.264500e-02;}
	.st12{opacity:1.536500e-02;}
	.st13{opacity:1.842100e-02;}
	.st14{opacity:2.184300e-02;}
	.st15{opacity:2.567400e-02;}
	.st16{opacity:2.997000e-02;}
	.st17{opacity:3.480300e-02;}
	.st18{opacity:4.027800e-02;}
	.st19{opacity:4.654400e-02;}
	.st20{opacity:5.384100e-02;}
	.st21{opacity:6.258100e-02;}
	.st22{opacity:7.361100e-02;}
	.st23{opacity:8.930700e-02;}
	.st24{opacity:0.1407;}
	.st25{fill:#80AAFF;}
	.st26{fill:#FFFFFF;}
	.st27{fill:#009B4D;}
	.st28{fill:#80CDA6;}
	.st29{fill:#E28300;}
	.st30{fill:#F1C180;}
	.st31{fill:#FF0078;}
	.st32{fill:#FF80BC;}
	.st33{fill:#FF0026;}
	.st34{fill:#FF8093;}
	.st35{fill:#0079B8;}
	.st36{fill:#80BCDC;}
	.st37{opacity:0.6;clip-path:url(#SVGID_2_);fill:url(#SVGID_3_);}
	.st38{opacity:0.6;clip-path:url(#SVGID_2_);fill:url(#SVGID_4_);}
	.st39{opacity:0.6;clip-path:url(#SVGID_2_);fill:url(#SVGID_5_);}
	.st40{opacity:0.6;clip-path:url(#SVGID_2_);fill:url(#SVGID_6_);}
	.st41{opacity:0.6;clip-path:url(#SVGID_2_);fill:url(#SVGID_7_);}
	.st42{opacity:0.6;clip-path:url(#SVGID_2_);fill:url(#SVGID_8_);}
	.st43{clip-path:url(#SVGID_2_);fill:url(#SVGID_9_);}
	.st44{clip-path:url(#SVGID_2_);fill:url(#SVGID_10_);}
	.st45{clip-path:url(#SVGID_2_);fill:url(#SVGID_11_);}
	.st46{clip-path:url(#SVGID_2_);fill:url(#SVGID_12_);}
	.st47{clip-path:url(#SVGID_2_);fill:url(#SVGID_13_);}
	.st48{clip-path:url(#SVGID_2_);fill:url(#SVGID_14_);}
	.st49{clip-path:url(#SVGID_2_);fill:url(#SVGID_15_);}
	.st50{clip-path:url(#SVGID_2_);fill:url(#SVGID_16_);}
	.st51{clip-path:url(#SVGID_2_);fill:url(#SVGID_17_);}
	.st52{clip-path:url(#SVGID_2_);fill:url(#SVGID_18_);}
	.st53{clip-path:url(#SVGID_2_);fill:url(#SVGID_19_);}
	.st54{clip-path:url(#SVGID_2_);fill:url(#SVGID_20_);}
	.st55{clip-path:url(#SVGID_2_);fill:url(#SVGID_21_);}
	.st56{clip-path:url(#SVGID_2_);fill:url(#SVGID_22_);}
	.st57{clip-path:url(#SVGID_2_);fill:url(#SVGID_23_);}
	.st58{clip-path:url(#SVGID_2_);fill:url(#SVGID_24_);}
	.st59{clip-path:url(#SVGID_2_);fill:url(#SVGID_25_);}
	.st60{clip-path:url(#SVGID_2_);fill:url(#SVGID_26_);}
	.st61{fill:#8C00D4;}
	.st62{fill:#9B2EDB;}
	.st63{fill:#A46EC4;}
	.st64{opacity:0.6;fill:url(#SVGID_27_);}
	.st65{opacity:0.6;fill:url(#SVGID_28_);}
	.st66{opacity:0.6;fill:url(#SVGID_29_);}
</style>
<g>
	<g>
		<g class="st1">
			<path class="st2" d="M70.6,126.8C36.6,126.8,9,99.1,9,65.2S36.6,3.5,70.6,3.5s61.6,27.6,61.6,61.6S104.6,126.8,70.6,126.8z
				 M70.6,19.9c-25,0-45.3,20.3-45.3,45.3s20.3,45.3,45.3,45.3s45.3-20.3,45.3-45.3S95.5,19.9,70.6,19.9z"/>
		</g>
		<g class="st3">
			<path class="st2" d="M70.6,126.5C36.8,126.5,9.3,99,9.3,65.2S36.8,3.8,70.6,3.8s61.3,27.5,61.3,61.3S104.4,126.5,70.6,126.5z
				 M70.6,19.6C45.5,19.6,25,40,25,65.2s20.4,45.6,45.6,45.6s45.6-20.4,45.6-45.6S95.7,19.6,70.6,19.6z"/>
		</g>
		<g class="st4">
			<path class="st2" d="M70.6,126.1c-33.6,0-61-27.4-61-61c0-33.6,27.4-61,61-61s61,27.4,61,61C131.6,98.8,104.2,126.1,70.6,126.1z
				 M70.6,19.3c-25.3,0-45.9,20.6-45.9,45.9c0,25.3,20.6,45.9,45.9,45.9c25.3,0,45.9-20.6,45.9-45.9C116.5,39.8,95.9,19.3,70.6,19.3
				z"/>
		</g>
		<g class="st5">
			<path class="st2" d="M70.6,125.8c-33.5,0-60.7-27.2-60.7-60.7S37.1,4.5,70.6,4.5s60.7,27.2,60.7,60.7S104,125.8,70.6,125.8z
				 M70.6,18.9c-25.5,0-46.2,20.7-46.2,46.2s20.7,46.2,46.2,46.2s46.2-20.7,46.2-46.2S96.1,18.9,70.6,18.9z"/>
		</g>
		<g class="st6">
			<path class="st2" d="M70.6,125.5c-33.3,0-60.4-27.1-60.4-60.4S37.3,4.8,70.6,4.8S131,31.9,131,65.2S103.9,125.5,70.6,125.5z
				 M70.6,18.6c-25.7,0-46.5,20.9-46.5,46.5s20.9,46.5,46.5,46.5s46.5-20.9,46.5-46.5S96.2,18.6,70.6,18.6z"/>
		</g>
		<g class="st7">
			<path class="st2" d="M70.6,125.2c-33.1,0-60-26.9-60-60c0-33.1,26.9-60,60-60s60,26.9,60,60C130.6,98.3,103.7,125.2,70.6,125.2z
				 M70.6,18.3c-25.8,0-46.8,21-46.8,46.8s21,46.8,46.8,46.8s46.8-21,46.8-46.8S96.4,18.3,70.6,18.3z"/>
		</g>
		<g class="st8">
			<path class="st2" d="M70.6,124.9c-32.9,0-59.7-26.8-59.7-59.7S37.7,5.4,70.6,5.4s59.7,26.8,59.7,59.7S103.5,124.9,70.6,124.9z
				 M70.6,18c-26,0-47.2,21.2-47.2,47.2s21.2,47.2,47.2,47.2s47.2-21.2,47.2-47.2S96.6,18,70.6,18z"/>
		</g>
		<g class="st9">
			<path class="st2" d="M70.6,124.6c-32.8,0-59.4-26.7-59.4-59.4S37.8,5.7,70.6,5.7S130,32.4,130,65.2S103.4,124.6,70.6,124.6z
				 M70.6,17.7c-26.2,0-47.5,21.3-47.5,47.5c0,26.2,21.3,47.5,47.5,47.5s47.5-21.3,47.5-47.5C118.1,39,96.8,17.7,70.6,17.7z"/>
		</g>
		<g class="st10">
			<path class="st2" d="M70.6,124.3c-32.6,0-59.1-26.5-59.1-59.1S38,6,70.6,6s59.1,26.5,59.1,59.1S103.2,124.3,70.6,124.3z
				 M70.6,17.4c-26.3,0-47.8,21.4-47.8,47.8s21.4,47.8,47.8,47.8s47.8-21.4,47.8-47.8S96.9,17.4,70.6,17.4z"/>
		</g>
		<g class="st11">
			<path class="st2" d="M70.6,123.9c-32.4,0-58.8-26.4-58.8-58.8S38.2,6.4,70.6,6.4s58.8,26.4,58.8,58.8S103,123.9,70.6,123.9z
				 M70.6,17.1c-26.5,0-48.1,21.6-48.1,48.1s21.6,48.1,48.1,48.1s48.1-21.6,48.1-48.1S97.1,17.1,70.6,17.1z"/>
		</g>
		<g class="st12">
			<path class="st2" d="M70.6,123.6c-32.2,0-58.5-26.2-58.5-58.5c0-32.2,26.2-58.5,58.5-58.5c32.2,0,58.5,26.2,58.5,58.5
				C129.1,97.4,102.8,123.6,70.6,123.6z M70.6,16.7c-26.7,0-48.4,21.7-48.4,48.4c0,26.7,21.7,48.4,48.4,48.4S119,91.8,119,65.2
				C119,38.5,97.3,16.7,70.6,16.7z"/>
		</g>
		<g class="st13">
			<path class="st2" d="M70.6,123.3c-32.1,0-58.2-26.1-58.2-58.2S38.5,7,70.6,7s58.2,26.1,58.2,58.2S102.7,123.3,70.6,123.3z
				 M70.6,16.4c-26.9,0-48.7,21.9-48.7,48.7s21.9,48.7,48.7,48.7s48.7-21.9,48.7-48.7S97.5,16.4,70.6,16.4z"/>
		</g>
		<g class="st14">
			<path class="st2" d="M70.6,123c-31.9,0-57.8-25.9-57.8-57.8S38.7,7.3,70.6,7.3s57.8,25.9,57.8,57.8S102.5,123,70.6,123z
				 M70.6,16.1c-27,0-49,22-49,49s22,49,49,49s49-22,49-49S97.6,16.1,70.6,16.1z"/>
		</g>
		<g class="st15">
			<path class="st2" d="M70.6,122.7c-31.7,0-57.5-25.8-57.5-57.5c0-31.7,25.8-57.5,57.5-57.5s57.5,25.8,57.5,57.5
				C128.1,96.9,102.3,122.7,70.6,122.7z M70.6,15.8c-27.2,0-49.4,22.1-49.4,49.4s22.1,49.4,49.4,49.4s49.4-22.1,49.4-49.4
				S97.8,15.8,70.6,15.8z"/>
		</g>
		<g class="st16">
			<path class="st2" d="M70.6,122.4c-31.5,0-57.2-25.7-57.2-57.2S39,7.9,70.6,7.9s57.2,25.7,57.2,57.2S102.1,122.4,70.6,122.4z
				 M70.6,15.5c-27.4,0-49.7,22.3-49.7,49.7s22.3,49.7,49.7,49.7s49.7-22.3,49.7-49.7S98,15.5,70.6,15.5z"/>
		</g>
		<g class="st17">
			<path class="st2" d="M70.6,122.1c-31.4,0-56.9-25.5-56.9-56.9c0-31.4,25.5-56.9,56.9-56.9s56.9,25.5,56.9,56.9
				C127.5,96.5,102,122.1,70.6,122.1z M70.6,15.2c-27.6,0-50,22.4-50,50c0,27.6,22.4,50,50,50c27.6,0,50-22.4,50-50
				C120.6,37.6,98.2,15.2,70.6,15.2z"/>
		</g>
		<g class="st18">
			<path class="st2" d="M70.6,121.7C39.4,121.7,14,96.4,14,65.2C14,34,39.4,8.6,70.6,8.6s56.6,25.4,56.6,56.6
				C127.2,96.4,101.8,121.7,70.6,121.7z M70.6,14.9c-27.7,0-50.3,22.6-50.3,50.3s22.6,50.3,50.3,50.3s50.3-22.6,50.3-50.3
				S98.3,14.9,70.6,14.9z"/>
		</g>
		<g class="st19">
			<path class="st2" d="M70.6,121.4c-31,0-56.3-25.2-56.3-56.3S39.6,8.9,70.6,8.9s56.3,25.2,56.3,56.3S101.6,121.4,70.6,121.4z
				 M70.6,14.5C42.7,14.5,20,37.2,20,65.2s22.7,50.6,50.6,50.6s50.6-22.7,50.6-50.6S98.5,14.5,70.6,14.5z"/>
		</g>
		<g class="st20">
			<path class="st2" d="M70.6,121.1c-30.9,0-56-25.1-56-56c0-30.9,25.1-56,56-56s56,25.1,56,56C126.5,96,101.4,121.1,70.6,121.1z
				 M70.6,14.2c-28.1,0-50.9,22.8-50.9,50.9c0,28.1,22.8,50.9,50.9,50.9s50.9-22.8,50.9-50.9C121.5,37.1,98.7,14.2,70.6,14.2z"/>
		</g>
		<g class="st21">
			<path class="st2" d="M70.6,120.8c-30.7,0-55.6-25-55.6-55.6s25-55.6,55.6-55.6s55.6,25,55.6,55.6S101.3,120.8,70.6,120.8z
				 M70.6,13.9c-28.3,0-51.2,23-51.2,51.2s23,51.2,51.2,51.2s51.2-23,51.2-51.2S98.8,13.9,70.6,13.9z"/>
		</g>
		<g class="st22">
			<path class="st2" d="M70.6,120.5c-30.5,0-55.3-24.8-55.3-55.3S40.1,9.8,70.6,9.8s55.3,24.8,55.3,55.3S101.1,120.5,70.6,120.5z
				 M70.6,13.6C42.2,13.6,19,36.7,19,65.2c0,28.4,23.1,51.6,51.6,51.6s51.6-23.1,51.6-51.6C122.1,36.7,99,13.6,70.6,13.6z"/>
		</g>
		<g class="st23">
			<path class="st2" d="M70.6,120.2c-30.3,0-55-24.7-55-55c0-30.3,24.7-55,55-55c30.3,0,55,24.7,55,55
				C125.6,95.5,100.9,120.2,70.6,120.2z M70.6,13.3c-28.6,0-51.9,23.3-51.9,51.9S42,117,70.6,117s51.9-23.3,51.9-51.9
				S99.2,13.3,70.6,13.3z"/>
		</g>
		<g class="st24">
			<path class="st2" d="M70.6,119.9c-30.2,0-54.7-24.5-54.7-54.7s24.5-54.7,54.7-54.7s54.7,24.5,54.7,54.7S100.8,119.9,70.6,119.9z
				 M70.6,13c-28.8,0-52.2,23.4-52.2,52.2s23.4,52.2,52.2,52.2s52.2-23.4,52.2-52.2S99.4,13,70.6,13z"/>
		</g>
		<g>
			<path class="st2" d="M70.6,119.5c-30,0-54.4-24.4-54.4-54.4s24.4-54.4,54.4-54.4S125,35.2,125,65.2S100.6,119.5,70.6,119.5z
				 M70.6,12.7c-28.9,0-52.5,23.6-52.5,52.5c0,28.9,23.6,52.5,52.5,52.5s52.5-23.6,52.5-52.5C123.1,36.2,99.5,12.7,70.6,12.7z"/>
		</g>
		<g>
			<path class="st25" d="M70.6,119.2c-29.8,0-54-24.2-54-54c0-29.8,24.2-54,54-54s54,24.2,54,54C124.6,94.9,100.4,119.2,70.6,119.2z
				 M70.6,12.3c-29.2,0-52.9,23.7-52.9,52.9c0,29.2,23.7,52.9,52.9,52.9c29.2,0,52.9-23.7,52.9-52.9C123.5,36,99.7,12.3,70.6,12.3z"
				/>
		</g>
		<g>
			<path class="st26" d="M70.6,118.8C41,118.8,17,94.7,17,65.2C17,35.6,41,11.5,70.6,11.5s53.6,24.1,53.6,53.6
				C124.2,94.7,100.2,118.8,70.6,118.8z M70.6,11.9c-29.4,0-53.3,23.9-53.3,53.3c0,29.4,23.9,53.3,53.3,53.3s53.3-23.9,53.3-53.3
				C123.8,35.8,100,11.9,70.6,11.9z"/>
		</g>
	</g>
	<g>
		<g class="st1">
			<path class="st2" d="M8.2,100.6c-2.1,0-4.2-0.8-5.8-2.4c-3.2-3.2-3.2-8.4,0-11.6l22-22c3.2-3.2,8.4-3.2,11.6,0
				c3.2,3.2,3.2,8.4,0,11.6l-22,22C12.4,99.8,10.3,100.6,8.2,100.6z"/>
		</g>
		<g class="st3">
			<path class="st2" d="M8.2,100.3c-2,0-4-0.8-5.6-2.3c-3.1-3.1-3.1-8,0-11.1l22-22c3.1-3.1,8.1-3.1,11.1,0c3.1,3.1,3.1,8,0,11.1
				l-22,22C12.2,99.5,10.2,100.3,8.2,100.3z"/>
		</g>
		<g class="st4">
			<path class="st2" d="M8.2,100c-1.9,0-3.9-0.7-5.3-2.2c-2.9-2.9-2.9-7.7,0-10.7l22-22c2.9-2.9,7.7-2.9,10.7,0
				c2.9,2.9,2.9,7.7,0,10.7l-22,22C12,99.2,10.1,100,8.2,100z"/>
		</g>
		<g class="st5">
			<path class="st2" d="M8.2,99.7c-1.9,0-3.7-0.7-5.1-2.1c-2.8-2.8-2.8-7.4,0-10.2l22-22c2.8-2.8,7.4-2.8,10.2,0
				c2.8,2.8,2.8,7.4,0,10.2l-22,22C11.9,99,10,99.7,8.2,99.7z"/>
		</g>
		<g class="st6">
			<path class="st2" d="M8.2,99.4c-1.8,0-3.5-0.7-4.9-2c-2.7-2.7-2.7-7.1,0-9.8l22-22c2.7-2.7,7.1-2.7,9.8,0c2.7,2.7,2.7,7.1,0,9.8
				l-22,22C11.7,98.7,9.9,99.4,8.2,99.4z"/>
		</g>
		<g class="st7">
			<path class="st2" d="M8.2,99c-1.7,0-3.4-0.6-4.7-1.9c-2.6-2.6-2.6-6.8,0-9.3l22-22c2.6-2.6,6.8-2.6,9.3,0c2.6,2.6,2.6,6.8,0,9.3
				l-22,22C11.6,98.4,9.9,99,8.2,99z"/>
		</g>
		<g class="st8">
			<path class="st2" d="M8.2,98.7c-1.6,0-3.2-0.6-4.4-1.8c-2.5-2.5-2.5-6.4,0-8.9l22-22c2.5-2.5,6.4-2.5,8.9,0
				c2.5,2.5,2.5,6.4,0,8.9l-22,22C11.4,98.1,9.8,98.7,8.2,98.7z"/>
		</g>
		<g class="st9">
			<path class="st2" d="M8.2,98.4c-1.5,0-3.1-0.6-4.2-1.8c-2.3-2.3-2.3-6.1,0-8.5l22-22c2.3-2.3,6.1-2.3,8.5,0
				c2.3,2.3,2.3,6.1,0,8.5l-22,22C11.2,97.8,9.7,98.4,8.2,98.4z"/>
		</g>
		<g class="st10">
			<path class="st2" d="M8.2,98.1c-1.4,0-2.9-0.6-4-1.7c-2.2-2.2-2.2-5.8,0-8l22-22c2.2-2.2,5.8-2.2,8,0c2.2,2.2,2.2,5.8,0,8l-22,22
				C11.1,97.5,9.6,98.1,8.2,98.1z"/>
		</g>
		<g class="st11">
			<path class="st2" d="M8.2,97.8c-1.4,0-2.7-0.5-3.8-1.6c-2.1-2.1-2.1-5.5,0-7.6l22-22c2.1-2.1,5.5-2.1,7.6,0
				c2.1,2.1,2.1,5.5,0,7.6l-22,22C10.9,97.3,9.5,97.8,8.2,97.8z"/>
		</g>
		<g class="st12">
			<path class="st2" d="M8.2,97.5c-1.3,0-2.6-0.5-3.6-1.5c-2-2-2-5.2,0-7.1l22-22c2-2,5.2-2,7.1,0c2,2,2,5.2,0,7.1l-22,22
				C10.8,97,9.5,97.5,8.2,97.5z"/>
		</g>
		<g class="st13">
			<path class="st2" d="M8.2,97.2c-1.2,0-2.4-0.5-3.3-1.4c-1.8-1.8-1.8-4.8,0-6.7l22-22c1.8-1.8,4.8-1.8,6.7,0
				c1.8,1.8,1.8,4.8,0,6.7l-22,22C10.6,96.7,9.4,97.2,8.2,97.2z"/>
		</g>
		<g class="st14">
			<path class="st2" d="M8.2,96.8c-1.1,0-2.3-0.4-3.1-1.3c-1.7-1.7-1.7-4.5,0-6.2l22-22c1.7-1.7,4.5-1.7,6.2,0
				c1.7,1.7,1.7,4.5,0,6.2l-22,22C10.4,96.4,9.3,96.8,8.2,96.8z"/>
		</g>
		<g class="st15">
			<path class="st2" d="M8.2,96.5c-1,0-2.1-0.4-2.9-1.2c-1.6-1.6-1.6-4.2,0-5.8l22-22c1.6-1.6,4.2-1.6,5.8,0c1.6,1.6,1.6,4.2,0,5.8
				l-22,22C10.3,96.1,9.2,96.5,8.2,96.5z"/>
		</g>
		<g class="st16">
			<path class="st2" d="M8.2,96.2c-1,0-1.9-0.4-2.7-1.1c-1.5-1.5-1.5-3.9,0-5.3l22-22c1.5-1.5,3.9-1.5,5.3,0c1.5,1.5,1.5,3.9,0,5.3
				l-22,22C10.1,95.8,9.1,96.2,8.2,96.2z"/>
		</g>
		<g class="st17">
			<path class="st2" d="M8.2,95.9c-0.9,0-1.8-0.3-2.4-1c-1.4-1.4-1.4-3.5,0-4.9l22-22c1.4-1.4,3.5-1.4,4.9,0c1.4,1.4,1.4,3.5,0,4.9
				l-22,22C9.9,95.6,9.1,95.9,8.2,95.9z"/>
		</g>
		<g class="st18">
			<path class="st2" d="M8.2,95.6c-0.8,0-1.6-0.3-2.2-0.9c-1.2-1.2-1.2-3.2,0-4.4l22-22c1.2-1.2,3.2-1.2,4.4,0
				c1.2,1.2,1.2,3.2,0,4.4l-22,22C9.8,95.3,9,95.6,8.2,95.6z"/>
		</g>
		<g class="st19">
			<path class="st2" d="M8.2,95.3c-0.7,0-1.4-0.3-2-0.8c-1.1-1.1-1.1-2.9,0-4l22-22c1.1-1.1,2.9-1.1,4,0c1.1,1.1,1.1,2.9,0,4l-22,22
				C9.6,95,8.9,95.3,8.2,95.3z"/>
		</g>
		<g class="st20">
			<path class="st2" d="M8.2,95c-0.6,0-1.3-0.2-1.8-0.7c-1-1-1-2.6,0-3.6l22-22c1-1,2.6-1,3.6,0c1,1,1,2.6,0,3.6l-22,22
				C9.5,94.7,8.8,95,8.2,95z"/>
		</g>
		<g class="st21">
			<path class="st2" d="M8.2,94.6c-0.6,0-1.1-0.2-1.6-0.6c-0.9-0.9-0.9-2.3,0-3.1l22-22c0.9-0.9,2.3-0.9,3.1,0
				c0.9,0.9,0.9,2.3,0,3.1l-22,22C9.3,94.4,8.7,94.6,8.2,94.6z"/>
		</g>
		<g class="st22">
			<path class="st2" d="M8.2,94.3c-0.5,0-1-0.2-1.3-0.6c-0.7-0.7-0.7-1.9,0-2.7l22-22c0.7-0.7,1.9-0.7,2.7,0c0.7,0.7,0.7,1.9,0,2.7
				l-22,22C9.1,94.1,8.7,94.3,8.2,94.3z"/>
		</g>
		<g class="st23">
			<path class="st2" d="M8.2,94c-0.4,0-0.8-0.2-1.1-0.5c-0.6-0.6-0.6-1.6,0-2.2l22-22c0.6-0.6,1.6-0.6,2.2,0c0.6,0.6,0.6,1.6,0,2.2
				l-22,22C9,93.9,8.6,94,8.2,94z"/>
		</g>
		<g class="st24">
			<path class="st2" d="M8.2,93.7c-0.3,0-0.6-0.1-0.9-0.4c-0.5-0.5-0.5-1.3,0-1.8l22-22c0.5-0.5,1.3-0.5,1.8,0
				c0.5,0.5,0.5,1.3,0,1.8l-22,22C8.8,93.6,8.5,93.7,8.2,93.7z"/>
		</g>
		<g>
			<path class="st2" d="M8.2,93.4c-0.2,0-0.5-0.1-0.7-0.3c-0.4-0.4-0.4-1,0-1.3l22-22c0.4-0.4,1-0.4,1.3,0c0.4,0.4,0.4,1,0,1.3
				l-22,22C8.7,93.3,8.4,93.4,8.2,93.4z"/>
		</g>
		<g>
			<path class="st25" d="M8.2,93c-0.1,0-0.3-0.1-0.4-0.2c-0.2-0.2-0.2-0.6,0-0.8l22-22c0.2-0.2,0.6-0.2,0.8,0c0.2,0.2,0.2,0.6,0,0.8
				l-22,22C8.5,92.9,8.3,93,8.2,93z"/>
		</g>
		<g>
			<path class="st26" d="M8.2,92.6c0,0-0.1,0-0.1-0.1C8,92.5,8,92.4,8,92.3l22-22c0.1-0.1,0.2-0.1,0.3,0c0.1,0.1,0.1,0.2,0,0.3
				l-22,22C8.3,92.6,8.2,92.6,8.2,92.6z"/>
		</g>
	</g>
	<g>
		<g class="st1">
			<path class="st2" d="M94.4,57.7c-2.1,0-4.2-0.8-5.8-2.4c-3.2-3.2-3.2-8.4,0-11.6l31-31c3.2-3.2,8.4-3.2,11.6,0
				c3.2,3.2,3.2,8.4,0,11.6l-31,31C98.6,57,96.5,57.7,94.4,57.7z"/>
		</g>
		<g class="st3">
			<path class="st2" d="M94.4,57.4c-2,0-4-0.8-5.6-2.3c-3.1-3.1-3.1-8,0-11.1l31-31c3.1-3.1,8.1-3.1,11.1,0c3.1,3.1,3.1,8,0,11.1
				l-31,31C98.4,56.7,96.4,57.4,94.4,57.4z"/>
		</g>
		<g class="st4">
			<path class="st2" d="M94.4,57.1c-1.9,0-3.9-0.7-5.3-2.2c-2.9-2.9-2.9-7.7,0-10.7l31-31c2.9-2.9,7.7-2.9,10.7,0
				c2.9,2.9,2.9,7.7,0,10.7l-31,31C98.2,56.4,96.3,57.1,94.4,57.1z"/>
		</g>
		<g class="st5">
			<path class="st2" d="M94.4,56.8c-1.9,0-3.7-0.7-5.1-2.1c-2.8-2.8-2.8-7.4,0-10.2l31-31c2.8-2.8,7.4-2.8,10.2,0s2.8,7.4,0,10.2
				l-31,31C98.1,56.1,96.2,56.8,94.4,56.8z"/>
		</g>
		<g class="st6">
			<path class="st2" d="M94.4,56.5c-1.8,0-3.5-0.7-4.9-2c-2.7-2.7-2.7-7.1,0-9.8l31-31c2.7-2.7,7.1-2.7,9.8,0c2.7,2.7,2.7,7.1,0,9.8
				l-31,31C97.9,55.8,96.1,56.5,94.4,56.5z"/>
		</g>
		<g class="st7">
			<path class="st2" d="M94.4,56.2c-1.7,0-3.4-0.6-4.7-1.9c-2.6-2.6-2.6-6.8,0-9.3l31-31c2.6-2.6,6.8-2.6,9.3,0
				c2.6,2.6,2.6,6.8,0,9.3l-31,31C97.8,55.5,96.1,56.2,94.4,56.2z"/>
		</g>
		<g class="st8">
			<path class="st2" d="M94.4,55.9c-1.6,0-3.2-0.6-4.4-1.8c-2.5-2.5-2.5-6.4,0-8.9l31-31c2.5-2.5,6.4-2.5,8.9,0
				c2.5,2.5,2.5,6.4,0,8.9l-31,31C97.6,55.2,96,55.9,94.4,55.9z"/>
		</g>
		<g class="st9">
			<path class="st2" d="M94.4,55.5c-1.5,0-3.1-0.6-4.2-1.8c-2.3-2.3-2.3-6.1,0-8.5l31-31c2.3-2.3,6.1-2.3,8.5,0
				c2.3,2.3,2.3,6.1,0,8.5l-31,31C97.4,55,95.9,55.5,94.4,55.5z"/>
		</g>
		<g class="st10">
			<path class="st2" d="M94.4,55.2c-1.4,0-2.9-0.6-4-1.7c-2.2-2.2-2.2-5.8,0-8l31-31c2.2-2.2,5.8-2.2,8,0c2.2,2.2,2.2,5.8,0,8
				l-31,31C97.3,54.7,95.8,55.2,94.4,55.2z"/>
		</g>
		<g class="st11">
			<path class="st2" d="M94.4,54.9c-1.4,0-2.7-0.5-3.8-1.6c-2.1-2.1-2.1-5.5,0-7.6l31-31c2.1-2.1,5.5-2.1,7.6,0
				c2.1,2.1,2.1,5.5,0,7.6l-31,31C97.1,54.4,95.7,54.9,94.4,54.9z"/>
		</g>
		<g class="st12">
			<path class="st2" d="M94.4,54.6c-1.3,0-2.6-0.5-3.6-1.5c-2-2-2-5.2,0-7.1l31-31c2-2,5.2-2,7.1,0c2,2,2,5.2,0,7.1l-31,31
				C97,54.1,95.7,54.6,94.4,54.6z"/>
		</g>
		<g class="st13">
			<path class="st2" d="M94.4,54.3c-1.2,0-2.4-0.5-3.3-1.4c-1.8-1.8-1.8-4.8,0-6.7l31-31c1.8-1.8,4.8-1.8,6.7,0
				c1.8,1.8,1.8,4.8,0,6.7l-31,31C96.8,53.8,95.6,54.3,94.4,54.3z"/>
		</g>
		<g class="st14">
			<path class="st2" d="M94.4,54c-1.1,0-2.3-0.4-3.1-1.3c-1.7-1.7-1.7-4.5,0-6.2l31-31c1.7-1.7,4.5-1.7,6.2,0c1.7,1.7,1.7,4.5,0,6.2
				l-31,31C96.6,53.5,95.5,54,94.4,54z"/>
		</g>
		<g class="st15">
			<path class="st2" d="M94.4,53.7c-1,0-2.1-0.4-2.9-1.2c-1.6-1.6-1.6-4.2,0-5.8l31-31c1.6-1.6,4.2-1.6,5.8,0c1.6,1.6,1.6,4.2,0,5.8
				l-31,31C96.5,53.3,95.4,53.7,94.4,53.7z"/>
		</g>
		<g class="st16">
			<path class="st2" d="M94.4,53.3c-1,0-1.9-0.4-2.7-1.1c-1.5-1.5-1.5-3.9,0-5.3l31-31c1.5-1.5,3.9-1.5,5.3,0c1.5,1.5,1.5,3.9,0,5.3
				l-31,31C96.3,53,95.3,53.3,94.4,53.3z"/>
		</g>
		<g class="st17">
			<path class="st2" d="M94.4,53c-0.9,0-1.8-0.3-2.4-1c-1.4-1.4-1.4-3.5,0-4.9l31-31c1.4-1.4,3.5-1.4,4.9,0c1.4,1.4,1.4,3.5,0,4.9
				l-31,31C96.1,52.7,95.3,53,94.4,53z"/>
		</g>
		<g class="st18">
			<path class="st2" d="M94.4,52.7c-0.8,0-1.6-0.3-2.2-0.9c-1.2-1.2-1.2-3.2,0-4.4l31-31c1.2-1.2,3.2-1.2,4.4,0
				c1.2,1.2,1.2,3.2,0,4.4l-31,31C96,52.4,95.2,52.7,94.4,52.7z"/>
		</g>
		<g class="st19">
			<path class="st2" d="M94.4,52.4c-0.7,0-1.4-0.3-2-0.8c-1.1-1.1-1.1-2.9,0-4l31-31c1.1-1.1,2.9-1.1,4,0c1.1,1.1,1.1,2.9,0,4
				l-31,31C95.8,52.1,95.1,52.4,94.4,52.4z"/>
		</g>
		<g class="st20">
			<path class="st2" d="M94.4,52.1c-0.6,0-1.3-0.2-1.8-0.7c-1-1-1-2.6,0-3.6l31-31c1-1,2.6-1,3.6,0c1,1,1,2.6,0,3.6l-31,31
				C95.7,51.8,95,52.1,94.4,52.1z"/>
		</g>
		<g class="st21">
			<path class="st2" d="M94.4,51.8c-0.6,0-1.1-0.2-1.6-0.6c-0.9-0.9-0.9-2.3,0-3.1l31-31c0.9-0.9,2.3-0.9,3.1,0
				c0.9,0.9,0.9,2.3,0,3.1l-31,31C95.5,51.6,94.9,51.8,94.4,51.8z"/>
		</g>
		<g class="st22">
			<path class="st2" d="M94.4,51.5c-0.5,0-1-0.2-1.3-0.6c-0.7-0.7-0.7-1.9,0-2.7l31-31c0.7-0.7,1.9-0.7,2.7,0c0.7,0.7,0.7,1.9,0,2.7
				l-31,31C95.3,51.3,94.9,51.5,94.4,51.5z"/>
		</g>
		<g class="st23">
			<path class="st2" d="M94.4,51.1c-0.4,0-0.8-0.2-1.1-0.5c-0.6-0.6-0.6-1.6,0-2.2l31-31c0.6-0.6,1.6-0.6,2.2,0
				c0.6,0.6,0.6,1.6,0,2.2l-31,31C95.2,51,94.8,51.1,94.4,51.1z"/>
		</g>
		<g class="st24">
			<path class="st2" d="M94.4,50.8c-0.3,0-0.6-0.1-0.9-0.4c-0.5-0.5-0.5-1.3,0-1.8l31-31c0.5-0.5,1.3-0.5,1.8,0
				c0.5,0.5,0.5,1.3,0,1.8l-31,31C95,50.7,94.7,50.8,94.4,50.8z"/>
		</g>
		<g>
			<path class="st2" d="M94.4,50.5c-0.2,0-0.5-0.1-0.7-0.3c-0.4-0.4-0.4-1,0-1.3l31-31c0.4-0.4,1-0.4,1.3,0c0.4,0.4,0.4,1,0,1.3
				l-31,31C94.9,50.4,94.6,50.5,94.4,50.5z"/>
		</g>
		<g>
			<path class="st25" d="M94.4,50.1c-0.1,0-0.3-0.1-0.4-0.2c-0.2-0.2-0.2-0.6,0-0.8l31-31c0.2-0.2,0.6-0.2,0.8,0
				c0.2,0.2,0.2,0.6,0,0.8l-31,31C94.7,50.1,94.5,50.1,94.4,50.1z"/>
		</g>
		<g>
			<path class="st26" d="M94.4,49.8c0,0-0.1,0-0.1-0.1c-0.1-0.1-0.1-0.2,0-0.3l31-31c0.1-0.1,0.2-0.1,0.3,0c0.1,0.1,0.1,0.2,0,0.3
				l-31,31C94.5,49.7,94.4,49.8,94.4,49.8z"/>
		</g>
	</g>
	<radialGradient id="SVGID_2_" cx="70.6188" cy="65.0079" r="65.0079" gradientUnits="userSpaceOnUse">
		<stop  offset="0.302" style="stop-color:#FFFFFF;stop-opacity:0"/>
		<stop  offset="0.3785" style="stop-color:#FBFDFF;stop-opacity:0.1392"/>
		<stop  offset="0.4485" style="stop-color:#F0F7FD;stop-opacity:0.2666"/>
		<stop  offset="0.516" style="stop-color:#DEEDFB;stop-opacity:0.3895"/>
		<stop  offset="0.5819" style="stop-color:#C3DFF8;stop-opacity:0.5094"/>
		<stop  offset="0.6468" style="stop-color:#A2CDF4;stop-opacity:0.6274"/>
		<stop  offset="0.7107" style="stop-color:#78B7F0;stop-opacity:0.7439"/>
		<stop  offset="0.774" style="stop-color:#479DEA;stop-opacity:0.8591"/>
		<stop  offset="0.8353" style="stop-color:#107FE4;stop-opacity:0.9706"/>
		<stop  offset="0.8515" style="stop-color:#0077E2"/>
		<stop  offset="0.9155" style="stop-color:#74B5EF;stop-opacity:0.569"/>
		<stop  offset="0.974" style="stop-color:#D8EAFB;stop-opacity:0.1749"/>
		<stop  offset="1" style="stop-color:#FFFFFF;stop-opacity:0"/>
	</radialGradient>
	<circle style="opacity:0.6;fill:url(#SVGID_2_);" cx="70.6" cy="65" r="65"/>
</g>
</svg>
