<?xml version="1.0" encoding="utf-8"?>
<!-- Generator: Adobe Illustrator 22.1.0, SVG Export Plug-In . SVG Version: 6.00 Build 0)  -->
<svg version="1.1" id="Layer_1" xmlns="http://www.w3.org/2000/svg" xmlns:xlink="http://www.w3.org/1999/xlink" x="0px" y="0px"
	 viewBox="0 0 133.5 143.1" style="enable-background:new 0 0 133.5 143.1;" xml:space="preserve">
<style type="text/css">
	.st0{clip-path:url(#SVGID_2_);}
	.st1{opacity:2.170000e-04;}
	.st2{fill:#0055FF;}
	.st3{opacity:6.540000e-04;}
	.st4{opacity:1.311000e-03;}
	.st5{opacity:2.194000e-03;}
	.st6{opacity:3.307000e-03;}
	.st7{opacity:4.657000e-03;}
	.st8{opacity:6.254000e-03;}
	.st9{opacity:8.108000e-03;}
	.st10{opacity:1.023200e-02;}
	.st11{opacity:1.264500e-02;}
	.st12{opacity:1.536500e-02;}
	.st13{opacity:1.842100e-02;}
	.st14{opacity:2.184300e-02;}
	.st15{opacity:2.567400e-02;}
	.st16{opacity:2.997000e-02;}
	.st17{opacity:3.480300e-02;}
	.st18{opacity:4.027800e-02;}
	.st19{opacity:4.654400e-02;}
	.st20{opacity:5.384100e-02;}
	.st21{opacity:6.258100e-02;}
	.st22{opacity:7.361100e-02;}
	.st23{opacity:8.930700e-02;}
	.st24{opacity:0.1407;}
	.st25{fill:#80AAFF;}
	.st26{fill:#FFFFFF;}
	.st27{fill:#009B4D;}
	.st28{fill:#80CDA6;}
	.st29{fill:#E28300;}
	.st30{fill:#F1C180;}
	.st31{fill:#FF0078;}
	.st32{fill:#FF80BC;}
	.st33{fill:#FF0026;}
	.st34{fill:#FF8093;}
	.st35{fill:#0079B8;}
	.st36{fill:#80BCDC;}
	.st37{opacity:0.6;clip-path:url(#SVGID_2_);fill:url(#SVGID_3_);}
	.st38{opacity:0.6;clip-path:url(#SVGID_2_);fill:url(#SVGID_4_);}
	.st39{opacity:0.6;clip-path:url(#SVGID_2_);fill:url(#SVGID_5_);}
	.st40{opacity:0.6;clip-path:url(#SVGID_2_);fill:url(#SVGID_6_);}
	.st41{opacity:0.6;clip-path:url(#SVGID_2_);fill:url(#SVGID_7_);}
	.st42{opacity:0.6;clip-path:url(#SVGID_2_);fill:url(#SVGID_8_);}
	.st43{clip-path:url(#SVGID_2_);fill:url(#SVGID_9_);}
	.st44{clip-path:url(#SVGID_2_);fill:url(#SVGID_10_);}
	.st45{clip-path:url(#SVGID_2_);fill:url(#SVGID_11_);}
	.st46{clip-path:url(#SVGID_2_);fill:url(#SVGID_12_);}
	.st47{clip-path:url(#SVGID_2_);fill:url(#SVGID_13_);}
	.st48{clip-path:url(#SVGID_2_);fill:url(#SVGID_14_);}
	.st49{clip-path:url(#SVGID_2_);fill:url(#SVGID_15_);}
	.st50{clip-path:url(#SVGID_2_);fill:url(#SVGID_16_);}
	.st51{clip-path:url(#SVGID_2_);fill:url(#SVGID_17_);}
	.st52{clip-path:url(#SVGID_2_);fill:url(#SVGID_18_);}
	.st53{clip-path:url(#SVGID_2_);fill:url(#SVGID_19_);}
	.st54{clip-path:url(#SVGID_2_);fill:url(#SVGID_20_);}
	.st55{clip-path:url(#SVGID_2_);fill:url(#SVGID_21_);}
	.st56{clip-path:url(#SVGID_2_);fill:url(#SVGID_22_);}
	.st57{clip-path:url(#SVGID_2_);fill:url(#SVGID_23_);}
	.st58{clip-path:url(#SVGID_2_);fill:url(#SVGID_24_);}
	.st59{clip-path:url(#SVGID_2_);fill:url(#SVGID_25_);}
	.st60{clip-path:url(#SVGID_2_);fill:url(#SVGID_26_);}
	.st61{fill:#8C00D4;}
	.st62{fill:#9B2EDB;}
	.st63{fill:#A46EC4;}
	.st64{opacity:0.6;fill:url(#SVGID_27_);}
	.st65{opacity:0.6;fill:url(#SVGID_28_);}
	.st66{opacity:0.6;fill:url(#SVGID_29_);}
</style>
<g>
	<g>
		<g class="st1">
			<path class="st35" d="M69.5,129.8c-34,0-61.6-27.6-61.6-61.6c0-34,27.6-61.6,61.6-61.6s61.6,27.6,61.6,61.6
				C131.1,102.2,103.5,129.8,69.5,129.8z M69.5,22.9c-25,0-45.3,20.3-45.3,45.3c0,25,20.3,45.3,45.3,45.3s45.3-20.3,45.3-45.3
				C114.8,43.3,94.5,22.9,69.5,22.9z"/>
		</g>
		<g class="st3">
			<path class="st35" d="M69.5,129.5c-33.8,0-61.3-27.5-61.3-61.3S35.7,6.9,69.5,6.9s61.3,27.5,61.3,61.3S103.3,129.5,69.5,129.5z
				 M69.5,22.6c-25.1,0-45.6,20.4-45.6,45.6c0,25.1,20.4,45.6,45.6,45.6s45.6-20.4,45.6-45.6C115.1,43.1,94.7,22.6,69.5,22.6z"/>
		</g>
		<g class="st4">
			<path class="st35" d="M69.5,129.2c-33.6,0-61-27.4-61-61c0-33.6,27.4-61,61-61s61,27.4,61,61C130.5,101.8,103.2,129.2,69.5,129.2
				z M69.5,22.3c-25.3,0-45.9,20.6-45.9,45.9c0,25.3,20.6,45.9,45.9,45.9s45.9-20.6,45.9-45.9C115.4,42.9,94.8,22.3,69.5,22.3z"/>
		</g>
		<g class="st5">
			<path class="st35" d="M69.5,128.9c-33.5,0-60.7-27.2-60.7-60.7c0-33.5,27.2-60.7,60.7-60.7s60.7,27.2,60.7,60.7
				C130.2,101.7,103,128.9,69.5,128.9z M69.5,22C44,22,23.3,42.7,23.3,68.2c0,25.5,20.7,46.2,46.2,46.2s46.2-20.7,46.2-46.2
				C115.7,42.7,95,22,69.5,22z"/>
		</g>
		<g class="st6">
			<path class="st35" d="M69.5,128.6c-33.3,0-60.4-27.1-60.4-60.4c0-33.3,27.1-60.4,60.4-60.4s60.4,27.1,60.4,60.4
				C129.9,101.5,102.8,128.6,69.5,128.6z M69.5,21.7C43.9,21.7,23,42.6,23,68.2c0,25.7,20.9,46.5,46.5,46.5S116,93.9,116,68.2
				C116,42.6,95.2,21.7,69.5,21.7z"/>
		</g>
		<g class="st7">
			<path class="st35" d="M69.5,128.3c-33.1,0-60-26.9-60-60c0-33.1,26.9-60,60-60s60,26.9,60,60C129.6,101.3,102.6,128.3,69.5,128.3
				z M69.5,21.4c-25.8,0-46.8,21-46.8,46.8c0,25.8,21,46.8,46.8,46.8s46.8-21,46.8-46.8C116.4,42.4,95.3,21.4,69.5,21.4z"/>
		</g>
		<g class="st8">
			<path class="st35" d="M69.5,127.9c-32.9,0-59.7-26.8-59.7-59.7c0-32.9,26.8-59.7,59.7-59.7s59.7,26.8,59.7,59.7
				C129.3,101.1,102.5,127.9,69.5,127.9z M69.5,21.1c-26,0-47.2,21.2-47.2,47.2c0,26,21.2,47.2,47.2,47.2s47.2-21.2,47.2-47.2
				C116.7,42.2,95.5,21.1,69.5,21.1z"/>
		</g>
		<g class="st9">
			<path class="st35" d="M69.5,127.6c-32.8,0-59.4-26.7-59.4-59.4c0-32.8,26.7-59.4,59.4-59.4s59.4,26.7,59.4,59.4
				C128.9,101,102.3,127.6,69.5,127.6z M69.5,20.7c-26.2,0-47.5,21.3-47.5,47.5c0,26.2,21.3,47.5,47.5,47.5S117,94.4,117,68.2
				C117,42,95.7,20.7,69.5,20.7z"/>
		</g>
		<g class="st10">
			<path class="st35" d="M69.5,127.3c-32.6,0-59.1-26.5-59.1-59.1c0-32.6,26.5-59.1,59.1-59.1s59.1,26.5,59.1,59.1
				C128.6,100.8,102.1,127.3,69.5,127.3z M69.5,20.4c-26.3,0-47.8,21.4-47.8,47.8c0,26.3,21.4,47.8,47.8,47.8s47.8-21.4,47.8-47.8
				C117.3,41.9,95.9,20.4,69.5,20.4z"/>
		</g>
		<g class="st11">
			<path class="st35" d="M69.5,127c-32.4,0-58.8-26.4-58.8-58.8c0-32.4,26.4-58.8,58.8-58.8s58.8,26.4,58.8,58.8
				C128.3,100.6,101.9,127,69.5,127z M69.5,20.1c-26.5,0-48.1,21.6-48.1,48.1c0,26.5,21.6,48.1,48.1,48.1s48.1-21.6,48.1-48.1
				C117.6,41.7,96,20.1,69.5,20.1z"/>
		</g>
		<g class="st12">
			<path class="st35" d="M69.5,126.7c-32.2,0-58.5-26.2-58.5-58.5C11,36,37.3,9.7,69.5,9.7S128,36,128,68.2
				C128,100.5,101.8,126.7,69.5,126.7z M69.5,19.8c-26.7,0-48.4,21.7-48.4,48.4c0,26.7,21.7,48.4,48.4,48.4s48.4-21.7,48.4-48.4
				C117.9,41.5,96.2,19.8,69.5,19.8z"/>
		</g>
		<g class="st13">
			<path class="st35" d="M69.5,126.4c-32.1,0-58.2-26.1-58.2-58.2c0-32.1,26.1-58.2,58.2-58.2s58.2,26.1,58.2,58.2
				C127.7,100.3,101.6,126.4,69.5,126.4z M69.5,19.5c-26.9,0-48.7,21.9-48.7,48.7c0,26.9,21.9,48.7,48.7,48.7s48.7-21.9,48.7-48.7
				C118.2,41.3,96.4,19.5,69.5,19.5z"/>
		</g>
		<g class="st14">
			<path class="st35" d="M69.5,126.1c-31.9,0-57.8-25.9-57.8-57.8c0-31.9,25.9-57.8,57.8-57.8s57.8,25.9,57.8,57.8
				C127.4,100.1,101.4,126.1,69.5,126.1z M69.5,19.2c-27,0-49,22-49,49c0,27,22,49,49,49s49-22,49-49
				C118.6,41.2,96.6,19.2,69.5,19.2z"/>
		</g>
		<g class="st15">
			<path class="st35" d="M69.5,125.7C37.8,125.7,12,99.9,12,68.2c0-31.7,25.8-57.5,57.5-57.5s57.5,25.8,57.5,57.5
				C127.1,99.9,101.2,125.7,69.5,125.7z M69.5,18.9c-27.2,0-49.4,22.1-49.4,49.4c0,27.2,22.1,49.4,49.4,49.4s49.4-22.1,49.4-49.4
				C118.9,41,96.7,18.9,69.5,18.9z"/>
		</g>
		<g class="st16">
			<path class="st35" d="M69.5,125.4c-31.5,0-57.2-25.7-57.2-57.2C12.3,36.7,38,11,69.5,11s57.2,25.7,57.2,57.2
				C126.7,99.8,101.1,125.4,69.5,125.4z M69.5,18.5c-27.4,0-49.7,22.3-49.7,49.7c0,27.4,22.3,49.7,49.7,49.7s49.7-22.3,49.7-49.7
				C119.2,40.8,96.9,18.5,69.5,18.5z"/>
		</g>
		<g class="st17">
			<path class="st35" d="M69.5,125.1c-31.4,0-56.9-25.5-56.9-56.9c0-31.4,25.5-56.9,56.9-56.9s56.9,25.5,56.9,56.9
				C126.4,99.6,100.9,125.1,69.5,125.1z M69.5,18.2c-27.6,0-50,22.4-50,50c0,27.6,22.4,50,50,50s50-22.4,50-50
				C119.5,40.7,97.1,18.2,69.5,18.2z"/>
		</g>
		<g class="st18">
			<path class="st35" d="M69.5,124.8c-31.2,0-56.6-25.4-56.6-56.6c0-31.2,25.4-56.6,56.6-56.6s56.6,25.4,56.6,56.6
				C126.1,99.4,100.7,124.8,69.5,124.8z M69.5,17.9c-27.7,0-50.3,22.6-50.3,50.3c0,27.7,22.6,50.3,50.3,50.3s50.3-22.6,50.3-50.3
				C119.8,40.5,97.3,17.9,69.5,17.9z"/>
		</g>
		<g class="st19">
			<path class="st35" d="M69.5,124.5c-31,0-56.3-25.2-56.3-56.3c0-31,25.2-56.3,56.3-56.3s56.3,25.2,56.3,56.3
				C125.8,99.2,100.5,124.5,69.5,124.5z M69.5,17.6c-27.9,0-50.6,22.7-50.6,50.6c0,27.9,22.7,50.6,50.6,50.6s50.6-22.7,50.6-50.6
				C120.1,40.3,97.4,17.6,69.5,17.6z"/>
		</g>
		<g class="st20">
			<path class="st35" d="M69.5,124.2c-30.9,0-56-25.1-56-56c0-30.9,25.1-56,56-56s56,25.1,56,56C125.5,99.1,100.4,124.2,69.5,124.2z
				 M69.5,17.3c-28.1,0-50.9,22.8-50.9,50.9c0,28.1,22.8,50.9,50.9,50.9s50.9-22.8,50.9-50.9C120.4,40.1,97.6,17.3,69.5,17.3z"/>
		</g>
		<g class="st21">
			<path class="st35" d="M69.5,123.9c-30.7,0-55.6-25-55.6-55.6c0-30.7,25-55.6,55.6-55.6s55.6,25,55.6,55.6
				C125.2,98.9,100.2,123.9,69.5,123.9z M69.5,17c-28.3,0-51.2,23-51.2,51.2s23,51.2,51.2,51.2s51.2-23,51.2-51.2S97.8,17,69.5,17z"
				/>
		</g>
		<g class="st22">
			<path class="st35" d="M69.5,123.5c-30.5,0-55.3-24.8-55.3-55.3c0-30.5,24.8-55.3,55.3-55.3s55.3,24.8,55.3,55.3
				C124.9,98.7,100,123.5,69.5,123.5z M69.5,16.7C41.1,16.7,18,39.8,18,68.2c0,28.4,23.1,51.6,51.6,51.6s51.6-23.1,51.6-51.6
				C121.1,39.8,97.9,16.7,69.5,16.7z"/>
		</g>
		<g class="st23">
			<path class="st35" d="M69.5,123.2c-30.3,0-55-24.7-55-55c0-30.3,24.7-55,55-55c30.3,0,55,24.7,55,55
				C124.5,98.5,99.9,123.2,69.5,123.2z M69.5,16.3c-28.6,0-51.9,23.3-51.9,51.9c0,28.6,23.3,51.9,51.9,51.9s51.9-23.3,51.9-51.9
				C121.4,39.6,98.1,16.3,69.5,16.3z"/>
		</g>
		<g class="st24">
			<path class="st35" d="M69.5,122.9c-30.2,0-54.7-24.5-54.7-54.7c0-30.2,24.5-54.7,54.7-54.7s54.7,24.5,54.7,54.7
				C124.2,98.4,99.7,122.9,69.5,122.9z M69.5,16c-28.8,0-52.2,23.4-52.2,52.2s23.4,52.2,52.2,52.2s52.2-23.4,52.2-52.2
				S98.3,16,69.5,16z"/>
		</g>
		<g>
			<path class="st35" d="M69.5,122.6c-30,0-54.4-24.4-54.4-54.4c0-30,24.4-54.4,54.4-54.4s54.4,24.4,54.4,54.4
				C123.9,98.2,99.5,122.6,69.5,122.6z M69.5,15.7C40.6,15.7,17,39.3,17,68.2c0,28.9,23.6,52.5,52.5,52.5S122,97.2,122,68.2
				C122,39.3,98.5,15.7,69.5,15.7z"/>
		</g>
		<g>
			<path class="st36" d="M69.5,122.2c-29.8,0-54-24.2-54-54c0-29.8,24.2-54,54-54s54,24.2,54,54C123.5,98,99.3,122.2,69.5,122.2z
				 M69.5,15.3c-29.2,0-52.9,23.7-52.9,52.9c0,29.2,23.7,52.9,52.9,52.9c29.2,0,52.9-23.7,52.9-52.9C122.4,39.1,98.7,15.3,69.5,15.3
				z"/>
		</g>
		<g>
			<path class="st26" d="M69.5,121.8c-29.6,0-53.6-24.1-53.6-53.6c0-29.6,24.1-53.6,53.6-53.6s53.6,24.1,53.6,53.6
				C123.2,97.8,99.1,121.8,69.5,121.8z M69.5,15c-29.4,0-53.3,23.9-53.3,53.3c0,29.4,23.9,53.3,53.3,53.3s53.3-23.9,53.3-53.3
				C122.8,38.8,98.9,15,69.5,15z"/>
		</g>
	</g>
	<g>
		<g class="st1">
			<path class="st35" d="M8.2,73.1c-2.1,0-4.2-0.8-5.8-2.4c-3.2-3.2-3.2-8.4,0-11.6l27.9-27.9c3.2-3.2,8.4-3.2,11.6,0
				c3.2,3.2,3.2,8.4,0,11.6L14,70.7C12.4,72.3,10.3,73.1,8.2,73.1z"/>
		</g>
		<g class="st3">
			<path class="st35" d="M8.2,72.7c-2,0-4-0.8-5.6-2.3c-3.1-3.1-3.1-8,0-11.1l27.9-27.9c3.1-3.1,8-3.1,11.1,0c3.1,3.1,3.1,8,0,11.1
				L13.7,70.4C12.2,72,10.2,72.7,8.2,72.7z"/>
		</g>
		<g class="st4">
			<path class="st35" d="M8.2,72.4c-1.9,0-3.9-0.7-5.3-2.2c-2.9-2.9-2.9-7.7,0-10.7l27.9-27.9c2.9-2.9,7.7-2.9,10.7,0
				s2.9,7.7,0,10.7L13.5,70.2C12,71.7,10.1,72.4,8.2,72.4z"/>
		</g>
		<g class="st5">
			<path class="st35" d="M8.2,72.1c-1.9,0-3.7-0.7-5.1-2.1c-2.8-2.8-2.8-7.4,0-10.2L31,31.8c2.8-2.8,7.4-2.8,10.2,0
				c2.8,2.8,2.8,7.4,0,10.2L13.3,70C11.9,71.4,10,72.1,8.2,72.1z"/>
		</g>
		<g class="st6">
			<path class="st35" d="M8.2,71.8c-1.8,0-3.5-0.7-4.9-2c-2.7-2.7-2.7-7.1,0-9.8L31.2,32c2.7-2.7,7.1-2.7,9.8,0
				c2.7,2.7,2.7,7.1,0,9.8L13.1,69.8C11.7,71.1,9.9,71.8,8.2,71.8z"/>
		</g>
		<g class="st7">
			<path class="st35" d="M8.2,71.5c-1.7,0-3.4-0.6-4.7-1.9c-2.6-2.6-2.6-6.8,0-9.3l27.9-27.9c2.6-2.6,6.8-2.6,9.3,0
				c2.6,2.6,2.6,6.8,0,9.3L12.8,69.6C11.6,70.8,9.9,71.5,8.2,71.5z"/>
		</g>
		<g class="st8">
			<path class="st35" d="M8.2,71.2c-1.6,0-3.2-0.6-4.4-1.8c-2.5-2.5-2.5-6.4,0-8.9l27.9-27.9c2.5-2.5,6.4-2.5,8.9,0
				c2.5,2.5,2.5,6.4,0,8.9L12.6,69.3C11.4,70.6,9.8,71.2,8.2,71.2z"/>
		</g>
		<g class="st9">
			<path class="st35" d="M8.2,70.9c-1.5,0-3.1-0.6-4.2-1.8c-2.3-2.3-2.3-6.1,0-8.5l27.9-27.9c2.3-2.3,6.1-2.3,8.5,0
				c2.3,2.3,2.3,6.1,0,8.5L12.4,69.1C11.2,70.3,9.7,70.9,8.2,70.9z"/>
		</g>
		<g class="st10">
			<path class="st35" d="M8.2,70.5c-1.4,0-2.9-0.6-4-1.7c-2.2-2.2-2.2-5.8,0-8l27.9-27.9c2.2-2.2,5.8-2.2,8,0c2.2,2.2,2.2,5.8,0,8
				L12.2,68.9C11.1,70,9.6,70.5,8.2,70.5z"/>
		</g>
		<g class="st11">
			<path class="st35" d="M8.2,70.2c-1.4,0-2.7-0.5-3.8-1.6c-2.1-2.1-2.1-5.5,0-7.6l27.9-27.9c2.1-2.1,5.5-2.1,7.6,0
				c2.1,2.1,2.1,5.5,0,7.6L12,68.7C10.9,69.7,9.5,70.2,8.2,70.2z"/>
		</g>
		<g class="st12">
			<path class="st35" d="M8.2,69.9c-1.3,0-2.6-0.5-3.6-1.5c-2-2-2-5.2,0-7.1l27.9-27.9c2-2,5.2-2,7.1,0c2,2,2,5.2,0,7.1L11.7,68.4
				C10.8,69.4,9.5,69.9,8.2,69.9z"/>
		</g>
		<g class="st13">
			<path class="st35" d="M8.2,69.6c-1.2,0-2.4-0.5-3.3-1.4c-1.8-1.8-1.8-4.8,0-6.7l27.9-27.9c1.8-1.8,4.8-1.8,6.7,0
				c1.8,1.8,1.8,4.8,0,6.7L11.5,68.2C10.6,69.1,9.4,69.6,8.2,69.6z"/>
		</g>
		<g class="st14">
			<path class="st35" d="M8.2,69.3c-1.1,0-2.3-0.4-3.1-1.3c-1.7-1.7-1.7-4.5,0-6.2L33,33.8c1.7-1.7,4.5-1.7,6.2,0
				c1.7,1.7,1.7,4.5,0,6.2L11.3,68C10.4,68.9,9.3,69.3,8.2,69.3z"/>
		</g>
		<g class="st15">
			<path class="st35" d="M8.2,69c-1,0-2.1-0.4-2.9-1.2c-1.6-1.6-1.6-4.2,0-5.8L33.2,34c1.6-1.6,4.2-1.6,5.8,0c1.6,1.6,1.6,4.2,0,5.8
				L11.1,67.8C10.3,68.6,9.2,69,8.2,69z"/>
		</g>
		<g class="st16">
			<path class="st35" d="M8.2,68.7c-1,0-1.9-0.4-2.7-1.1c-1.5-1.5-1.5-3.9,0-5.3l27.9-27.9c1.5-1.5,3.9-1.5,5.3,0
				c1.5,1.5,1.5,3.9,0,5.3L10.8,67.6C10.1,68.3,9.1,68.7,8.2,68.7z"/>
		</g>
		<g class="st17">
			<path class="st35" d="M8.2,68.3c-0.9,0-1.8-0.3-2.4-1c-1.4-1.4-1.4-3.5,0-4.9l27.9-27.9c1.4-1.4,3.5-1.4,4.9,0
				c1.4,1.4,1.4,3.5,0,4.9L10.6,67.3C9.9,68,9.1,68.3,8.2,68.3z"/>
		</g>
		<g class="st18">
			<path class="st35" d="M8.2,68c-0.8,0-1.6-0.3-2.2-0.9c-1.2-1.2-1.2-3.2,0-4.4l27.9-27.9c1.2-1.2,3.2-1.2,4.4,0s1.2,3.2,0,4.4
				L10.4,67.1C9.8,67.7,9,68,8.2,68z"/>
		</g>
		<g class="st19">
			<path class="st35" d="M8.2,67.7c-0.7,0-1.4-0.3-2-0.8c-1.1-1.1-1.1-2.9,0-4l27.9-27.9c1.1-1.1,2.9-1.1,4,0c1.1,1.1,1.1,2.9,0,4
				L10.2,66.9C9.6,67.4,8.9,67.7,8.2,67.7z"/>
		</g>
		<g class="st20">
			<path class="st35" d="M8.2,67.4c-0.6,0-1.3-0.2-1.8-0.7c-1-1-1-2.6,0-3.6l27.9-27.9c1-1,2.6-1,3.6,0c1,1,1,2.6,0,3.6L10,66.7
				C9.5,67.2,8.8,67.4,8.2,67.4z"/>
		</g>
		<g class="st21">
			<path class="st35" d="M8.2,67.1c-0.6,0-1.1-0.2-1.6-0.6c-0.9-0.9-0.9-2.3,0-3.1l27.9-27.9c0.9-0.9,2.3-0.9,3.1,0
				c0.9,0.9,0.9,2.3,0,3.1L9.7,66.4C9.3,66.9,8.7,67.1,8.2,67.1z"/>
		</g>
		<g class="st22">
			<path class="st35" d="M8.2,66.8c-0.5,0-1-0.2-1.3-0.6c-0.7-0.7-0.7-1.9,0-2.7l27.9-27.9c0.7-0.7,1.9-0.7,2.7,0
				c0.7,0.7,0.7,1.9,0,2.7L9.5,66.2C9.1,66.6,8.7,66.8,8.2,66.8z"/>
		</g>
		<g class="st23">
			<path class="st35" d="M8.2,66.5c-0.4,0-0.8-0.2-1.1-0.5c-0.6-0.6-0.6-1.6,0-2.2L35,35.8c0.6-0.6,1.6-0.6,2.2,0
				c0.6,0.6,0.6,1.6,0,2.2L9.3,66C9,66.3,8.6,66.5,8.2,66.5z"/>
		</g>
		<g class="st24">
			<path class="st35" d="M8.2,66.1c-0.3,0-0.6-0.1-0.9-0.4c-0.5-0.5-0.5-1.3,0-1.8L35.2,36c0.5-0.5,1.3-0.5,1.8,0
				c0.5,0.5,0.5,1.3,0,1.8L9.1,65.8C8.8,66,8.5,66.1,8.2,66.1z"/>
		</g>
		<g>
			<path class="st35" d="M8.2,65.8c-0.2,0-0.5-0.1-0.7-0.3c-0.4-0.4-0.4-1,0-1.3l27.9-27.9c0.4-0.4,1-0.4,1.3,0c0.4,0.4,0.4,1,0,1.3
				L8.8,65.6C8.7,65.7,8.4,65.8,8.2,65.8z"/>
		</g>
		<g>
			<path class="st36" d="M8.2,65.5c-0.1,0-0.3-0.1-0.4-0.2c-0.2-0.2-0.2-0.6,0-0.8l27.9-27.9c0.2-0.2,0.6-0.2,0.8,0
				c0.2,0.2,0.2,0.6,0,0.8L8.6,65.3C8.5,65.4,8.3,65.5,8.2,65.5z"/>
		</g>
		<g>
			<path class="st26" d="M8.2,65.1c0,0-0.1,0-0.1-0.1C8,64.9,8,64.8,8,64.8L36,36.8c0.1-0.1,0.2-0.1,0.3,0c0.1,0.1,0.1,0.2,0,0.3
				L8.3,65C8.3,65.1,8.2,65.1,8.2,65.1z"/>
		</g>
	</g>
	<g>
		<g class="st1">
			<path class="st35" d="M39,57.2c-2.1,0-4.2-0.8-5.8-2.4c-3.2-3.2-3.2-8.4,0-11.6L74.1,2.4c3.2-3.2,8.4-3.2,11.6,0
				c3.2,3.2,3.2,8.4,0,11.6L44.8,54.8C43.2,56.4,41.1,57.2,39,57.2z"/>
		</g>
		<g class="st3">
			<path class="st35" d="M39,56.9c-2,0-4-0.8-5.6-2.3c-3.1-3.1-3.1-8,0-11.1L74.3,2.6c3.1-3.1,8-3.1,11.1,0c3.1,3.1,3.1,8,0,11.1
				L44.5,54.6C43,56.2,41,56.9,39,56.9z"/>
		</g>
		<g class="st4">
			<path class="st35" d="M39,56.6c-1.9,0-3.9-0.7-5.3-2.2c-2.9-2.9-2.9-7.7,0-10.7L74.5,2.8c2.9-2.9,7.7-2.9,10.7,0
				c2.9,2.9,2.9,7.7,0,10.7L44.3,54.4C42.8,55.9,40.9,56.6,39,56.6z"/>
		</g>
		<g class="st5">
			<path class="st35" d="M39,56.3c-1.9,0-3.7-0.7-5.1-2.1c-2.8-2.8-2.8-7.4,0-10.2L74.7,3.1c2.8-2.8,7.4-2.8,10.2,0
				c2.8,2.8,2.8,7.4,0,10.2L44.1,54.2C42.7,55.6,40.8,56.3,39,56.3z"/>
		</g>
		<g class="st6">
			<path class="st35" d="M39,56c-1.8,0-3.5-0.7-4.9-2c-2.7-2.7-2.7-7.1,0-9.8L75,3.3c2.7-2.7,7.1-2.7,9.8,0c2.7,2.7,2.7,7.1,0,9.8
				L43.9,54C42.5,55.3,40.8,56,39,56z"/>
		</g>
		<g class="st7">
			<path class="st35" d="M39,55.7c-1.7,0-3.4-0.6-4.7-1.9c-2.6-2.6-2.6-6.8,0-9.3L75.2,3.5c2.6-2.6,6.8-2.6,9.3,0
				c2.6,2.6,2.6,6.8,0,9.3L43.7,53.7C42.4,55,40.7,55.7,39,55.7z"/>
		</g>
		<g class="st8">
			<path class="st35" d="M39,55.4c-1.6,0-3.2-0.6-4.4-1.8c-2.5-2.5-2.5-6.4,0-8.9L75.4,3.7c2.5-2.5,6.4-2.5,8.9,0
				c2.5,2.5,2.5,6.4,0,8.9L43.4,53.5C42.2,54.7,40.6,55.4,39,55.4z"/>
		</g>
		<g class="st9">
			<path class="st35" d="M39,55c-1.5,0-3.1-0.6-4.2-1.8c-2.3-2.3-2.3-6.1,0-8.5L75.6,4c2.3-2.3,6.1-2.3,8.5,0c2.3,2.3,2.3,6.1,0,8.5
				L43.2,53.3C42,54.5,40.5,55,39,55z"/>
		</g>
		<g class="st10">
			<path class="st35" d="M39,54.7c-1.4,0-2.9-0.6-4-1.7c-2.2-2.2-2.2-5.8,0-8L75.9,4.2c2.2-2.2,5.8-2.2,8,0s2.2,5.8,0,8L43,53.1
				C41.9,54.2,40.4,54.7,39,54.7z"/>
		</g>
		<g class="st11">
			<path class="st35" d="M39,54.4c-1.4,0-2.7-0.5-3.8-1.6c-2.1-2.1-2.1-5.5,0-7.6L76.1,4.4c2.1-2.1,5.5-2.1,7.6,0
				c2.1,2.1,2.1,5.5,0,7.6L42.8,52.8C41.7,53.9,40.3,54.4,39,54.4z"/>
		</g>
		<g class="st12">
			<path class="st35" d="M39,54.1c-1.3,0-2.6-0.5-3.6-1.5c-2-2-2-5.2,0-7.1L76.3,4.6c2-2,5.2-2,7.1,0c2,2,2,5.2,0,7.1L42.5,52.6
				C41.6,53.6,40.3,54.1,39,54.1z"/>
		</g>
		<g class="st13">
			<path class="st35" d="M39,53.8c-1.2,0-2.4-0.5-3.3-1.4c-1.8-1.8-1.8-4.8,0-6.7L76.5,4.8c1.8-1.8,4.8-1.8,6.7,0
				c1.8,1.8,1.8,4.8,0,6.7L42.3,52.4C41.4,53.3,40.2,53.8,39,53.8z"/>
		</g>
		<g class="st14">
			<path class="st35" d="M39,53.5c-1.1,0-2.3-0.4-3.1-1.3c-1.7-1.7-1.7-4.5,0-6.2L76.7,5.1c1.7-1.7,4.5-1.7,6.2,0
				c1.7,1.7,1.7,4.5,0,6.2L42.1,52.2C41.2,53,40.1,53.5,39,53.5z"/>
		</g>
		<g class="st15">
			<path class="st35" d="M39,53.1c-1,0-2.1-0.4-2.9-1.2c-1.6-1.6-1.6-4.2,0-5.8L77,5.3c1.6-1.6,4.2-1.6,5.8,0c1.6,1.6,1.6,4.2,0,5.8
				L41.9,52C41.1,52.8,40,53.1,39,53.1z"/>
		</g>
		<g class="st16">
			<path class="st35" d="M39,52.8c-1,0-1.9-0.4-2.7-1.1c-1.5-1.5-1.5-3.9,0-5.3L77.2,5.5c1.5-1.5,3.9-1.5,5.3,0
				c1.5,1.5,1.5,3.9,0,5.3L41.6,51.7C40.9,52.5,39.9,52.8,39,52.8z"/>
		</g>
		<g class="st17">
			<path class="st35" d="M39,52.5c-0.9,0-1.8-0.3-2.4-1c-1.4-1.4-1.4-3.5,0-4.9L77.4,5.7c1.4-1.4,3.5-1.4,4.9,0
				c1.4,1.4,1.4,3.5,0,4.9L41.4,51.5C40.8,52.2,39.9,52.5,39,52.5z"/>
		</g>
		<g class="st18">
			<path class="st35" d="M39,52.2c-0.8,0-1.6-0.3-2.2-0.9c-1.2-1.2-1.2-3.2,0-4.4L77.6,6c1.2-1.2,3.2-1.2,4.4,0s1.2,3.2,0,4.4
				L41.2,51.3C40.6,51.9,39.8,52.2,39,52.2z"/>
		</g>
		<g class="st19">
			<path class="st35" d="M39,51.9c-0.7,0-1.4-0.3-2-0.8c-1.1-1.1-1.1-2.9,0-4L77.9,6.2c1.1-1.1,2.9-1.1,4,0c1.1,1.1,1.1,2.9,0,4
				L41,51.1C40.4,51.6,39.7,51.9,39,51.9z"/>
		</g>
		<g class="st20">
			<path class="st35" d="M39,51.6c-0.6,0-1.3-0.2-1.8-0.7c-1-1-1-2.6,0-3.6L78.1,6.4c1-1,2.6-1,3.6,0c1,1,1,2.6,0,3.6L40.8,50.8
				C40.3,51.3,39.6,51.6,39,51.6z"/>
		</g>
		<g class="st21">
			<path class="st35" d="M39,51.3c-0.6,0-1.1-0.2-1.6-0.6c-0.9-0.9-0.9-2.3,0-3.1L78.3,6.6c0.9-0.9,2.3-0.9,3.1,0
				c0.9,0.9,0.9,2.3,0,3.1L40.5,50.6C40.1,51,39.5,51.3,39,51.3z"/>
		</g>
		<g class="st22">
			<path class="st35" d="M39,50.9c-0.5,0-1-0.2-1.3-0.6c-0.7-0.7-0.7-1.9,0-2.7L78.5,6.8c0.7-0.7,1.9-0.7,2.7,0
				c0.7,0.7,0.7,1.9,0,2.7L40.3,50.4C39.9,50.8,39.5,50.9,39,50.9z"/>
		</g>
		<g class="st23">
			<path class="st35" d="M39,50.6c-0.4,0-0.8-0.2-1.1-0.5c-0.6-0.6-0.6-1.6,0-2.2L78.8,7.1c0.6-0.6,1.6-0.6,2.2,0
				c0.6,0.6,0.6,1.6,0,2.2L40.1,50.2C39.8,50.5,39.4,50.6,39,50.6z"/>
		</g>
		<g class="st24">
			<path class="st35" d="M39,50.3c-0.3,0-0.6-0.1-0.9-0.4c-0.5-0.5-0.5-1.3,0-1.8L79,7.3c0.5-0.5,1.3-0.5,1.8,0
				c0.5,0.5,0.5,1.3,0,1.8L39.9,49.9C39.6,50.2,39.3,50.3,39,50.3z"/>
		</g>
		<g>
			<path class="st35" d="M39,50c-0.2,0-0.5-0.1-0.7-0.3c-0.4-0.4-0.4-1,0-1.3L79.2,7.5c0.4-0.4,1-0.4,1.3,0c0.4,0.4,0.4,1,0,1.3
				L39.6,49.7C39.5,49.9,39.2,50,39,50z"/>
		</g>
		<g>
			<path class="st36" d="M39,49.6c-0.1,0-0.3-0.1-0.4-0.2c-0.2-0.2-0.2-0.6,0-0.8L79.5,7.8c0.2-0.2,0.6-0.2,0.8,0
				c0.2,0.2,0.2,0.6,0,0.8L39.4,49.5C39.3,49.6,39.1,49.6,39,49.6z"/>
		</g>
		<g>
			<path class="st26" d="M39,49.2c0,0-0.1,0-0.1-0.1c-0.1-0.1-0.1-0.2,0-0.3L79.7,8C79.8,8,79.9,8,80,8c0.1,0.1,0.1,0.2,0,0.3
				L39.1,49.2C39.1,49.2,39,49.2,39,49.2z"/>
		</g>
	</g>
	<g>
		<g class="st1">
			<path class="st35" d="M60.1,143.1c-2.1,0-4.2-0.8-5.8-2.4c-3.2-3.2-3.2-8.4,0-11.6l50.5-50.5c3.2-3.2,8.4-3.2,11.6,0
				c3.2,3.2,3.2,8.4,0,11.6l-50.5,50.5C64.3,142.3,62.2,143.1,60.1,143.1z"/>
		</g>
		<g class="st3">
			<path class="st35" d="M60.1,142.8c-2,0-4-0.8-5.6-2.3c-3.1-3.1-3.1-8,0-11.1L105,78.9c3.1-3.1,8-3.1,11.1,0c3.1,3.1,3.1,8,0,11.1
				l-50.5,50.5C64.1,142.1,62.1,142.8,60.1,142.8z"/>
		</g>
		<g class="st4">
			<path class="st35" d="M60.1,142.5c-1.9,0-3.9-0.7-5.3-2.2c-2.9-2.9-2.9-7.7,0-10.7l50.5-50.5c2.9-2.9,7.7-2.9,10.7,0
				c2.9,2.9,2.9,7.7,0,10.7l-50.5,50.5C63.9,141.8,62,142.5,60.1,142.5z"/>
		</g>
		<g class="st5">
			<path class="st35" d="M60.1,142.2c-1.9,0-3.7-0.7-5.1-2.1c-2.8-2.8-2.8-7.4,0-10.2l50.5-50.5c2.8-2.8,7.4-2.8,10.2,0
				c2.8,2.8,2.8,7.4,0,10.2l-50.5,50.5C63.8,141.5,61.9,142.2,60.1,142.2z"/>
		</g>
		<g class="st6">
			<path class="st35" d="M60.1,141.9c-1.8,0-3.5-0.7-4.9-2c-2.7-2.7-2.7-7.1,0-9.8l50.5-50.5c2.7-2.7,7.1-2.7,9.8,0
				c2.7,2.7,2.7,7.1,0,9.8L65,139.9C63.6,141.2,61.8,141.9,60.1,141.9z"/>
		</g>
		<g class="st7">
			<path class="st35" d="M60.1,141.6c-1.7,0-3.4-0.6-4.7-1.9c-2.6-2.6-2.6-6.8,0-9.3l50.5-50.5c2.6-2.6,6.8-2.6,9.3,0
				c2.6,2.6,2.6,6.8,0,9.3l-50.5,50.5C63.5,140.9,61.8,141.6,60.1,141.6z"/>
		</g>
		<g class="st8">
			<path class="st35" d="M60.1,141.3c-1.6,0-3.2-0.6-4.4-1.8c-2.5-2.5-2.5-6.4,0-8.9L106.1,80c2.5-2.5,6.4-2.5,8.9,0
				c2.5,2.5,2.5,6.4,0,8.9l-50.5,50.5C63.3,140.6,61.7,141.3,60.1,141.3z"/>
		</g>
		<g class="st9">
			<path class="st35" d="M60.1,140.9c-1.5,0-3.1-0.6-4.2-1.8c-2.3-2.3-2.3-6.1,0-8.5l50.5-50.5c2.3-2.3,6.1-2.3,8.5,0
				c2.3,2.3,2.3,6.1,0,8.5l-50.5,50.5C63.1,140.4,61.6,140.9,60.1,140.9z"/>
		</g>
		<g class="st10">
			<path class="st35" d="M60.1,140.6c-1.4,0-2.9-0.6-4-1.7c-2.2-2.2-2.2-5.8,0-8l50.5-50.5c2.2-2.2,5.8-2.2,8,0c2.2,2.2,2.2,5.8,0,8
				L64.1,139C63,140.1,61.5,140.6,60.1,140.6z"/>
		</g>
		<g class="st11">
			<path class="st35" d="M60.1,140.3c-1.4,0-2.7-0.5-3.8-1.6c-2.1-2.1-2.1-5.5,0-7.6l50.5-50.5c2.1-2.1,5.5-2.1,7.6,0
				c2.1,2.1,2.1,5.5,0,7.6l-50.5,50.5C62.8,139.8,61.4,140.3,60.1,140.3z"/>
		</g>
		<g class="st12">
			<path class="st35" d="M60.1,140c-1.3,0-2.6-0.5-3.6-1.5c-2-2-2-5.2,0-7.1L107,80.9c2-2,5.2-2,7.1,0c2,2,2,5.2,0,7.1l-50.5,50.5
				C62.6,139.5,61.4,140,60.1,140z"/>
		</g>
		<g class="st13">
			<path class="st35" d="M60.1,139.7c-1.2,0-2.4-0.5-3.3-1.4c-1.8-1.8-1.8-4.8,0-6.7l50.5-50.5c1.8-1.8,4.8-1.8,6.7,0
				c1.8,1.8,1.8,4.8,0,6.7l-50.5,50.5C62.5,139.2,61.3,139.7,60.1,139.7z"/>
		</g>
		<g class="st14">
			<path class="st35" d="M60.1,139.4c-1.1,0-2.3-0.4-3.1-1.3c-1.7-1.7-1.7-4.5,0-6.2l50.5-50.5c1.7-1.7,4.5-1.7,6.2,0
				c1.7,1.7,1.7,4.5,0,6.2l-50.5,50.5C62.3,138.9,61.2,139.4,60.1,139.4z"/>
		</g>
		<g class="st15">
			<path class="st35" d="M60.1,139.1c-1,0-2.1-0.4-2.9-1.2c-1.6-1.6-1.6-4.2,0-5.8l50.5-50.5c1.6-1.6,4.2-1.6,5.8,0
				c1.6,1.6,1.6,4.2,0,5.8L63,137.9C62.2,138.7,61.1,139.1,60.1,139.1z"/>
		</g>
		<g class="st16">
			<path class="st35" d="M60.1,138.7c-1,0-1.9-0.4-2.7-1.1c-1.5-1.5-1.5-3.9,0-5.3l50.5-50.5c1.5-1.5,3.9-1.5,5.3,0
				c1.5,1.5,1.5,3.9,0,5.3l-50.5,50.5C62,138.4,61,138.7,60.1,138.7z"/>
		</g>
		<g class="st17">
			<path class="st35" d="M60.1,138.4c-0.9,0-1.8-0.3-2.4-1c-1.4-1.4-1.4-3.5,0-4.9L108.1,82c1.4-1.4,3.5-1.4,4.9,0
				c1.4,1.4,1.4,3.5,0,4.9l-50.5,50.5C61.8,138.1,61,138.4,60.1,138.4z"/>
		</g>
		<g class="st18">
			<path class="st35" d="M60.1,138.1c-0.8,0-1.6-0.3-2.2-0.9c-1.2-1.2-1.2-3.2,0-4.4l50.5-50.5c1.2-1.2,3.2-1.2,4.4,0
				c1.2,1.2,1.2,3.2,0,4.4l-50.5,50.5C61.7,137.8,60.9,138.1,60.1,138.1z"/>
		</g>
		<g class="st19">
			<path class="st35" d="M60.1,137.8c-0.7,0-1.4-0.3-2-0.8c-1.1-1.1-1.1-2.9,0-4l50.5-50.5c1.1-1.1,2.9-1.1,4,0c1.1,1.1,1.1,2.9,0,4
				L62.1,137C61.5,137.5,60.8,137.8,60.1,137.8z"/>
		</g>
		<g class="st20">
			<path class="st35" d="M60.1,137.5c-0.6,0-1.3-0.2-1.8-0.7c-1-1-1-2.6,0-3.6l50.5-50.5c1-1,2.6-1,3.6,0c1,1,1,2.6,0,3.6
				l-50.5,50.5C61.4,137.2,60.7,137.5,60.1,137.5z"/>
		</g>
		<g class="st21">
			<path class="st35" d="M60.1,137.2c-0.6,0-1.1-0.2-1.6-0.6c-0.9-0.9-0.9-2.3,0-3.1L109,82.9c0.9-0.9,2.3-0.9,3.1,0
				c0.9,0.9,0.9,2.3,0,3.1l-50.5,50.5C61.2,137,60.6,137.2,60.1,137.2z"/>
		</g>
		<g class="st22">
			<path class="st35" d="M60.1,136.9c-0.5,0-1-0.2-1.3-0.6c-0.7-0.7-0.7-1.9,0-2.7l50.5-50.5c0.7-0.7,1.9-0.7,2.7,0
				c0.7,0.7,0.7,1.9,0,2.7l-50.5,50.5C61,136.7,60.6,136.9,60.1,136.9z"/>
		</g>
		<g class="st23">
			<path class="st35" d="M60.1,136.5c-0.4,0-0.8-0.2-1.1-0.5c-0.6-0.6-0.6-1.6,0-2.2l50.5-50.5c0.6-0.6,1.6-0.6,2.2,0
				c0.6,0.6,0.6,1.6,0,2.2l-50.5,50.5C60.9,136.4,60.5,136.5,60.1,136.5z"/>
		</g>
		<g class="st24">
			<path class="st35" d="M60.1,136.2c-0.3,0-0.6-0.1-0.9-0.4c-0.5-0.5-0.5-1.3,0-1.8l50.5-50.5c0.5-0.5,1.3-0.5,1.8,0
				c0.5,0.5,0.5,1.3,0,1.8L61,135.9C60.7,136.1,60.4,136.2,60.1,136.2z"/>
		</g>
		<g>
			<path class="st35" d="M60.1,135.9c-0.2,0-0.5-0.1-0.7-0.3c-0.4-0.4-0.4-1,0-1.3l50.5-50.5c0.4-0.4,1-0.4,1.3,0
				c0.4,0.4,0.4,1,0,1.3l-50.5,50.5C60.6,135.8,60.3,135.9,60.1,135.9z"/>
		</g>
		<g>
			<path class="st36" d="M60.1,135.5c-0.1,0-0.3-0.1-0.4-0.2c-0.2-0.2-0.2-0.6,0-0.8L110.2,84c0.2-0.2,0.6-0.2,0.8,0
				c0.2,0.2,0.2,0.6,0,0.8l-50.5,50.5C60.4,135.5,60.2,135.5,60.1,135.5z"/>
		</g>
		<g>
			<path class="st26" d="M60.1,135.2c0,0-0.1,0-0.1-0.1c-0.1-0.1-0.1-0.2,0-0.3l50.5-50.5c0.1-0.1,0.2-0.1,0.3,0
				c0.1,0.1,0.1,0.2,0,0.3l-50.5,50.5C60.2,135.1,60.1,135.2,60.1,135.2z"/>
		</g>
	</g>
	<radialGradient id="SVGID_2_" cx="69.2217" cy="68.0097" r="64.3171" gradientUnits="userSpaceOnUse">
		<stop  offset="0.302" style="stop-color:#FFFFFF;stop-opacity:0"/>
		<stop  offset="0.3785" style="stop-color:#FBFDFD;stop-opacity:0.1392"/>
		<stop  offset="0.4485" style="stop-color:#F0F8F7;stop-opacity:0.2666"/>
		<stop  offset="0.516" style="stop-color:#DEF0EE;stop-opacity:0.3895"/>
		<stop  offset="0.5819" style="stop-color:#C3E4E0;stop-opacity:0.5094"/>
		<stop  offset="0.6468" style="stop-color:#A2D5CF;stop-opacity:0.6274"/>
		<stop  offset="0.7107" style="stop-color:#78C3B9;stop-opacity:0.7439"/>
		<stop  offset="0.774" style="stop-color:#47ADA0;stop-opacity:0.8591"/>
		<stop  offset="0.8353" style="stop-color:#109483;stop-opacity:0.9706"/>
		<stop  offset="0.8515" style="stop-color:#008D7B"/>
		<stop  offset="0.9155" style="stop-color:#74C1B7;stop-opacity:0.569"/>
		<stop  offset="0.974" style="stop-color:#D8EDEB;stop-opacity:0.1749"/>
		<stop  offset="1" style="stop-color:#FFFFFF;stop-opacity:0"/>
	</radialGradient>
	<circle style="opacity:0.6;fill:url(#SVGID_2_);" cx="69.2" cy="68" r="64.3"/>
</g>
</svg>
