<svg xmlns="http://www.w3.org/2000/svg" viewBox="0 0 30 30" width="50" height="50" fill="#fff"><path d="M10 29c-2.209 0-4-1.791-4-4s1.791-4 4-4h2.857c.631 0 1.143.512 1.143 1.143V25c0 2.209-1.791 4-4 4zM20 9h-2.857C16.512 9 16 8.488 16 7.857V2.143C16 1.512 16.512 1 17.143 1H20c2.209 0 4 1.791 4 4s-1.791 4-4 4zM10 1h2.857C13.488 1 14 1.512 14 2.143v5.714C14 8.488 13.488 9 12.857 9H10C7.791 9 6 7.209 6 5s1.791-4 4-4zm0 10h2.857c.631 0 1.143.512 1.143 1.143v5.714c0 .631-.512 1.143-1.143 1.143H10c-2.209 0-4-1.791-4-4s1.791-4 4-4zm10 0a4 4 0 1 0 0 8 4 4 0 1 0 0-8z"/></svg>
