<svg xmlns="http://www.w3.org/2000/svg" viewBox="0 0 30 30" width="50" height="50" fill="#ed6707"><path d="M6 4c-1.105 0-2 .895-2 2v18c0 1.105.895 2 2 2h18c1.105 0 2-.895 2-2V6c0-1.105-.895-2-2-2H6zm13.660156 5.2480469c.622 0 1.046875.3965 1.046875.9375001 0 .541-.424875.9375-1.046875.9375-.615 0-1.044922-.3965-1.044922-.9375 0-.5410001.429922-.9375001 1.044922-.9375001zm-7.867187.7050781h1.982422l3.505859 9.865234h-1.892578l-.833984-2.521484h-3.628907l-.849609 2.521484H8.2929688l3.5000002-9.865234zm.894531 1.878906-1.351562 4.06836h2.808593l-1.339843-4.06836H12.6875zm6.132812.507813h1.6875v7.478515h-1.6875v-7.478515z"/></svg>
