<svg xmlns="http://www.w3.org/2000/svg" width="50" height="50" fill="#8815bd"><path d="M5 2C3.347656 2 2 3.347656 2 5v30c0 1.652344 1.347656 3 3 3h40c1.652344 0 3-1.347656 3-3V5c0-1.652344-1.347656-3-3-3Zm2 5h36v26H7Zm12.28125 4.28125-8 8-.6875.71875.6875.71875 8 8 1.4375-1.4375L13.4375 20l7.28125-7.28125Zm11.4375 0-1.4375 1.4375L36.5625 20l-7.28125 7.28125 1.4375 1.4375 8-8L39.40625 20l-.6875-.71875ZM20 39v4h10v-4Zm-10 1c-.296875 0-.589844.117188-.78125.34375l-5 6c-.25.300781-.289062.742188-.125 1.09375C4.257813 47.789063 4.613281 48 5 48h40c.386719 0 .742188-.210937.90625-.5625.164063-.351562.121094-.792969-.125-1.09375l-5-6C40.589844 40.117188 40.296875 40 40 40h-8v5H18v-5Z"/></svg>
