<svg xmlns="http://www.w3.org/2000/svg" width="50" height="50" fill="#f53b3b"><path d="M46.792969 22.089844 27.910156 3.207031C27.109375 2.402344 26.054688 2 25 2c-1.054687 0-2.109375.402344-2.910156 1.207031l-3.734375 3.734375 4.621094 4.621094c1.535156-.902344 3.535156-.707031 4.851562.609375 1.316406 1.316406 1.507813 3.316406.605469 4.847656l4.542969 4.542969c1.535156-.902344 3.535156-.707031 4.851562.609375 1.5625 1.5625 1.5625 4.09375 0 5.65625s-4.09375 1.5625-5.65625 0c-1.316406-1.316406-1.511719-3.316406-.609375-4.851562l-4.542969-4.542969c-.324218.191406-.664062.332031-1.019531.421875v12.285156c1.722656.445313 3 1.996094 3 3.859375 0 2.210938-1.789062 4-4 4-2.210937 0-4-1.789062-4-4 0-1.863281 1.277344-3.414062 3-3.859375V18.855469c-.667969-.171875-1.304687-.503906-1.828125-1.027344-1.316406-1.316406-1.507812-3.316406-.605469-4.847656l-4.625-4.625L3.207031 22.089844c-1.609375 1.605469-1.609375 4.214844 0 5.820312l18.882813 18.882813C22.890625 47.597656 23.945313 48 25 48c1.054688 0 2.109375-.402344 2.910156-1.207031l18.882813-18.882813c1.609375-1.605468 1.609375-4.214843 0-5.820312Z"/></svg>
