<svg xmlns="http://www.w3.org/2000/svg" viewBox="0 0 30 30" width="50" height="50" fill="#312ed1"><path d="M6 4c-1.105 0-2 .895-2 2v18c0 1.105.895 2 2 2h18c1.105 0 2-.895 2-2V6c0-1.105-.895-2-2-2H6zm2 5.9921875h3.978516c1.969 0 3.316406 1.3469375 3.316406 3.3359375 0 1.955-1.396578 3.294922-3.392578 3.294922H9.7636719v3.234375H8V9.9921875zM9.7636719 11.46875v3.691406h1.7441401c1.258001 0 1.996094-.656031 1.996094-1.832031 0-1.209-.719234-1.859375-1.990234-1.859375H9.7636719zm9.4433591.757812c1.777 0 2.892625.786485 3.015625 2.146485h-1.591797c-.123-.526-.623015-.861328-1.416015-.861328-.772 0-1.353516.370156-1.353516.910156 0 .424.355422.683516 1.107422.853516l1.318359.300781c1.429.321 2.091797.937109 2.091797 2.037109 0 1.437-1.319547 2.394532-3.185547 2.394531-1.866 0-3.041875-.807968-3.171875-2.167968h1.675782c.164.554.689109.882812 1.537109.882812.854 0 1.449219-.375687 1.449219-.929687 0-.424-.32025-.69161-1.03125-.84961l-1.326172-.30664c-1.436-.328-2.111328-.991141-2.111328-2.119141 0-1.354 1.228187-2.291016 2.992187-2.291016z"/></svg>
