<svg xmlns="http://www.w3.org/2000/svg" width="50" height="50" fill="#fcb603"><path d="M43.335938 4H6.667969C5.195313 4 4 5.195313 4 6.667969v36.664062C4 44.804688 5.195313 46 6.667969 46h36.664062C44.804688 46 46 44.804688 46 43.335938V6.667969C46 5.195313 44.804688 4 43.335938 4ZM27 36.183594C27 40.179688 24.65625 42 21.234375 42 18.140625 42 15.910156 39.925781 15 38l3.144531-1.902344C18.75 37.171875 19.671875 38 21 38c1.269531 0 2-.496094 2-2.425781V23h4ZM35.675781 42C32.132813 42 30.121094 40.214844 29 38l3-2c.816406 1.335938 1.707031 2.613281 3.589844 2.613281 1.582031 0 2.410156-.789062 2.410156-1.882812 0-1.304688-.859375-1.769531-2.597656-2.53125l-.953125-.410156c-2.753906-1.171875-4.585938-2.640625-4.585938-5.75C29.863281 25.179688 32.046875 23 35.453125 23c2.425781 0 4.167969.84375 5.425781 3.054688l-2.96875 1.910156c-.65625-1.175781-1.359375-1.636719-2.457031-1.636719-1.117187 0-1.824219.710938-1.824219 1.636719 0 1.144531.707032 1.605469 2.34375 2.316406l.953125.410156C40.171875 32.078125 42 33.496094 42 36.683594 42 40.117188 39.300781 42 35.675781 42Z"/></svg>
