<svg xmlns="http://www.w3.org/2000/svg" viewBox="0 0 32 32" width="50" height="50" fill="#f53b3b"><path d="M22.154297 1c-.040766.0015781-.0725.0129531-.09375.0332031l-3.714844 4.4121094-.757812 2.6054687c-.515-.0169999-1.046797-.0234374-1.591797-.0234374C12.135094 8.0273437 9 8.4363594 9 8.9433594c0 1.2099996 13.990234 1.2099996 13.990234 0 0-.375-1.674843-.6917969-4.089843-.8417969L19.5 5.9570312l3.474609-4.1796874.00586-.0058594c.078-.081-.074266-.3241094-.322266-.5371094-.186-.1605-.381609-.23910937-.503906-.234375zm-4.851563 8.0761719-.013672.0410156c-.006.005-.005859.0115781-.005859.0175781 0 .075.302875.1367188.671875.1367188s.673828-.0617188.673828-.1367188l.011719-.046875c.097.035.150391.0750938.150391.1210938 0 .121-.374797.2198437-.841797.2148437-.454 0-.830078-.0918906-.830078-.2128906 0-.052.074593-.0997656.183593-.1347656zm5.609375.34375c-1.851.9870001-11.962312.9936721-13.8203121.0136719l.8222656 7.2324222c.3569995-1.153 1.2598755-2.709641 2.4218755-3.181641.381-.156.767859-.155266 1.130859.052734.315.173.581328.535688.611328.679688.073.375-.120484.523437-.271484.523437-.182 0-.32111-.263922-.41211-.419922-.248-.420999-.623437-.439109-1.023437-.162109-.418.288-.781156.77236-1.035156 1.193359-.309.507-.569563 1.066001-.726563 1.625-.091.323001-.174156.840485-.035156 1.146485.061.127.150875.207031.296875.207031.303 0 .743078-.380031.955078-.582031.272-.259.622859-.662875.755859-.921875l.316407-.892578c.157-.392.597656-.323.597656 0 0 .588-.222516.784-.603516 2-.351 1.124-.460937 1.488281-.460937 1.488281-.042.161-.20586.431641-.38086.431641-.073 0-.12625-.024313-.15625-.070313-.061-.081-.054828-.303328-.048828-.361328.012-.184.380406-1.280125.441406-1.453125-.121.127-.247718.254859-.386718.380859-.327.294-.852782.679688-1.300782.679688-.206 0-.337843-.052672-.464843-.138672l.458984 4.587891c.121.288 2.372891.986328 5.337891.986328 2.971 0 5.220937-.703328 5.335937-.986328l.660156-5.451172c-.345.3-.743546.669515-1.185546.853515-.327001.133-1.052735.217922-1.052735-.330078 0-.3.551094-.852281.871094-1.238281.085-.098.283203-.339797.283203-.466797 0-.167-.362031-.128422-.707031.142578-.194.156-.376344.364547-.527344.560547-.26.346-.398672.644578-.513672.892578-.375.818-.247781.495578-.550781 1.267578-.303.767-.253453.679641-.314453.806641-.054.11-.133188.202766-.242188.259766-.115.058-.27214.051421-.36914-.017579-.054-.035-.080079-.10989-.080079-.21289 0-.052.007532-.10425.019532-.15625.091-.352.472203-1.042563.908203-1.976563.097-.213.059875-.149812.046875-.132812-.375.346-.660094.513469-.871094.605469-.351.15-.786953.149672-.876953-.236328-.006-.023-.005719-.047313-.011719-.070313-.714.53-1.469984.674203-1.208984-.466797-.278.473-.763422.859375-1.357422.859375-.248 0-.429531-.079969-.519531-.292969-.139-.317.078343-.860046.277343-1.373046.103-.259001.243641-.570594.431641-.933594.097-.196.252984-.311766.458985-.259766.035999.012.067656.024016.097656.041016.157.104.096578.258062.017578.414062-.23.432-.4295.749219-.5625 1.199219-.054.19-.122156.519531.089844.519531.145 0 .283968-.046672.417968-.138672.278-.196.501875-.489343.671875-.777343.121-.207.266844-.477985.339844-.708985.03-.098.067375-.190343.109375-.277344.067-.143999.156453-.292968.314453-.292968.079 0 .14436.028937.19336.085937.103.127.08039.257485.02539.396485-.121.323-.283968.61189-.417969.96289-.079.202-.164062.460828-.164062.673828 0 .196.224109.14936.412109.06836.145-.063.29011-.159813.41211-.257813.073-.282.053656-.21964 1.597656-3.93164.079-.19.224141-.271485.369141-.271485.073 0 .132359.024453.193359.064453.103.075.1045.234469.0625.355469-.042.11-.037438.075469-.273437.605469-.315001.697-.519829 1.199844-.798829 1.839844-.115.265-.46539 1.089156-.52539 1.285156-.036.127-.079453.333984.060547.333984.327 0 1.168437-.755469 1.398437-.980469.012-.016999.030688-.023156.054688-.035156.036-.11.071562-.212406.101562-.316406.085-.219.164266-.474344.322266-.652344.048-.058.102109-.091797.162109-.091797.169 0 .253906.068469.253906.230469 0 .063-.041406.294422-.066406.357422.085-.086.174485-.171812.271484-.257812.908001-.801001 1.554688-.392282 1.554688.011718 0 .426-.537984 1.018656-.833984 1.347656-.097.11-.296735.311141-.302735.369141 0 .075.053813.105469.132813.105469.121 0 .387375-.202484.484375-.271484.303-.225001.712906-.5705 1.003906-.8125l.896484-7.8847661zM10.929688 24.03125l.902343 1.464844.351563 4.576172c0 .513 1.712359.927734 3.818359.927734s3.818359-.414734 3.818359-.927734l.279297-4.623047.851563-1.417969c-2.397.963-7.527485.997-10.021484 0z"/></svg>
