<svg xmlns="http://www.w3.org/2000/svg" width="50" height="50" fill="#f5851d"><path d="M45.273438 2.324219C45.085938 2.117188 44.816406 2 44.535156 2H5.464844c-.28125 0-.550781.117188-.738281.324219-.191407.207031-.285157.484375-.257813.765625l3.519531 39.425781c.035157.414063.324219.757813.722657.875l16.011718 4.570313c.085938.027343.179688.039062.273438.039062.09375 0 .183594-.011719.273437-.039062l16.023438-4.570313c.398437-.117187.683594-.460937.722656-.875L45.53125 3.089844c.027344-.28125-.066406-.558594-.257812-.765625Zm-8.425782 13.59375h-18.8125l.449219 5.089844h17.910156l-1.34375 15.042968-10.058593 3.039063-.097657-.03125-9.941406-3.011719-.542969-6.128906h4.871094l.210938 2.378906 5.558593 1.164063 5.457032-1.164063.582031-6.4375H14.046875l-1.324219-14.804687H37.28125Z"/></svg>
