<svg xmlns="http://www.w3.org/2000/svg" viewBox="0 0 30 30" width="50" height="50" fill="#2044f7"><path d="m27.324 4.804-4.75-1.625c-.315-.108-.667-.051-.932.152l-10.708 8.21L5.517 8.27c-.278-.169-.62-.192-.918-.061l-2 .875C2.235 9.243 2 9.603 2 10v10c0 .397.235.757.599.916l2 .875c.297.131.639.107.918-.061l5.416-3.271 10.708 8.21c.177.136.392.206.608.206.109 0 .218-.018.324-.054l4.75-1.625c.405-.138.677-.518.677-.946V5.75c0-.428-.272-.808-.676-.946zM6 16.766v-3.532L8.923 15 6 16.766zm16 2.951L15.038 15 22 10.283v9.434z"/></svg>
