<svg xmlns="http://www.w3.org/2000/svg" width="50" height="50" fill="#f151e6"><path d="M25 2C12.318 2 2 12.318 2 25s10.318 23 23 23 23-10.318 23-23S37.682 2 25 2zm5.648438 7.0019531c3.822792-.0635964 6.974187 1.3277969 7.632812 3.9121089.943 3.697001-2.266 8.118032-6.375 9.707032-3.669 1.419-6.702219 1.196109-7.949219.787109-1.417-.465-2.247218-1.400734-2.449219-1.927734-.079-.207-.216999-.551875 0-.671875.133-.074.185016-.057063.541016.335937.339.373 1.699203 1.375938 4.283203 1.085938 6.783-.76 10.867172-6.031188 9.576172-8.867188-.904-1.985-6.131109-2.879-12.662109.375-7.973 3.973-8.404657 7.248188-8.472656 8.492188-.187 3.421 4.222421 5.220625 6.607421 7.765625.056.06.110063.12064.164063.18164.722-.269 1.721547-.420265 3.310547-.447265 3.858-.066 6.037265 2.476 5.947265 4.75-.07 1.791-1.713531 2.529078-2.019531 2.580078-.222.038-.344.045094-.375-.128906-.022-.12.058359-.175891.318359-.337891.260001-.161 1.038735-.693062 1.177735-1.664062.139-.97-.587781-3.289657-4.300781-3.722657-1.316-.154-2.352235-.049453-3.240235.185547.644 1.419.76811 4.274375-.71289 6.484375-1.535 2.29-4.391782 3.68125-7.175782 2.90625-.898-.25-2.256937-2.105359-1.085937-4.693359 1.11-2.453 5.851047-4.852875 6.498047-5.171875v-.011719c-2.197-1.891-7.539969-4.439844-8.292969-8.339844-.214-1.105.303734-3.752015 3.552734-6.791015 2.733-2.556 6.534922-4.512766 10.044922-5.759766 1.843438-.655 3.719398-.9847644 5.457032-1.0136719zm-9.84961 23.0703129c-.065.036-.129359.071468-.193359.105468l.001953.007813c.001-.001-2.206234 1.041109-3.740234 2.662109-1.426001 1.507-1.822344 3.398375-1.027344 3.859375.737.427 2.453593-.078922 3.683594-1.419922.402999-.44.732515-.916781.978515-1.425781.049-.102.094719-.204594.136719-.308594.042-.104.082187-.209406.117187-.316406.318-.962.350969-2.025062.042969-3.164062z"/></svg>
