<svg width="33" height="45" viewBox="0 0 33 45" fill="none" xmlns="http://www.w3.org/2000/svg">
<path d="M0 0H0.993634C1.98727 0 2.9602 0.123967 3.91243 0.3719C4.86467 0.578511 5.7134 0.971073 6.45862 1.54959C7.20385 2.08678 7.80417 2.83058 8.25958 3.78099C8.715 4.7314 8.94271 5.95041 8.94271 7.43802V37.624C8.94271 39.1529 8.6943 40.3926 8.19748 41.343C7.74206 42.2934 7.12104 43.0372 6.33442 43.5744C5.58919 44.1116 4.69906 44.4835 3.66403 44.6901C2.67039 44.8967 1.65606 45 0.621022 45H0V0ZM21.2389 45H20.6179C19.5415 45 18.465 44.8967 17.3886 44.6901C16.3536 44.4835 15.4013 44.1116 14.5319 43.5744C13.7039 43.0372 13.0207 42.2934 12.4825 41.343C11.9443 40.3926 11.6752 39.1529 11.6752 37.624V22.624H12.6688C13.7039 22.624 14.7389 22.7479 15.7739 22.9959C16.809 23.2025 17.7198 23.595 18.5064 24.1736C19.3345 24.7107 19.9969 25.4545 20.4937 26.405C20.9905 27.3554 21.2389 28.5744 21.2389 30.062V45ZM21.8599 13.5744C21.8599 16.0537 21.3424 18.0785 20.3074 19.6488C19.2724 21.1777 17.6163 21.9422 15.3392 21.9422C14.5112 21.9422 13.766 21.8182 13.1035 21.5702C12.4411 21.281 11.8822 20.9298 11.4268 20.5165C10.9714 20.1033 10.6195 19.6281 10.3711 19.0909C10.1226 18.5537 9.99844 18.0372 9.99844 17.5413C9.99844 17.0455 10.0191 16.6529 10.0605 16.3636C10.1019 16.0744 10.1433 15.8264 10.1847 15.6198C10.3918 15.8678 10.5781 16.0537 10.7437 16.1777C10.9507 16.3017 11.2198 16.3636 11.551 16.3636C12.1306 16.3223 12.4825 16.095 12.6067 15.6818C12.7309 15.2273 12.793 14.6901 12.793 14.0702V0.0619827H13.6004C14.4698 0.0619827 15.3806 0.144627 16.3329 0.309917C17.2851 0.475207 18.1752 0.826446 19.0033 1.36363C19.8313 1.8595 20.5144 2.62397 21.0526 3.65702C21.5908 4.64876 21.8599 5.99173 21.8599 7.68595V13.5744Z" fill="white"/>
<path d="M33 45H32.379C31.3025 45 30.2675 44.8967 29.2739 44.6901C28.2802 44.4835 27.3901 44.1116 26.6035 43.5744C25.8583 43.0372 25.2372 42.2934 24.7404 41.343C24.285 40.3926 24.0573 39.1529 24.0573 37.624V0H25.0509C26.0446 0 27.0175 0.123967 27.9697 0.3719C28.922 0.578511 29.7707 0.971073 30.5159 1.54959C31.2611 2.08678 31.8615 2.83058 32.3169 3.78099C32.7723 4.7314 33 5.95041 33 7.43802V45Z" fill="white"/>
</svg>
