<svg width="117" height="37" viewBox="0 0 117 37" fill="none" xmlns="http://www.w3.org/2000/svg">
<path d="M0 24V0.399999H2.4V24H0ZM3.6 24V0.399999H6V24H3.6ZM8.4 24V0.399999H10.8V24H8.4ZM21.2031 24V0.399999H23.6031V24H21.2031ZM26.0031 24V0.399999H29.6031V24H26.0031ZM32.0031 24V0.399999H33.2031V24H32.0031ZM25.1631 35.92L26.3631 34.72C27.1631 33.92 27.7631 33.28 28.1631 32.8C28.5631 32.3467 28.8831 31.8933 29.1231 31.44C29.3631 31.0133 29.4831 30.5467 29.4831 30.04C29.4831 29.4533 29.3498 29.0267 29.0831 28.76C28.7898 28.4933 28.4031 28.36 27.9231 28.36C27.1765 28.36 26.5498 28.6667 26.0431 29.28C25.9365 29.44 25.8831 29.5733 25.8831 29.68C25.8831 29.76 25.8831 29.8133 25.8831 29.84L25.8031 29.92L25.7231 29.84L24.9631 29.24C25.2565 28.6533 25.6565 28.2133 26.1631 27.92C26.6698 27.6 27.2565 27.44 27.9231 27.44C28.6965 27.44 29.3365 27.68 29.8431 28.16C30.3231 28.64 30.5631 29.28 30.5631 30.08C30.5631 30.6133 30.4298 31.1333 30.1631 31.64C29.9231 32.1467 29.6031 32.6267 29.2031 33.08C28.8031 33.5333 28.2431 34.12 27.5231 34.84L26.5231 35.84H29.9631C30.1231 35.84 30.2431 35.84 30.3231 35.84C30.3765 35.8133 30.4431 35.7733 30.5231 35.72H30.6031V36.76H25.1631V35.92ZM42.4062 24V0.399999H43.6063V24H42.4062ZM46.0063 24V0.399999H49.6063V24H46.0063ZM50.8063 24V0.399999H53.2063V24H50.8063ZM49.0063 27.44C49.9129 27.44 50.6196 27.8533 51.1263 28.68C51.6329 29.5333 51.8863 30.6933 51.8863 32.16C51.8863 33.68 51.6329 34.8533 51.1263 35.68C50.6463 36.5067 49.9396 36.92 49.0063 36.92C48.0729 36.92 47.3663 36.5067 46.8863 35.68C46.3796 34.8533 46.1263 33.68 46.1263 32.16C46.1263 30.6933 46.3796 29.5333 46.8863 28.68C47.3929 27.8533 48.0996 27.44 49.0063 27.44ZM49.0063 28.36C48.4463 28.36 48.0063 28.6933 47.6862 29.36C47.3663 30.0533 47.2063 30.9867 47.2063 32.16C47.2063 32.8267 47.2463 33.4 47.3263 33.88L50.4863 29.8C50.3529 29.3467 50.1529 28.9867 49.8863 28.72C49.6463 28.48 49.3529 28.36 49.0063 28.36ZM49.0063 36C49.5663 36 50.0063 35.68 50.3263 35.04C50.6463 34.3733 50.8063 33.4133 50.8063 32.16C50.8063 31.6 50.7663 31.1067 50.6863 30.68L47.5663 34.72C47.8596 35.5733 48.3396 36 49.0063 36ZM63.6094 24V0.399999H66.0094V24H63.6094ZM68.4094 24V0.399999H72.0094V24H68.4094ZM74.4094 24V0.399999H75.6094V24H74.4094ZM67.5694 35.92L68.7694 34.72C69.5694 33.92 70.1694 33.28 70.5694 32.8C70.9694 32.3467 71.2894 31.8933 71.5294 31.44C71.7694 31.0133 71.8894 30.5467 71.8894 30.04C71.8894 29.4533 71.756 29.0267 71.4894 28.76C71.196 28.4933 70.8094 28.36 70.3294 28.36C69.5827 28.36 68.956 28.6667 68.4494 29.28C68.3427 29.44 68.2894 29.5733 68.2894 29.68C68.2894 29.76 68.2894 29.8133 68.2894 29.84L68.2094 29.92L68.1294 29.84L67.3694 29.24C67.6627 28.6533 68.0627 28.2133 68.5694 27.92C69.076 27.6 69.6627 27.44 70.3294 27.44C71.1027 27.44 71.7427 27.68 72.2494 28.16C72.7294 28.64 72.9694 29.28 72.9694 30.08C72.9694 30.6133 72.836 31.1333 72.5694 31.64C72.3294 32.1467 72.0094 32.6267 71.6094 33.08C71.2094 33.5333 70.6494 34.12 69.9294 34.84L68.9294 35.84H72.3694C72.5294 35.84 72.6494 35.84 72.7294 35.84C72.7827 35.8133 72.8494 35.7733 72.9294 35.72H73.0094V36.76H67.5694V35.92ZM84.8125 24V0.399999H87.2125V24H84.8125ZM89.6125 24V0.399999H90.8125V24H89.6125ZM92.0125 24V0.399999H95.6125V24H92.0125ZM91.2525 36.92C90.7725 36.92 90.3058 36.8267 89.8525 36.64C89.4258 36.48 89.0525 36.2267 88.7325 35.88L89.4125 35.04L89.4925 34.92L89.5725 35C89.5992 35.1067 89.6258 35.2 89.6525 35.28C89.6792 35.3333 89.7458 35.4133 89.8525 35.52C90.0392 35.68 90.2392 35.8 90.4525 35.88C90.6658 35.9867 90.9192 36.04 91.2125 36.04C91.7992 36.04 92.2392 35.8667 92.5325 35.52C92.8258 35.2 92.9725 34.7467 92.9725 34.16C92.9725 33.5467 92.7858 33.0933 92.4125 32.8C92.0392 32.48 91.5192 32.32 90.8525 32.32C90.7458 32.32 90.5858 32.3333 90.3725 32.36V31.52C91.2525 31.52 91.8525 31.36 92.1725 31.04C92.4925 30.72 92.6525 30.2667 92.6525 29.68C92.6525 29.28 92.5325 28.9467 92.2925 28.68C92.0525 28.44 91.7325 28.32 91.3325 28.32C90.6925 28.32 90.1325 28.5467 89.6525 29L89.0125 28.4C89.6258 27.76 90.3992 27.44 91.3325 27.44C92.0792 27.44 92.6658 27.6533 93.0925 28.08C93.5192 28.48 93.7325 29.04 93.7325 29.76C93.7325 30.24 93.6125 30.68 93.3725 31.08C93.1058 31.4533 92.7458 31.7067 92.2925 31.84C92.8258 32.0267 93.2525 32.32 93.5725 32.72C93.8925 33.12 94.0525 33.6133 94.0525 34.2C94.0525 34.7067 93.9458 35.16 93.7325 35.56C93.4925 35.9867 93.1725 36.32 92.7725 36.56C92.3458 36.8 91.8392 36.92 91.2525 36.92ZM106.016 24V0.399999H108.416V24H106.016ZM109.616 24V0.399999H112.016V24H109.616ZM114.416 24V0.399999H116.816V24H114.416Z" fill="#0A0A0A"/>
</svg>
