<svg width="55" height="38" viewBox="0 0 55 38" fill="none" xmlns="http://www.w3.org/2000/svg">
<path fill-rule="evenodd" clip-rule="evenodd" d="M7.50792 3.5C5.32536 3.5 3.5 5.32463 3.5 7.37309V30.3577C3.5 32.4061 5.32536 34.2308 7.50792 34.2308H46.8711C49.1735 34.2308 50.879 32.428 50.879 30.3577V7.37309C50.879 5.32462 49.0536 3.5 46.8711 3.5H7.50792ZM1 7.37309C1 3.88309 4.00627 1 7.50792 1H46.8711C50.3727 1 53.379 3.8831 53.379 7.37309V30.3577C53.379 33.8258 50.537 36.7308 46.8711 36.7308H7.50792C4.00628 36.7308 1 33.8477 1 30.3577V7.37309Z" stroke="#12a5a5" stroke-width="1.5" stroke-miterlimit="10"/>
<path d="M13.7958 16.9438L13.8541 17.6915L16.1828 17.51L14.1837 16.3019L13.7958 16.9438ZM25.8106 26.9646H25.0606V27.002L25.0643 27.0391L25.8106 26.9646ZM19.6938 16.9438L19.3058 16.3019L17.3068 17.51L19.6355 17.6915L19.6938 16.9438ZM23.3106 27.1145H22.5606V27.1624L22.5666 27.2099L23.3106 27.1145ZM23.3207 27.1937L24.0646 27.0982L24.0646 27.0982L23.3207 27.1937ZM23.1553 27.5932L23.6787 28.1303L23.6787 28.1303L23.1553 27.5932ZM11.9816 12.4961C11.9816 9.97745 14.1397 7.98077 16.7448 7.98077V6.48077C13.4033 6.48077 10.4816 9.05995 10.4816 12.4961H11.9816ZM14.1837 16.3019C12.8604 15.5022 11.9816 14.1123 11.9816 12.4961H10.4816C10.4816 14.6872 11.6793 16.541 13.4079 17.5857L14.1837 16.3019ZM8.42899 23.4346C8.42899 20.3966 10.8247 17.9276 13.8541 17.6915L13.7375 16.196C9.96835 16.4898 6.92899 19.5729 6.92899 23.4346H8.42899ZM8.42899 27.0346V23.4346H6.92899V27.0346H8.42899ZM11.0606 29.6115C9.65782 29.6115 8.42899 28.4286 8.42899 27.0346H6.92899C6.92899 29.2975 8.87052 31.1115 11.0606 31.1115V29.6115ZM22.429 29.6115H11.0606V31.1115H22.429V29.6115ZM25.0643 27.0391C25.207 28.4693 23.9231 29.6115 22.429 29.6115V31.1115C24.5461 31.1115 26.812 29.4467 26.5568 26.8901L25.0643 27.0391ZM25.0606 23.4346V26.9646H26.5606V23.4346H25.0606ZM19.6355 17.6915C22.6648 17.9276 25.0606 20.3966 25.0606 23.4346H26.5606C26.5606 19.5729 23.5212 16.4898 19.752 16.196L19.6355 17.6915ZM21.5079 12.4961C21.5079 14.1124 20.6291 15.5022 19.3058 16.3019L20.0817 17.5857C21.8103 16.541 23.0079 14.6872 23.0079 12.4961H21.5079ZM16.7448 7.98077C19.3499 7.98077 21.5079 9.97746 21.5079 12.4961H23.0079C23.0079 9.05997 20.0863 6.48077 16.7448 6.48077V7.98077ZM16.7448 8.98077C14.6321 8.98077 12.9816 10.5878 12.9816 12.4961H14.4816C14.4816 11.4889 15.386 10.4808 16.7448 10.4808V8.98077ZM20.5079 12.4961C20.5079 10.5878 18.8574 8.98077 16.7448 8.98077V10.4808C18.1036 10.4808 19.0079 11.4888 19.0079 12.4961H20.5079ZM16.7448 16.0115C18.8574 16.0115 20.5079 14.4045 20.5079 12.4961H19.0079C19.0079 13.5034 18.1035 14.5115 16.7448 14.5115V16.0115ZM12.9816 12.4961C12.9816 14.4045 14.6321 16.0115 16.7448 16.0115V14.5115C15.386 14.5115 14.4816 13.5034 14.4816 12.4961H12.9816ZM14.329 18.6731C11.6068 18.6731 9.42899 20.8169 9.42899 23.4346H10.929C10.929 21.6784 12.4018 20.1731 14.329 20.1731V18.6731ZM19.1606 18.6731H14.329V20.1731H19.1606V18.6731ZM24.0606 23.4346C24.0606 20.8169 21.8827 18.6731 19.1606 18.6731V20.1731C21.0878 20.1731 22.5606 21.6785 22.5606 23.4346H24.0606ZM24.0606 27.1145V23.4346H22.5606V27.1145H24.0606ZM24.0646 27.0982L24.0545 27.019L22.5666 27.2099L22.5768 27.2891L24.0646 27.0982ZM23.6787 28.1303C23.9762 27.8405 24.1125 27.4712 24.0646 27.0982L22.5768 27.2891C22.5697 27.2334 22.5757 27.1751 22.595 27.1232C22.6138 27.0727 22.6362 27.0518 22.6319 27.056L23.6787 28.1303ZM22.429 28.6115C22.9431 28.6115 23.3849 28.4167 23.6787 28.1303L22.6319 27.056C22.632 27.0559 22.628 27.0598 22.6187 27.0657C22.6097 27.0716 22.5967 27.0787 22.5796 27.0855C22.5459 27.099 22.4961 27.1115 22.429 27.1115V28.6115ZM11.0606 28.6115H22.429V27.1115H11.0606V28.6115ZM9.42899 27.0346C9.42899 27.4764 9.64838 27.8653 9.91441 28.1274C10.1881 28.3971 10.5896 28.6115 11.0606 28.6115V27.1115C11.0575 27.1115 11.0473 27.1109 11.0294 27.1029C11.0107 27.0944 10.9884 27.0798 10.9672 27.0589C10.9457 27.0377 10.9329 27.0176 10.9273 27.0057C10.9212 26.9929 10.929 27.0022 10.929 27.0346H9.42899ZM9.42899 23.4346V27.0346H10.929V23.4346H9.42899Z" fill="#12a5a5"/>
<path fill-rule="evenodd" clip-rule="evenodd" d="M29.9895 11.25C29.9895 10.5596 30.5491 10 31.2395 10H45.5921C46.2825 10 46.8421 10.5596 46.8421 11.25C46.8421 11.9404 46.2825 12.5 45.5921 12.5H31.2395C30.5491 12.5 29.9895 11.9404 29.9895 11.25Z" stroke="#12a5a5" stroke-width="1.5" stroke-miterlimit="10" stroke-linecap="round"/>
<path fill-rule="evenodd" clip-rule="evenodd" d="M29.9895 16.3731C29.9895 15.6827 30.5491 15.1231 31.2395 15.1231H45.5921C46.2825 15.1231 46.8421 15.6827 46.8421 16.3731C46.8421 17.0634 46.2825 17.6231 45.5921 17.6231H31.2395C30.5491 17.6231 29.9895 17.0634 29.9895 16.3731Z" stroke="#12a5a5" stroke-width="1.5" stroke-miterlimit="10" stroke-linecap="round"/>
<path fill-rule="evenodd" clip-rule="evenodd" d="M29.9895 21.3577C29.9895 20.6673 30.5491 20.1077 31.2395 20.1077H45.5921C46.2825 20.1077 46.8421 20.6673 46.8421 21.3577C46.8421 22.0481 46.2825 22.6077 45.5921 22.6077H31.2395C30.5491 22.6077 29.9895 22.0481 29.9895 21.3577Z" stroke="#12a5a5" stroke-width="1.5" stroke-miterlimit="10" stroke-linecap="round"/>
<path fill-rule="evenodd" clip-rule="evenodd" d="M29.9895 26.4808C29.9895 25.7904 30.5491 25.2308 31.2395 25.2308H45.5921C46.2825 25.2308 46.8421 25.7904 46.8421 26.4808C46.8421 27.1711 46.2825 27.7308 45.5921 27.7308H31.2395C30.5491 27.7308 29.9895 27.1711 29.9895 26.4808Z" stroke="#12a5a5" stroke-width="1.5" stroke-miterlimit="10" stroke-linecap="round"/>
</svg>
