<svg width="536" height="536" viewBox="0 0 536 536" fill="none" xmlns="http://www.w3.org/2000/svg">
<path d="M515.211 275.696C515.379 271.339 519.054 267.919 523.43 268.088C527.807 268.257 531.207 271.95 531.039 276.307C530.87 280.684 527.196 284.085 522.819 283.916C518.442 283.747 515.042 280.073 515.211 275.696ZM516.59 275.749C516.45 279.367 519.255 282.397 522.872 282.537C526.49 282.676 529.52 279.871 529.66 276.254C529.8 272.637 526.994 269.606 523.377 269.467C519.76 269.327 516.729 272.132 516.59 275.749ZM517.549 275.786C517.668 272.689 520.242 270.306 523.34 270.426C526.438 270.545 528.82 273.119 528.701 276.217C528.581 279.315 526.006 281.717 522.909 281.597C519.811 281.478 517.429 278.884 517.549 275.786ZM518.928 275.84C518.838 278.178 520.624 280.128 522.962 280.218C525.3 280.309 527.231 278.502 527.322 276.164C527.412 273.825 525.625 271.895 523.287 271.805C520.949 271.714 519.018 273.501 518.928 275.84Z" fill="#12A5A5"/>
<path d="M516.262 317.658C515.575 317.541 514.953 317.299 514.395 316.933C513.835 316.573 513.37 316.13 512.997 315.604C512.625 315.078 512.359 314.491 512.199 313.843C512.045 313.195 512.027 312.529 512.144 311.842C512.215 311.431 512.328 311.041 512.483 310.671C512.644 310.309 512.837 309.972 513.062 309.661C513.294 309.35 513.556 309.068 513.851 308.815C514.144 308.568 514.461 308.354 514.802 308.175C514.277 307.616 513.893 306.963 513.651 306.215C513.416 305.468 513.368 304.683 513.509 303.862C513.626 303.175 513.865 302.552 514.225 301.993C514.591 301.435 515.037 300.969 515.563 300.597C516.089 300.225 516.676 299.958 517.324 299.798C517.971 299.645 518.638 299.627 519.325 299.744L528.162 301.255L527.826 303.219L518.989 301.708C518.572 301.637 518.168 301.647 517.775 301.738C517.389 301.837 517.037 301.998 516.722 302.222C516.405 302.452 516.136 302.733 515.914 303.065C515.697 303.404 515.553 303.782 515.482 304.199C515.413 304.604 515.422 304.995 515.509 305.373C515.595 305.758 515.744 306.103 515.956 306.41C516.167 306.724 516.432 306.99 516.751 307.21C517.075 307.437 517.435 307.595 517.829 307.682L517.964 307.705L526.8 309.216L526.46 311.208L517.623 309.697C517.206 309.626 516.801 309.636 516.409 309.728C516.023 309.827 515.671 309.988 515.356 310.211C515.04 310.435 514.771 310.712 514.549 311.044C514.333 311.384 514.189 311.762 514.118 312.179C514.047 312.59 514.058 312.991 514.15 313.384C514.247 313.777 514.408 314.131 514.632 314.447C514.854 314.769 515.132 315.038 515.465 315.253C515.803 315.476 516.181 315.623 516.598 315.694L525.434 317.205L525.099 319.169L516.262 317.658Z" fill="#12A5A5"/>
<path d="M506.115 337.804L509.85 323.812L523.38 327.423L519.645 341.416L517.711 340.9L520.93 328.841L511.268 326.262L508.049 338.321L506.115 337.804ZM512.347 337.709L514.87 328.255L516.804 328.771L514.281 338.225L512.347 337.709Z" fill="#12A5A5"/>
<path d="M499.916 356.242L504.38 343.63L517.582 348.303L516.914 350.19L505.6 346.185L501.804 356.91L499.916 356.242Z" fill="#12A5A5"/>
<path d="M492.054 374.6L495.75 366.379C496.148 365.494 496.676 364.764 497.334 364.189C497.992 363.614 498.726 363.198 499.534 362.94C500.34 362.689 501.194 362.598 502.097 362.669C503.001 362.739 503.895 362.974 504.779 363.371C505.658 363.766 506.421 364.277 507.067 364.903C507.72 365.532 508.219 366.231 508.565 367.001C508.915 367.779 509.093 368.605 509.1 369.479C509.113 370.356 508.92 371.236 508.523 372.121L504.826 380.342L503.001 379.521L506.697 371.3C506.98 370.671 507.113 370.049 507.096 369.435C507.083 368.829 506.947 368.258 506.689 367.721C506.434 367.192 506.074 366.708 505.607 366.27C505.137 365.838 504.588 365.48 503.958 365.197C503.329 364.914 502.694 364.739 502.053 364.672C501.415 364.614 500.811 364.664 500.241 364.821C499.674 364.987 499.159 365.266 498.697 365.658C498.233 366.056 497.859 366.57 497.576 367.199L493.88 375.42L492.054 374.6Z" fill="#12A5A5"/>
<path d="M487.201 398.547C486.355 398.072 485.635 397.493 485.042 396.808C484.448 396.124 484.014 395.38 483.74 394.577C483.464 393.78 483.359 392.949 483.427 392.083C483.495 391.218 483.764 390.365 484.236 389.525L486.516 385.463C486.991 384.617 487.581 383.937 488.288 383.423C488.995 382.908 489.762 382.559 490.59 382.374C491.415 382.195 492.274 382.181 493.167 382.331C494.061 382.482 494.931 382.795 495.776 383.269C496.617 383.741 497.331 384.317 497.919 384.998C498.513 385.683 498.948 386.424 499.225 387.221C499.504 388.027 499.608 388.866 499.538 389.737C499.472 390.611 499.202 391.471 498.728 392.317L496.448 396.379C495.976 397.219 495.386 397.892 494.676 398.397C493.973 398.906 493.206 399.248 492.375 399.424C491.548 399.609 490.687 399.626 489.793 399.475C488.906 399.328 488.042 399.018 487.201 398.547ZM488.181 396.801C488.783 397.139 489.397 397.368 490.024 397.488C490.651 397.609 491.254 397.611 491.834 397.496C492.416 397.39 492.954 397.162 493.449 396.813C493.947 396.472 494.364 396.001 494.702 395.399L496.982 391.337C497.32 390.735 497.508 390.128 497.546 389.515C497.586 388.91 497.502 388.329 497.292 387.771C497.086 387.222 496.769 386.708 496.343 386.23C495.914 385.758 495.398 385.353 494.797 385.015C494.195 384.677 493.578 384.447 492.945 384.323C492.315 384.208 491.709 384.204 491.127 384.31C490.547 384.426 490.01 384.658 489.515 385.007C489.017 385.362 488.599 385.841 488.262 386.443L485.982 390.505C485.644 391.106 485.456 391.707 485.419 392.305C485.378 392.91 485.461 393.486 485.668 394.036C485.878 394.594 486.197 395.109 486.626 395.581C487.061 396.057 487.579 396.463 488.181 396.801Z" fill="#12A5A5"/>
<path d="M471.882 409.238L473.03 407.598L478.766 411.613C479.332 412.009 479.937 412.273 480.582 412.407C481.228 412.541 481.865 412.55 482.494 412.434C483.125 412.327 483.723 412.098 484.287 411.746C484.853 411.403 485.334 410.949 485.73 410.383L486.345 409.503L476.512 402.622L477.66 400.981L489.134 409.011L487.37 411.531C487.004 412.054 486.584 412.507 486.109 412.89C485.636 413.282 485.129 413.603 484.589 413.852C484.049 414.102 483.487 414.281 482.903 414.389C482.319 414.496 481.729 414.533 481.134 414.498C481.374 415.039 481.544 415.603 481.643 416.189C481.742 416.774 481.766 417.364 481.717 417.957C481.667 418.55 481.541 419.133 481.338 419.707C481.137 420.289 480.854 420.842 480.488 421.364L478.719 423.893L467.245 415.863L468.393 414.223L478.226 421.105L478.848 420.216C479.244 419.651 479.506 419.044 479.634 418.395C479.768 417.749 479.779 417.109 479.667 416.475C479.556 415.849 479.33 415.253 478.987 414.687C478.64 414.127 478.184 413.649 477.618 413.253L471.882 409.238Z" fill="#12A5A5"/>
<path d="M453.557 432.652L462.907 421.592L473.601 430.633L464.252 441.693L462.723 440.401L470.78 430.869L463.143 424.413L455.086 433.945L453.557 432.652ZM459.233 435.226L465.55 427.753L467.079 429.045L460.762 436.518L459.233 435.226Z" fill="#12A5A5"/>
<path d="M437.68 447.942C440.873 444.973 445.891 445.141 448.874 448.349C451.856 451.556 451.66 456.573 448.467 459.542C445.259 462.524 440.256 462.343 437.273 459.135C434.291 455.927 434.473 450.924 437.68 447.942ZM438.62 448.952C435.969 451.417 435.819 455.544 438.284 458.195C440.749 460.846 444.876 460.996 447.527 458.531C450.178 456.066 450.328 451.939 447.863 449.288C445.398 446.637 441.271 446.487 438.62 448.952ZM439.274 449.655C441.544 447.544 445.049 447.672 447.16 449.942C449.271 452.212 449.143 455.717 446.873 457.828C444.603 459.939 441.083 459.825 438.972 457.555C436.861 455.285 437.004 451.766 439.274 449.655ZM440.213 450.666C438.5 452.259 438.39 454.902 439.983 456.615C441.576 458.329 444.22 458.411 445.933 456.818C447.647 455.224 447.743 452.595 446.149 450.882C444.556 449.168 441.927 449.073 440.213 450.666Z" fill="#12A5A5"/>
<path d="M409.259 478.096C408.853 477.53 408.581 476.92 408.442 476.267C408.297 475.618 408.277 474.975 408.382 474.34C408.487 473.704 408.711 473.099 409.053 472.526C409.399 471.958 409.855 471.471 410.421 471.065C410.76 470.822 411.115 470.624 411.485 470.471C411.854 470.327 412.229 470.223 412.608 470.16C412.991 470.102 413.376 470.086 413.763 470.113C414.145 470.143 414.521 470.215 414.89 470.327C414.909 469.56 415.096 468.826 415.45 468.124C415.808 467.427 416.325 466.836 417.003 466.351C417.569 465.945 418.177 465.67 418.826 465.525C419.479 465.386 420.123 465.369 420.759 465.474C421.395 465.579 422 465.803 422.573 466.145C423.141 466.49 423.628 466.947 424.034 467.513L429.254 474.801L427.635 475.961L422.414 468.673C422.168 468.329 421.873 468.052 421.53 467.841C421.185 467.639 420.822 467.507 420.441 467.444C420.054 467.385 419.665 467.395 419.274 467.475C418.881 467.564 418.513 467.732 418.168 467.978C417.835 468.217 417.566 468.502 417.362 468.832C417.153 469.166 417.016 469.516 416.951 469.884C416.88 470.255 416.881 470.63 416.953 471.011C417.024 471.401 417.169 471.765 417.388 472.105L417.468 472.216L422.688 479.504L421.045 480.681L415.825 473.393C415.578 473.049 415.283 472.772 414.94 472.561C414.596 472.359 414.233 472.227 413.851 472.164C413.47 472.101 413.083 472.109 412.692 472.189C412.299 472.278 411.931 472.446 411.587 472.693C411.248 472.935 410.974 473.228 410.763 473.571C410.556 473.92 410.421 474.285 410.358 474.666C410.29 475.051 410.298 475.438 410.383 475.825C410.467 476.222 410.632 476.592 410.879 476.936L416.099 484.224L414.48 485.384L409.259 478.096Z" fill="#12A5A5"/>
<path d="M387.683 485.355L400.179 478.035L407.258 490.118L394.761 497.438L393.749 495.711L404.518 489.403L399.464 480.774L388.695 487.082L387.683 485.355ZM392.18 489.67L400.623 484.724L401.635 486.451L393.192 491.397L392.18 489.67Z" fill="#12A5A5"/>
<path d="M370.312 494.052L382.367 488.25L388.44 500.868L386.636 501.737L381.431 490.922L371.18 495.856L370.312 494.052Z" fill="#12A5A5"/>
<path d="M352.07 501.467L360.473 498.206C361.377 497.855 362.266 497.705 363.138 497.758C364.01 497.81 364.825 498.028 365.581 498.412C366.332 498.798 367.004 499.334 367.598 500.018C368.192 500.702 368.664 501.497 369.015 502.401C369.364 503.299 369.548 504.198 369.569 505.098C369.593 506.004 369.458 506.852 369.164 507.644C368.867 508.443 368.414 509.157 367.806 509.784C367.199 510.418 366.444 510.91 365.54 511.261L357.137 514.522L356.412 512.656L364.815 509.394C365.459 509.145 365.99 508.795 366.409 508.346C366.825 507.906 367.129 507.403 367.323 506.84C367.512 506.284 367.594 505.686 367.57 505.047C367.539 504.409 367.398 503.769 367.149 503.125C366.899 502.482 366.569 501.912 366.16 501.414C365.747 500.925 365.281 500.536 364.764 500.248C364.244 499.968 363.682 499.806 363.077 499.761C362.467 499.719 361.841 499.822 361.197 500.072L352.794 503.333L352.07 501.467Z" fill="#12A5A5"/>
<path d="M331.603 515.111C331.335 514.179 331.231 513.261 331.289 512.356C331.348 511.452 331.562 510.618 331.932 509.855C332.296 509.093 332.806 508.429 333.462 507.861C334.119 507.293 334.91 506.876 335.836 506.61L340.313 505.323C341.245 505.055 342.144 504.987 343.008 505.118C343.872 505.249 344.663 505.54 345.382 505.99C346.095 506.443 346.716 507.036 347.245 507.772C347.775 508.507 348.174 509.341 348.441 510.273C348.708 511.199 348.81 512.111 348.75 513.009C348.692 513.913 348.48 514.746 348.117 515.508C347.748 516.277 347.233 516.947 346.57 517.517C345.909 518.093 345.113 518.515 344.18 518.783L339.703 520.069C338.777 520.335 337.885 520.399 337.025 520.259C336.167 520.127 335.381 519.831 334.667 519.372C333.948 518.922 333.324 518.329 332.794 517.594C332.266 516.865 331.869 516.037 331.603 515.111ZM333.527 514.558C333.718 515.222 333.994 515.816 334.355 516.343C334.716 516.869 335.143 517.295 335.637 517.62C336.125 517.954 336.669 518.171 337.266 518.27C337.859 518.377 338.487 518.335 339.151 518.145L343.628 516.858C344.291 516.668 344.852 516.368 345.31 515.959C345.763 515.557 346.112 515.085 346.355 514.54C346.594 514.004 346.73 513.417 346.763 512.777C346.79 512.14 346.708 511.489 346.517 510.826C346.327 510.163 346.05 509.565 345.687 509.032C345.32 508.508 344.891 508.079 344.403 507.745C343.909 507.419 343.364 507.207 342.767 507.108C342.163 507.01 341.529 507.057 340.866 507.247L336.389 508.534C335.726 508.724 335.17 509.019 334.723 509.419C334.269 509.82 333.923 510.289 333.684 510.825C333.441 511.369 333.306 511.96 333.279 512.598C333.254 513.241 333.337 513.895 333.527 514.558Z" fill="#12A5A5"/>
<path d="M313.347 511.864L315.316 511.504L316.575 518.391C316.699 519.07 316.944 519.684 317.309 520.233C317.674 520.782 318.121 521.236 318.65 521.596C319.174 521.963 319.76 522.22 320.409 522.366C321.053 522.52 321.714 522.535 322.393 522.411L323.45 522.218L321.291 510.411L323.26 510.051L325.779 523.827L322.753 524.38C322.125 524.495 321.508 524.522 320.901 524.46C320.289 524.407 319.703 524.279 319.143 524.077C318.584 523.875 318.058 523.607 317.567 523.273C317.076 522.939 316.631 522.551 316.232 522.108C316.022 522.662 315.747 523.182 315.406 523.668C315.064 524.154 314.667 524.591 314.215 524.978C313.763 525.365 313.264 525.691 312.717 525.957C312.164 526.23 311.574 526.424 310.947 526.539L307.911 527.093L305.393 513.318L307.362 512.958L309.52 524.764L310.587 524.569C311.265 524.445 311.879 524.197 312.426 523.826C312.975 523.461 313.433 523.013 313.799 522.483C314.16 521.96 314.417 521.377 314.571 520.733C314.718 520.091 314.73 519.43 314.606 518.752L313.347 511.864Z" fill="#12A5A5"/>
<path d="M283.825 515.586L298.251 514.303L299.491 528.252L285.066 529.535L284.889 527.54L297.32 526.435L296.434 516.474L284.003 517.58L283.825 515.586ZM286.049 521.408L295.796 520.541L295.973 522.535L286.226 523.402L286.049 521.408Z" fill="#12A5A5"/>
<path d="M260.931 515.226C265.289 515.377 268.724 519.039 268.571 523.416C268.419 527.793 264.739 531.208 260.381 531.056C256.004 530.904 252.589 527.243 252.741 522.866C252.893 518.489 256.554 515.074 260.931 515.226ZM260.883 516.605C257.266 516.479 254.246 519.296 254.12 522.914C253.994 526.532 256.811 529.551 260.429 529.677C264.047 529.803 267.067 526.986 267.192 523.368C267.318 519.75 264.501 516.731 260.883 516.605ZM260.85 517.564C263.948 517.672 266.341 520.237 266.233 523.335C266.125 526.433 263.561 528.825 260.462 528.718C257.364 528.61 254.952 526.045 255.06 522.947C255.167 519.848 257.752 517.457 260.85 517.564ZM260.802 518.944C258.464 518.862 256.52 520.656 256.439 522.994C256.358 525.333 258.172 527.257 260.51 527.338C262.849 527.42 264.772 525.625 264.854 523.287C264.935 520.948 263.141 519.025 260.802 518.944Z" fill="#12A5A5"/>
<path d="M219.492 516.508C219.604 515.821 219.841 515.197 220.203 514.636C220.559 514.074 220.998 513.604 221.521 513.228C222.044 512.851 222.63 512.581 223.276 512.416C223.922 512.257 224.589 512.234 225.277 512.346C225.688 512.413 226.079 512.523 226.45 512.676C226.813 512.834 227.152 513.025 227.465 513.247C227.777 513.476 228.061 513.737 228.317 514.03C228.566 514.321 228.782 514.636 228.964 514.976C229.519 514.447 230.169 514.058 230.915 513.81C231.66 513.569 232.444 513.515 233.267 513.65C233.954 513.762 234.579 513.996 235.141 514.351C235.702 514.713 236.171 515.156 236.547 515.679C236.924 516.202 237.194 516.787 237.359 517.434C237.518 518.08 237.541 518.747 237.429 519.434L235.986 528.282L234.02 527.961L235.463 519.113C235.531 518.696 235.518 518.291 235.423 517.9C235.321 517.514 235.157 517.164 234.931 516.85C234.699 516.535 234.416 516.268 234.083 516.049C233.742 515.835 233.362 515.694 232.944 515.625C232.54 515.559 232.149 515.571 231.771 515.662C231.387 515.751 231.042 515.902 230.737 516.116C230.425 516.329 230.161 516.596 229.944 516.917C229.719 517.243 229.564 517.604 229.48 517.999L229.458 518.134L228.015 526.982L226.02 526.657L227.463 517.809C227.531 517.391 227.518 516.986 227.423 516.595C227.321 516.209 227.158 515.859 226.932 515.545C226.706 515.231 226.426 514.965 226.093 514.745C225.751 514.531 225.372 514.39 224.954 514.322C224.543 514.255 224.142 514.269 223.75 514.363C223.358 514.464 223.005 514.628 222.691 514.853C222.371 515.078 222.104 515.358 221.891 515.693C221.671 516.033 221.526 516.412 221.458 516.829L220.015 525.677L218.049 525.356L219.492 516.508Z" fill="#12A5A5"/>
<path d="M199.135 506.387L213.141 510.069L209.581 523.613L195.575 519.931L196.084 517.995L208.154 521.168L210.696 511.496L198.626 508.323L199.135 506.387ZM199.254 512.618L208.717 515.106L208.209 517.042L198.745 514.554L199.254 512.618Z" fill="#12A5A5"/>
<path d="M180.776 500.298L193.405 504.714L188.783 517.933L186.893 517.272L190.855 505.943L180.116 502.188L180.776 500.298Z" fill="#12A5A5"/>
<path d="M162.645 492.654L170.893 496.289C171.781 496.68 172.515 497.202 173.095 497.856C173.674 498.51 174.096 499.24 174.36 500.047C174.617 500.85 174.714 501.704 174.65 502.608C174.587 503.512 174.359 504.407 173.968 505.295C173.579 506.177 173.074 506.943 172.453 507.594C171.829 508.251 171.134 508.756 170.367 509.108C169.591 509.464 168.766 509.648 167.892 509.661C167.016 509.681 166.134 509.495 165.246 509.103L156.998 505.469L157.805 503.637L166.054 507.271C166.685 507.55 167.308 507.678 167.922 507.657C168.527 507.639 169.098 507.5 169.633 507.237C170.16 506.979 170.64 506.614 171.075 506.144C171.504 505.671 171.858 505.119 172.136 504.488C172.414 503.856 172.584 503.22 172.646 502.578C172.7 501.94 172.646 501.337 172.484 500.767C172.314 500.201 172.031 499.689 171.635 499.23C171.234 498.769 170.718 498.399 170.086 498.121L161.838 494.486L162.645 492.654Z" fill="#12A5A5"/>
<path d="M138.505 487.818C138.976 486.97 139.553 486.248 140.235 485.651C140.917 485.055 141.659 484.618 142.461 484.342C143.258 484.062 144.089 483.955 144.954 484.019C145.82 484.084 146.674 484.35 147.516 484.819L151.586 487.084C152.434 487.555 153.116 488.144 153.633 488.849C154.15 489.553 154.502 490.319 154.69 491.147C154.872 491.971 154.889 492.83 154.742 493.724C154.595 494.618 154.285 495.489 153.814 496.336C153.345 497.178 152.771 497.895 152.092 498.485C151.41 499.082 150.671 499.52 149.875 499.799C149.07 500.082 148.231 500.189 147.36 500.121C146.486 500.059 145.624 499.792 144.777 499.321L140.706 497.056C139.864 496.587 139.189 495.999 138.682 495.292C138.17 494.59 137.825 493.825 137.646 492.995C137.459 492.168 137.438 491.307 137.586 490.413C137.73 489.525 138.036 488.659 138.505 487.818ZM140.254 488.791C139.918 489.394 139.692 490.009 139.574 490.636C139.455 491.264 139.455 491.867 139.572 492.446C139.681 493.028 139.91 493.566 140.262 494.059C140.604 494.555 141.077 494.971 141.68 495.306L145.75 497.571C146.353 497.907 146.961 498.093 147.575 498.128C148.179 498.167 148.76 498.08 149.317 497.869C149.866 497.66 150.378 497.342 150.855 496.914C151.325 496.483 151.729 495.966 152.064 495.363C152.4 494.76 152.628 494.142 152.749 493.509C152.862 492.879 152.864 492.272 152.755 491.691C152.638 491.111 152.404 490.575 152.053 490.081C151.696 489.585 151.216 489.169 150.613 488.833L146.542 486.568C145.939 486.233 145.338 486.047 144.739 486.012C144.135 485.974 143.559 486.059 143.01 486.268C142.453 486.479 141.939 486.801 141.468 487.231C140.994 487.668 140.589 488.188 140.254 488.791Z" fill="#12A5A5"/>
<path d="M127.979 472.719L129.627 473.855L125.655 479.621C125.263 480.189 125.003 480.796 124.874 481.443C124.745 482.089 124.74 482.726 124.861 483.355C124.972 483.985 125.206 484.581 125.562 485.143C125.909 485.706 126.367 486.183 126.935 486.575L127.82 487.184L134.629 477.301L136.278 478.437L128.332 489.969L125.799 488.223C125.274 487.861 124.818 487.445 124.431 486.973C124.036 486.503 123.711 485.998 123.458 485.46C123.204 484.921 123.021 484.361 122.909 483.777C122.797 483.194 122.757 482.605 122.787 482.009C122.247 482.254 121.685 482.428 121.1 482.531C120.515 482.634 119.926 482.663 119.332 482.617C118.739 482.572 118.155 482.45 117.58 482.252C116.996 482.055 116.441 481.776 115.916 481.414L113.375 479.663L121.32 468.131L122.969 469.267L116.159 479.15L117.052 479.765C117.62 480.157 118.229 480.415 118.879 480.538C119.526 480.667 120.166 480.674 120.8 480.557C121.424 480.442 122.018 480.211 122.582 479.864C123.14 479.513 123.614 479.053 124.006 478.485L127.979 472.719Z" fill="#12A5A5"/>
<path d="M104.494 454.578L115.622 463.846L106.66 474.607L95.5318 465.338L96.813 463.799L106.403 471.787L112.803 464.103L103.213 456.116L104.494 454.578ZM101.962 460.272L109.481 466.535L108.2 468.073L100.681 461.81L101.962 460.272Z" fill="#12A5A5"/>
<path d="M89.1933 438.874C92.1853 442.045 92.0536 447.064 88.8677 450.069C85.6819 453.075 80.664 452.915 77.6719 449.744C74.6661 446.558 74.8116 441.554 77.9974 438.548C81.1833 435.542 86.1875 435.688 89.1933 438.874ZM88.1895 439.821C85.7053 437.188 81.5775 437.068 78.9445 439.552C76.3114 442.036 76.1914 446.164 78.6757 448.797C81.1599 451.43 85.2877 451.55 87.9207 449.066C90.5537 446.581 90.6738 442.454 88.1895 439.821ZM87.4912 440.479C89.6186 442.734 89.5167 446.24 87.2619 448.367C85.0071 450.495 81.5013 450.393 79.3739 448.138C77.2465 445.883 77.3347 442.363 79.5895 440.235C81.8444 438.108 85.3638 438.225 87.4912 440.479ZM86.4875 441.426C84.8816 439.724 82.2386 439.633 80.5366 441.239C78.8346 442.845 78.7718 445.489 80.3777 447.191C81.9835 448.893 84.6128 448.969 86.3149 447.364C88.0169 445.758 88.0933 443.128 86.4875 441.426Z" fill="#12A5A5"/>
<path d="M58.7464 410.476C59.3112 410.069 59.9199 409.794 60.5723 409.652C61.2209 409.505 61.8634 409.483 62.4996 409.586C63.1359 409.688 63.7413 409.91 64.3159 410.25C64.8852 410.594 65.3738 411.048 65.7815 411.613C66.0254 411.951 66.2247 412.304 66.3794 412.675C66.525 413.043 66.6302 413.417 66.6949 413.796C66.7543 414.178 66.7714 414.564 66.7461 414.951C66.717 415.334 66.6469 415.709 66.536 416.078C67.3028 416.095 68.0378 416.279 68.7411 416.63C69.4392 416.986 70.0321 417.501 70.5198 418.177C70.9276 418.742 71.2049 419.348 71.352 419.997C71.4937 420.649 71.5132 421.294 71.4104 421.93C71.3077 422.566 71.0863 423.172 70.7463 423.746C70.4025 424.316 69.9482 424.804 69.3834 425.212L62.1145 430.459L60.9485 428.844L68.2174 423.597C68.5605 423.349 68.8368 423.053 69.0462 422.709C69.2466 422.364 69.3776 422 69.4392 421.619C69.4971 421.232 69.4853 420.843 69.4039 420.452C69.3134 420.059 69.1443 419.692 68.8966 419.349C68.6566 419.016 68.371 418.748 68.04 418.546C67.7052 418.338 67.3541 418.202 66.9868 418.138C66.6156 418.068 66.2398 418.071 65.8595 418.145C65.4701 418.217 65.106 418.363 64.7673 418.584L64.6565 418.664L57.3876 423.911L56.2044 422.272L63.4733 417.025C63.8164 416.777 64.0927 416.481 64.3021 416.137C64.5025 415.792 64.6335 415.428 64.6952 415.047C64.7568 414.665 64.747 414.278 64.6655 413.888C64.575 413.495 64.4059 413.128 64.1583 412.784C63.9144 412.447 63.6205 412.173 63.2766 411.963C62.9275 411.758 62.562 411.624 62.1802 411.563C61.7947 411.496 61.4084 411.505 61.0213 411.592C60.6252 411.677 60.2555 411.844 59.9124 412.092L52.6435 417.339L51.4775 415.723L58.7464 410.476Z" fill="#12A5A5"/>
<path d="M51.4029 389.017L58.7689 401.487L46.7117 408.609L39.3456 396.14L41.0693 395.122L47.4171 405.867L56.027 400.781L49.6792 390.036L51.4029 389.017ZM47.1045 393.53L52.0815 401.955L50.3578 402.973L45.3809 394.548L47.1045 393.53Z" fill="#12A5A5"/>
<path d="M42.6796 371.914L48.5709 383.926L35.9978 390.092L35.1163 388.295L45.892 383.01L40.8822 372.795L42.6796 371.914Z" fill="#12A5A5"/>
<path d="M35.0892 353.557L38.382 361.948C38.7363 362.851 38.8889 363.739 38.8397 364.611C38.7905 365.484 38.5754 366.299 38.1944 367.057C37.8111 367.809 37.2783 368.483 36.5962 369.079C35.9141 369.676 35.1215 370.151 34.2185 370.505C33.3215 370.857 32.4232 371.046 31.5236 371.07C30.6179 371.097 29.7688 370.965 28.9764 370.674C28.1756 370.38 27.4604 369.93 26.8309 369.324C26.1953 368.72 25.7003 367.966 25.3459 367.063L22.0532 358.673L23.9168 357.941L27.2095 366.332C27.4616 366.975 27.813 367.505 28.2636 367.922C28.7058 368.336 29.2092 368.639 29.7737 368.83C30.3299 369.017 30.9278 369.097 31.5675 369.07C32.2049 369.037 32.8447 368.894 33.4871 368.642C34.1296 368.39 34.6987 368.058 35.1947 367.647C35.6822 367.231 36.0691 366.765 36.3554 366.247C36.6333 365.725 36.7935 365.162 36.8361 364.558C36.8764 363.948 36.7705 363.321 36.5184 362.679L33.2256 354.288L35.0892 353.557Z" fill="#12A5A5"/>
<path d="M21.344 333.275C22.2753 333.004 23.1932 332.895 24.0976 332.951C25.002 333.006 25.8366 333.217 26.6013 333.584C27.3643 333.945 28.031 334.452 28.6014 335.107C29.1719 335.761 29.5919 336.551 29.8615 337.476L31.1648 341.948C31.4362 342.879 31.5081 343.777 31.3803 344.642C31.2525 345.506 30.9647 346.299 30.5169 347.019C30.0673 347.733 29.4759 348.357 28.7427 348.889C28.0095 349.421 27.1772 349.823 26.2459 350.095C25.3209 350.364 24.4093 350.471 23.5111 350.414C22.6067 350.359 21.773 350.151 21.0101 349.79C20.239 349.425 19.5674 348.912 18.9951 348.251C18.4166 347.592 17.9917 346.797 17.7203 345.866L16.4169 341.394C16.1473 340.469 16.0804 339.576 16.2163 338.716C16.3459 337.858 16.6386 337.071 17.0945 336.355C17.5423 335.634 18.1328 335.008 18.866 334.475C19.5929 333.945 20.4189 333.545 21.344 333.275ZM21.9041 335.197C21.2416 335.39 20.6479 335.668 20.1231 336.031C19.5983 336.395 19.174 336.823 18.8502 337.318C18.5183 337.808 18.3039 338.352 18.2069 338.95C18.1018 339.543 18.1458 340.171 18.3389 340.834L19.6422 345.306C19.8353 345.968 20.1374 346.528 20.5485 346.985C20.9516 347.437 21.4256 347.784 21.9706 348.025C22.5075 348.262 23.0958 348.395 23.7353 348.426C24.3731 348.45 25.0232 348.366 25.6858 348.173C26.3483 347.98 26.9451 347.701 27.4762 347.336C27.9992 346.966 28.4266 346.537 28.7585 346.047C29.0823 345.552 29.2927 345.006 29.3897 344.408C29.4849 343.804 29.4359 343.17 29.2428 342.508L27.9395 338.036C27.7464 337.373 27.4492 336.819 27.048 336.373C26.645 335.921 26.175 335.576 25.6381 335.34C25.0931 335.098 24.5017 334.966 23.864 334.941C23.2199 334.919 22.5667 335.004 21.9041 335.197Z" fill="#12A5A5"/>
<path d="M24.4465 315.016L24.814 316.984L17.9311 318.27C17.2527 318.396 16.6399 318.643 16.0925 319.01C15.5451 319.378 15.0925 319.826 14.7346 320.357C14.3691 320.882 14.1145 321.469 13.9709 322.119C13.8197 322.763 13.8074 323.424 13.9341 324.103L14.1313 325.159L25.9293 322.955L26.2968 324.923L12.531 327.494L11.9662 324.47C11.8491 323.843 11.8199 323.226 11.8787 322.619C11.9299 322.007 12.0555 321.42 12.2555 320.86C12.4554 320.299 12.7213 319.773 13.0532 319.28C13.3851 318.788 13.772 318.341 14.2138 317.941C13.6584 317.733 13.1371 317.46 12.6498 317.12C12.1625 316.781 11.7245 316.386 11.3357 315.935C10.9468 315.484 10.6186 314.986 10.3511 314.44C10.0759 313.889 9.87975 313.299 9.76261 312.672L9.19602 309.639L22.9619 307.068L23.3294 309.036L11.5315 311.239L11.7305 312.305C11.8572 312.983 12.1074 313.595 12.4809 314.142C12.8481 314.689 13.2975 315.145 13.8291 315.509C14.3532 315.868 14.9373 316.123 15.5815 316.275C16.2245 316.419 16.8852 316.428 17.5635 316.302L24.4465 315.016Z" fill="#12A5A5"/>
<path d="M20.5472 285.563L21.8857 299.984L7.94169 301.278L6.60326 286.857L8.59664 286.672L9.75006 299.099L19.7073 298.175L18.5538 285.748L20.5472 285.563ZM14.7338 287.809L15.6382 297.553L13.6448 297.738L12.7405 287.994L14.7338 287.809Z" fill="#12A5A5"/>
<path d="M20.7157 263.269C20.5979 267.627 16.963 271.09 12.5846 270.972C8.20622 270.853 4.76369 267.199 4.88147 262.841C4.9998 258.462 8.63414 255.019 13.0125 255.137C17.3909 255.256 20.834 258.89 20.7157 263.269ZM19.3362 263.231C19.434 259.613 16.5939 256.615 12.9753 256.517C9.35658 256.419 6.35876 259.259 6.26097 262.878C6.16317 266.497 9.00322 269.494 12.6219 269.592C16.2406 269.69 19.2384 266.85 19.3362 263.231ZM18.3765 263.205C18.2928 266.304 15.7467 268.716 12.6478 268.633C9.54897 268.549 7.13687 266.003 7.22062 262.904C7.30436 259.805 9.851 257.373 12.9499 257.457C16.0487 257.54 18.4603 260.106 18.3765 263.205ZM16.997 263.168C17.0603 260.829 15.2517 258.899 12.9126 258.836C10.5734 258.773 8.66333 260.602 8.60011 262.941C8.5369 265.28 10.346 267.19 12.6851 267.253C15.0243 267.316 16.9338 265.507 16.997 263.168Z" fill="#12A5A5"/>
<path d="M19.1693 221.31C19.8572 221.419 20.4824 221.654 21.0448 222.014C21.6082 222.367 22.0792 222.805 22.4576 223.326C22.836 223.848 23.1089 224.432 23.2763 225.078C23.4373 225.724 23.463 226.39 23.3535 227.078C23.288 227.49 23.1796 227.881 23.0282 228.253C22.8713 228.617 22.6822 228.956 22.4608 229.27C22.233 229.583 21.9734 229.868 21.682 230.125C21.3916 230.375 21.0769 230.592 20.7379 230.776C21.2696 231.328 21.6607 231.977 21.9112 232.723C22.1553 233.467 22.2119 234.25 22.0809 235.073C21.9714 235.761 21.7399 236.387 21.3866 236.95C21.0268 237.513 20.586 237.983 20.0643 238.362C19.5426 238.74 18.9586 239.013 18.3122 239.18C17.6669 239.341 17.0003 239.367 16.3124 239.258L7.45897 237.848L7.77214 235.881L16.6255 237.29C17.0434 237.357 17.4479 237.342 17.839 237.246C18.2246 237.143 18.5739 236.977 18.8869 236.75C19.201 236.517 19.467 236.233 19.6851 235.898C19.8977 235.557 20.0373 235.177 20.1038 234.759C20.1683 234.354 20.1548 233.963 20.0632 233.585C19.9726 233.202 19.8197 232.858 19.6045 232.553C19.3903 232.242 19.1224 231.979 18.8008 231.763C18.4738 231.539 18.1125 231.386 17.7169 231.303L17.5819 231.282L8.72853 229.873L9.04631 227.876L17.8997 229.286C18.3176 229.352 18.7221 229.337 19.1131 229.241C19.4988 229.138 19.8481 228.973 20.1611 228.746C20.4741 228.519 20.7397 228.238 20.9577 227.903C21.1704 227.561 21.3099 227.182 21.3765 226.764C21.442 226.352 21.4267 225.951 21.3308 225.56C21.2284 225.168 21.0636 224.815 20.8366 224.502C20.6105 224.183 20.3298 223.917 19.9943 223.706C19.6534 223.487 19.274 223.344 18.8561 223.277L10.0027 221.868L10.3159 219.901L19.1693 221.31Z" fill="#12A5A5"/>
<path d="M29.03 201.212L25.4547 215.247L11.8842 211.789L15.4595 197.755L17.3995 198.25L14.3184 210.344L24.0089 212.812L27.09 200.718L29.03 201.212ZM22.8 201.379L20.3843 210.861L18.4443 210.367L20.86 200.885L22.8 201.379Z" fill="#12A5A5"/>
<path d="M34.9881 182.714L30.6668 195.376L17.4135 190.852L18.0601 188.958L29.4188 192.834L33.0935 182.067L34.9881 182.714Z" fill="#12A5A5"/>
<path d="M42.7075 164.046L39.1035 172.308C38.7156 173.197 38.1958 173.933 37.544 174.515C36.8923 175.097 36.1638 175.522 35.3584 175.788C34.5557 176.049 33.7024 176.149 32.7983 176.089C31.8942 176.028 30.9976 175.804 30.1085 175.416C29.2253 175.031 28.457 174.529 27.8036 173.91C27.1442 173.288 26.6371 172.595 26.2821 171.829C25.9238 171.055 25.7363 170.231 25.7197 169.357C25.6972 168.481 25.8798 167.598 26.2677 166.709L29.8717 158.447L31.7067 159.247L28.1026 167.509C27.8267 168.142 27.7004 168.765 27.7238 169.379C27.7439 169.984 27.886 170.554 28.1501 171.088C28.4109 171.614 28.7771 172.094 29.2487 172.527C29.723 172.954 30.2764 173.305 30.9089 173.581C31.5415 173.857 32.1786 174.025 32.8202 174.085C33.4585 174.136 34.0619 174.079 34.6306 173.915C35.196 173.743 35.7073 173.458 36.1647 173.061C36.6246 172.658 36.9926 172.14 37.2685 171.508L40.8725 163.246L42.7075 164.046Z" fill="#12A5A5"/>
<path d="M47.0913 140.384C47.9424 140.85 48.6687 141.421 49.2702 142.099C49.8717 142.776 50.3136 143.515 50.596 144.315C50.8814 145.109 50.9951 145.94 50.937 146.806C50.879 147.672 50.6188 148.527 50.1565 149.373L47.9216 153.46C47.4562 154.311 46.873 154.998 46.172 155.52C45.4711 156.041 44.7077 156.399 43.8819 156.593C43.0592 156.782 42.2002 156.805 41.3051 156.665C40.41 156.524 39.5369 156.221 38.6858 155.756C37.8404 155.293 37.1198 154.725 36.5241 154.05C35.9226 153.373 35.4791 152.637 35.1936 151.842C34.9056 151.039 34.7922 150.202 34.8534 149.33C34.9089 148.455 35.1693 147.592 35.6347 146.741L37.8696 142.654C38.3319 141.809 38.9148 141.129 39.6184 140.616C40.3162 140.1 41.0793 139.749 41.9077 139.564C42.7336 139.37 43.594 139.344 44.4891 139.484C45.3785 139.622 46.2459 139.922 47.0913 140.384ZM46.1308 142.141C45.5253 141.81 44.9086 141.587 44.2805 141.474C43.6524 141.36 43.0492 141.364 42.4708 141.486C41.8897 141.599 41.3538 141.832 40.8629 142.187C40.3695 142.533 39.9572 143.009 39.6261 143.615L37.3912 147.702C37.0601 148.307 36.8789 148.917 36.8476 149.53C36.8137 150.135 36.9045 150.715 37.1201 151.271C37.3331 151.818 37.6552 152.328 38.0865 152.801C38.5209 153.269 39.0408 153.668 39.6463 153.999C40.2518 154.33 40.8714 154.554 41.5052 154.671C42.1364 154.778 42.7425 154.776 43.3235 154.663C43.902 154.542 44.4366 154.303 44.9275 153.949C45.4215 153.588 45.834 153.105 46.1651 152.499L48.4 148.412C48.7311 147.807 48.912 147.205 48.9428 146.606C48.9767 146.001 48.8872 145.425 48.6742 144.878C48.4586 144.322 48.1336 143.811 47.6992 143.343C47.2591 142.873 46.7363 142.472 46.1308 142.141Z" fill="#12A5A5"/>
<path d="M62.3888 129.283L61.259 130.935L55.4786 126.984C54.9089 126.594 54.3007 126.336 53.6539 126.21C53.0071 126.083 52.3697 126.081 51.7416 126.204C51.1119 126.317 50.5168 126.553 49.9565 126.911C49.3944 127.261 48.9187 127.72 48.5292 128.29L47.923 129.177L57.831 135.95L56.7012 137.603L45.1405 129.699L46.8765 127.16C47.2366 126.633 47.6518 126.176 48.1223 125.788C48.591 125.39 49.0941 125.064 49.6316 124.808C50.169 124.553 50.7292 124.368 51.312 124.254C51.8948 124.139 52.484 124.097 53.0795 124.125C52.833 123.586 52.6572 123.024 52.552 122.44C52.4468 121.855 52.4158 121.266 52.4588 120.673C52.5018 120.079 52.6215 119.494 52.8178 118.919C53.0124 118.334 53.2898 117.779 53.6498 117.252L55.3914 114.704L66.9521 122.607L65.8223 124.26L55.9142 117.487L55.3025 118.382C54.913 118.951 54.6576 119.561 54.5363 120.212C54.4096 120.859 54.4058 121.499 54.5248 122.132C54.6421 122.757 54.8754 123.35 55.2246 123.912C55.5775 124.469 56.0387 124.942 56.6084 125.331L62.3888 129.283Z" fill="#12A5A5"/>
<path d="M80.2855 105.828L71.0571 116.99L60.2644 108.066L69.4928 96.9048L71.0357 98.1805L63.083 107.799L70.7899 114.171L78.7426 104.553L80.2855 105.828ZM74.5816 103.317L68.3464 110.858L66.8035 109.583L73.0387 102.041L74.5816 103.317Z" fill="#12A5A5"/>
<path d="M95.0412 91.194C91.8918 94.209 86.8722 94.1137 83.8433 90.9498C80.8144 87.7859 80.938 82.767 84.0875 79.7519C87.2514 76.723 92.2565 76.8322 95.2854 79.9961C98.3143 83.16 98.2051 88.1651 95.0412 91.194ZM94.0869 90.1971C96.7018 87.6938 96.7919 83.5653 94.2885 80.9504C91.7852 78.3355 87.6567 78.2454 85.0418 80.7488C82.4269 83.2521 82.3368 87.3806 84.8402 89.9955C87.3435 92.6104 91.472 92.7005 94.0869 90.1971ZM93.4231 89.5037C91.1838 91.6474 87.6773 91.571 85.5336 89.3317C83.3899 87.0924 83.4663 83.586 85.7056 81.4422C87.9449 79.2985 91.4658 79.3611 93.6095 81.6004C95.7533 83.8397 95.6624 87.36 93.4231 89.5037ZM92.4688 88.5068C94.1591 86.8887 94.2308 84.245 92.6127 82.5547C90.9945 80.8644 88.3502 80.8209 86.6599 82.4391C84.9696 84.0572 84.9123 86.6871 86.5305 88.3774C88.1486 90.0677 90.7784 90.125 92.4688 88.5068Z" fill="#12A5A5"/>
<path d="M123.779 59.9552C124.191 60.5171 124.47 61.1237 124.617 61.7751C124.768 62.4226 124.795 63.0648 124.697 63.7018C124.599 64.3388 124.382 64.9458 124.046 65.5229C123.707 66.0948 123.256 66.5866 122.694 66.9984C122.358 67.2448 122.005 67.4467 121.636 67.6041C121.269 67.7524 120.896 67.8603 120.518 67.9278C120.135 67.99 119.75 68.0099 119.363 67.9874C118.98 67.9611 118.604 67.8938 118.234 67.7856C118.223 68.5524 118.044 69.2888 117.698 69.9947C117.348 70.6953 116.837 71.2919 116.165 71.7846C115.603 72.1965 114.998 72.4783 114.351 72.63C113.699 72.7765 113.055 72.8007 112.418 72.7026C111.781 72.6045 111.174 72.3875 110.597 72.0518C110.025 71.7121 109.533 71.2614 109.121 70.6996L103.821 63.4692L105.428 62.2914L110.728 69.5218C110.978 69.8631 111.276 70.1372 111.622 70.3441C111.968 70.5419 112.333 70.6703 112.715 70.7292C113.102 70.7842 113.491 70.7696 113.882 70.6853C114.273 70.5919 114.64 70.4202 114.981 70.17C115.312 69.9275 115.577 69.64 115.778 69.3076C115.983 68.9713 116.117 68.6192 116.178 68.2513C116.244 67.8797 116.239 67.5039 116.163 67.1242C116.088 66.7353 115.939 66.3723 115.716 66.0352L115.635 65.9249L110.335 58.6946L111.965 57.4995L117.265 64.7298C117.516 65.0711 117.813 65.3453 118.159 65.5522C118.506 65.75 118.87 65.8784 119.252 65.9372C119.634 65.9961 120.021 65.9834 120.411 65.8991C120.803 65.8058 121.169 65.634 121.51 65.3838C121.846 65.1375 122.118 64.8416 122.325 64.4962C122.528 64.1455 122.659 63.7791 122.718 63.3969C122.782 63.0109 122.769 62.6247 122.68 62.2382C122.592 61.8427 122.422 61.4743 122.172 61.133L116.872 53.9026L118.479 52.7248L123.779 59.9552Z" fill="#12A5A5"/>
<path d="M145.035 52.5146L132.621 59.9723L125.409 47.9678L137.824 40.5101L138.855 42.2263L128.157 48.653L133.306 57.2252L144.005 50.7985L145.035 52.5146ZM140.491 48.2496L132.103 53.2884L131.072 51.5723L139.46 46.5335L140.491 48.2496Z" fill="#12A5A5"/>
<path d="M161.73 43.8001L149.762 49.7804L143.503 37.2534L145.293 36.3585L150.658 47.0947L160.835 42.0093L161.73 43.8001Z" fill="#12A5A5"/>
<path d="M180.346 35.8787L171.98 39.2342C171.08 39.5953 170.193 39.7546 169.32 39.7119C168.447 39.6692 167.63 39.4602 166.87 39.0849C166.115 38.7072 165.437 38.1796 164.835 37.5019C164.234 36.8242 163.752 36.0353 163.391 35.1349C163.033 34.2406 162.838 33.3438 162.807 32.4443C162.773 31.5389 162.899 30.6889 163.183 29.8943C163.471 29.0913 163.916 28.3727 164.518 27.7387C165.117 27.0986 165.866 26.598 166.767 26.2369L175.133 22.8813L175.878 24.7394L167.512 28.0949C166.872 28.3518 166.344 28.7071 165.93 29.1609C165.519 29.6062 165.221 30.1118 165.034 30.6778C164.85 31.2353 164.775 31.8338 164.807 32.4733C164.845 33.1104 164.992 33.7492 165.249 34.3897C165.506 35.0302 165.842 35.5968 166.257 36.0897C166.676 36.5741 167.146 36.9575 167.666 37.2399C168.189 37.5138 168.754 37.6699 169.358 37.708C169.969 37.7437 170.594 37.6331 171.235 37.3762L179.601 34.0207L180.346 35.8787Z" fill="#12A5A5"/>
<path d="M200.321 22.0045C200.6 22.9337 200.715 23.8507 200.667 24.7555C200.618 25.6603 200.413 26.4965 200.052 27.264C199.697 28.0297 199.195 28.7002 198.545 29.2756C197.895 29.8509 197.108 30.2769 196.185 30.5535L191.723 31.8907C190.794 32.1691 189.897 32.2477 189.031 32.1265C188.166 32.0053 187.371 31.7235 186.647 31.2811C185.929 30.8369 185.302 30.2502 184.764 29.5211C184.226 28.792 183.818 27.9628 183.539 27.0336C183.262 26.1106 183.149 25.1998 183.199 24.3012C183.248 23.3964 183.449 22.5612 183.804 21.7955C184.164 21.0218 184.672 20.3463 185.328 19.769C185.982 19.1856 186.774 18.7546 187.703 18.4761L192.165 17.139C193.088 16.8624 193.98 16.7888 194.842 16.9181C195.701 17.0412 196.49 17.328 197.21 17.7784C197.933 18.2208 198.564 18.8065 199.102 19.5356C199.638 20.2585 200.045 21.0815 200.321 22.0045ZM198.404 22.5792C198.205 21.9181 197.923 21.3265 197.556 20.8045C197.189 20.2824 196.757 19.8614 196.26 19.5413C195.767 19.2132 195.222 19.0029 194.623 18.9104C194.029 18.8098 193.401 18.8586 192.74 19.0567L188.278 20.3938C187.617 20.5919 187.06 20.8983 186.606 21.3128C186.157 21.7192 185.814 22.1959 185.577 22.7427C185.344 23.2814 185.215 23.8706 185.189 24.5104C185.169 25.1483 185.259 25.7978 185.457 26.4589C185.655 27.12 185.938 27.7146 186.307 28.2429C186.681 28.7631 187.114 29.1873 187.606 29.5154C188.103 29.8355 188.651 30.0417 189.25 30.1342C189.854 30.2248 190.487 30.1711 191.148 29.973L195.611 28.6358C196.272 28.4377 196.824 28.1364 197.266 27.7318C197.716 27.3254 198.057 26.8528 198.289 26.3141C198.526 25.7673 198.655 25.1749 198.674 24.537C198.692 23.8928 198.602 23.2402 198.404 22.5792Z" fill="#12A5A5"/>
<path d="M218.619 24.9079L216.654 25.2905L215.316 18.4176C215.184 17.7402 214.933 17.1292 214.561 16.5847C214.19 16.0402 213.738 15.591 213.204 15.2371C212.676 14.8756 212.087 14.6256 211.437 14.4869C210.791 14.3406 210.13 14.3334 209.453 14.4653L208.398 14.6706L210.692 26.4513L208.727 26.8339L206.051 13.0881L209.07 12.5002C209.696 12.3783 210.313 12.3444 210.921 12.3986C211.533 12.4451 212.121 12.5662 212.683 12.7619C213.245 12.9576 213.773 13.2195 214.268 13.5476C214.763 13.8757 215.213 14.2591 215.617 14.6978C215.82 14.1409 216.089 13.6175 216.425 13.1276C216.761 12.6378 217.153 12.1967 217.6 11.8045C218.048 11.4122 218.544 11.0802 219.088 10.8085C219.637 10.5291 220.225 10.3285 220.851 10.2065L223.88 9.61677L226.556 23.3626L224.591 23.7452L222.297 11.9644L221.233 12.1716C220.556 12.3035 219.946 12.5583 219.402 12.936C218.858 13.3073 218.405 13.7602 218.045 14.2946C217.69 14.8214 217.439 15.4075 217.293 16.0528C217.153 16.6969 217.149 17.3576 217.281 18.035L218.619 24.9079Z" fill="#12A5A5"/>
<path d="M247.958 20.7441L233.548 22.1935L232.147 8.25986L246.557 6.81048L246.757 8.80238L234.339 10.0514L235.34 20.0012L247.758 18.7522L247.958 20.7441ZM245.667 14.9481L235.931 15.9274L235.731 13.9355L245.467 12.9562L245.667 14.9481Z" fill="#12A5A5"/>
<path d="M271.612 20.6956C267.253 20.5946 263.776 16.9731 263.878 12.5943C263.979 8.21548 267.62 4.75887 271.979 4.85984C276.358 4.96126 279.815 8.58229 279.713 12.9611C279.612 17.3399 275.991 20.797 271.612 20.6956ZM271.644 19.316C275.263 19.3998 278.25 16.5482 278.334 12.9292C278.418 9.31013 275.566 6.32329 271.947 6.23947C268.328 6.15564 265.341 9.00724 265.257 12.6263C265.173 16.2453 268.025 19.2321 271.644 19.316ZM271.666 18.3562C268.567 18.2844 266.145 15.7477 266.217 12.6485C266.289 9.54933 268.826 7.12742 271.925 7.19921C275.024 7.27099 277.466 9.80822 277.394 12.9074C277.322 16.0066 274.765 18.428 271.666 18.3562ZM271.698 16.9766C274.038 17.0308 275.96 15.2148 276.014 12.8754C276.069 10.5361 274.232 8.63303 271.893 8.57884C269.553 8.52465 267.651 10.3411 267.597 12.6805C267.542 15.0198 269.359 16.9224 271.698 16.9766Z" fill="#12A5A5"/>
<path d="M312.26 18.7411C312.156 19.4299 311.926 20.0568 311.57 20.622C311.221 21.1881 310.787 21.6624 310.268 22.0448C309.75 22.4272 309.168 22.7046 308.523 22.8769C307.879 23.0429 307.212 23.0737 306.524 22.9695C306.112 22.9071 305.719 22.8017 305.347 22.6531C304.981 22.4991 304.641 22.3126 304.325 22.0936C304.01 21.8682 303.723 21.6107 303.464 21.3213C303.212 21.0329 302.992 20.7198 302.806 20.3822C302.258 20.9182 301.612 21.3142 300.868 21.5705C300.126 21.8203 299.343 21.8829 298.519 21.7582C297.83 21.654 297.203 21.4273 296.637 21.0783C296.071 20.7228 295.598 20.2856 295.215 19.7669C294.833 19.2481 294.555 18.6662 294.383 18.0211C294.217 17.3771 294.186 16.7107 294.291 16.0219L295.632 7.15796L297.602 7.45604L296.26 16.32C296.197 16.7384 296.215 17.1427 296.314 17.533C296.42 17.9179 296.588 18.2659 296.818 18.5772C297.053 18.8894 297.339 19.1533 297.676 19.3688C298.019 19.5788 298.4 19.7154 298.818 19.7788C299.224 19.8401 299.615 19.8236 299.991 19.7291C300.374 19.6356 300.717 19.4801 301.02 19.2625C301.329 19.046 301.591 18.776 301.804 18.4528C302.025 18.1241 302.176 17.7616 302.255 17.3654L302.276 17.2303L303.617 8.36633L305.616 8.66879L304.275 17.5327C304.211 17.9511 304.229 18.3555 304.328 18.7458C304.434 19.1306 304.602 19.4787 304.832 19.7899C305.061 20.1012 305.344 20.3646 305.68 20.5801C306.024 20.7901 306.405 20.9267 306.823 20.9901C307.235 21.0524 307.636 21.0341 308.026 20.9351C308.418 20.8297 308.769 20.6623 309.08 20.4328C309.398 20.2044 309.661 19.9216 309.87 19.5845C310.087 19.2419 310.227 18.8614 310.29 18.443L311.631 9.57909L313.601 9.87717L312.26 18.7411Z" fill="#12A5A5"/>
<path d="M332.335 28.3729L318.274 24.9043L321.628 11.308L335.689 14.7765L335.209 16.7202L323.092 13.7312L320.697 23.4401L332.814 26.4292L332.335 28.3729ZM332.121 22.1443L322.621 19.8008L323.1 17.8571L332.6 20.2006L332.121 22.1443Z" fill="#12A5A5"/>
<path d="M351.038 34.188L338.344 29.9622L342.767 16.6752L344.666 17.3075L340.875 28.695L351.67 32.2885L351.038 34.188Z" fill="#12A5A5"/>
<path d="M370.031 41.8343L361.742 38.292C360.85 37.9108 360.111 37.3965 359.524 36.7491C358.937 36.1017 358.507 35.3764 358.234 34.5731C357.967 33.7724 357.861 32.9198 357.915 32.0153C357.968 31.1108 358.186 30.2125 358.567 29.3205C358.946 28.4345 359.442 27.6625 360.056 27.0045C360.673 26.3405 361.362 25.8281 362.126 25.4675C362.897 25.1034 363.72 24.9098 364.593 24.8867C365.47 24.8576 366.354 25.0336 367.246 25.4148L375.534 28.9571L374.747 30.798L366.459 27.2557C365.824 26.9845 365.2 26.8629 364.586 26.8909C363.981 26.9154 363.412 27.0618 362.88 27.3299C362.356 27.5946 361.88 27.9643 361.45 28.4392C361.027 28.9167 360.679 29.4727 360.408 30.1073C360.137 30.7418 359.974 31.3802 359.919 32.0222C359.873 32.6608 359.933 33.2639 360.102 33.8313C360.278 34.3954 360.567 34.9046 360.967 35.3589C361.374 35.8159 361.894 36.18 362.529 36.4512L370.817 39.9934L370.031 41.8343Z" fill="#12A5A5"/>
<path d="M393.631 45.9643C393.172 46.8189 392.606 47.5494 391.933 48.1559C391.26 48.7623 390.524 49.2097 389.726 49.4979C388.934 49.7892 388.105 49.9091 387.238 49.8574C386.372 49.8057 385.514 49.5519 384.666 49.0958L380.562 46.8912C379.708 46.4321 379.017 45.854 378.49 45.1569C377.962 44.4598 377.599 43.6991 377.399 42.8747C377.204 42.0534 377.174 41.1947 377.308 40.2986C377.443 39.4025 377.739 38.5272 378.198 37.6726C378.654 36.8239 379.217 36.0991 379.887 35.4983C380.561 34.8919 381.293 34.443 382.085 34.1517C382.886 33.8577 383.723 33.7381 384.595 33.7928C385.47 33.8418 386.335 34.0959 387.19 34.555L391.293 36.7597C392.142 37.2157 392.826 37.7936 393.344 38.4933C393.865 39.1873 394.222 39.9478 394.413 40.7748C394.613 41.5992 394.646 42.4595 394.512 43.3556C394.381 44.246 394.087 45.1155 393.631 45.9643ZM391.868 45.0169C392.194 44.4089 392.412 43.7905 392.521 43.1616C392.63 42.5328 392.621 41.9296 392.495 41.352C392.378 40.7719 392.141 40.2377 391.782 39.7494C391.433 39.2586 390.954 38.8498 390.346 38.5232L386.242 36.3186C385.634 35.9919 385.024 35.8152 384.41 35.7885C383.805 35.7591 383.225 35.8542 382.671 36.0738C382.126 36.2908 381.618 36.6167 381.148 37.0515C380.684 37.4893 380.288 38.0122 379.962 38.6201C379.635 39.2281 379.416 39.8493 379.304 40.4839C379.201 41.1159 379.208 41.722 379.325 42.3021C379.451 42.8797 379.693 43.4125 380.051 43.9008C380.416 44.3921 380.902 44.801 381.51 45.1277L385.613 47.3323C386.221 47.6589 386.825 47.8354 387.424 47.8617C388.029 47.8912 388.604 47.7974 389.149 47.5804C389.703 47.3607 390.212 47.0319 390.677 46.5941C391.144 46.1505 391.541 45.6248 391.868 45.0169Z" fill="#12A5A5"/>
<path d="M405.003 61.2381L403.342 60.1204L407.251 54.3112C407.637 53.7387 407.89 53.1286 408.012 52.4809C408.134 51.8332 408.132 51.1957 408.004 50.5686C407.886 49.9397 407.646 49.3464 407.283 48.7887C406.93 48.2292 406.467 47.7568 405.895 47.3716L405.003 46.7718L398.303 56.7292L396.642 55.6116L404.46 43.9933L407.012 45.7107C407.542 46.0669 408.002 46.4787 408.394 46.9463C408.794 47.4121 409.124 47.9128 409.384 48.4484C409.643 48.984 409.832 49.5428 409.951 50.1247C410.069 50.7066 410.116 51.2955 410.092 51.8913C410.63 51.6408 411.19 51.4608 411.774 51.3514C412.358 51.242 412.946 51.2066 413.54 51.2453C414.134 51.284 414.72 51.3993 415.297 51.5914C415.883 51.7818 416.44 52.055 416.97 52.4112L419.53 54.1341L411.712 65.7524L410.051 64.6347L416.751 54.6773L415.852 54.0721C415.279 53.6868 414.667 53.4359 414.016 53.3194C413.368 53.1974 412.728 53.1982 412.096 53.3219C411.472 53.4438 410.881 53.6814 410.321 54.0347C409.767 54.3916 409.298 54.8564 408.912 55.4289L405.003 61.2381Z" fill="#12A5A5"/>
<path d="M428.611 78.9533L417.383 69.8065L426.227 58.9491L437.456 68.096L436.191 69.6481L426.515 61.7657L420.199 69.5188L429.876 77.4012L428.611 78.9533ZM431.081 73.2313L423.494 67.0512L424.759 65.4991L432.345 71.6792L431.081 73.2313Z" fill="#12A5A5"/>
<path d="M444.513 94.75C441.486 91.6115 441.563 86.5916 444.716 83.5512C447.869 80.5109 452.888 80.6162 455.915 83.7547C458.955 86.9076 458.864 91.9131 455.711 94.9534C452.558 97.9938 447.553 97.9028 444.513 94.75ZM445.506 93.7921C448.019 96.3979 452.148 96.4729 454.753 93.9601C457.359 91.4473 457.434 87.3184 454.921 84.7126C452.409 82.1068 448.28 82.0318 445.674 84.5446C443.068 87.0574 442.993 91.1862 445.506 93.7921ZM446.197 93.1257C444.045 90.8942 444.109 87.3875 446.34 85.2357C448.572 83.0838 452.078 83.1475 454.23 85.379C456.382 87.6105 456.332 91.1316 454.101 93.2834C451.869 95.4353 448.349 95.3572 446.197 93.1257ZM447.19 92.1678C448.815 93.8522 451.459 93.9143 453.143 92.29C454.827 90.6657 454.861 88.0213 453.237 86.3369C451.613 84.6525 448.983 84.6047 447.298 86.229C445.614 87.8533 445.566 90.4833 447.19 92.1678Z" fill="#12A5A5"/>
<path d="M474.925 122.184C474.366 122.599 473.761 122.883 473.111 123.034C472.465 123.191 471.823 123.222 471.185 123.129C470.547 123.035 469.939 122.823 469.359 122.491C468.785 122.156 468.29 121.709 467.874 121.15C467.625 120.816 467.421 120.465 467.26 120.097C467.109 119.73 466.999 119.358 466.929 118.98C466.864 118.599 466.841 118.214 466.861 117.826C466.884 117.443 466.949 117.066 467.054 116.696C466.287 116.69 465.55 116.517 464.841 116.176C464.138 115.831 463.538 115.324 463.04 114.656C462.624 114.097 462.338 113.494 462.181 112.848C462.03 112.198 462.001 111.554 462.095 110.916C462.188 110.278 462.401 109.67 462.732 109.09C463.068 108.516 463.515 108.021 464.074 107.605L471.265 102.252L472.455 103.85L465.263 109.203C464.924 109.455 464.652 109.755 464.447 110.102C464.252 110.45 464.126 110.816 464.07 111.198C464.018 111.586 464.036 111.975 464.123 112.365C464.219 112.756 464.393 113.121 464.646 113.46C464.891 113.789 465.18 114.053 465.514 114.251C465.852 114.454 466.205 114.585 466.573 114.643C466.945 114.707 467.321 114.699 467.7 114.62C468.089 114.542 468.451 114.39 468.786 114.165L468.896 114.083L476.087 108.731L477.294 110.352L470.103 115.705C469.763 115.958 469.491 116.257 469.287 116.604C469.092 116.953 468.966 117.318 468.91 117.701C468.854 118.083 468.869 118.469 468.956 118.859C469.053 119.25 469.227 119.615 469.48 119.955C469.728 120.289 470.026 120.558 470.373 120.763C470.725 120.963 471.093 121.091 471.475 121.147C471.862 121.209 472.248 121.193 472.634 121.101C473.029 121.01 473.396 120.838 473.735 120.585L480.927 115.233L482.116 116.831L474.925 122.184Z" fill="#12A5A5"/>
<path d="M482.572 143.451L475.023 131.092L486.974 123.793L494.523 136.152L492.814 137.196L486.309 126.545L477.775 131.757L484.28 142.408L482.572 143.451ZM486.803 138.876L481.703 130.525L483.411 129.482L488.512 137.832L486.803 138.876Z" fill="#12A5A5"/>
<path d="M492.073 161.437L486.049 149.492L498.553 143.186L499.454 144.973L488.738 150.378L493.861 160.536L492.073 161.437Z" fill="#12A5A5"/>
<path d="M499.502 178.719L496.084 170.379C495.716 169.481 495.55 168.596 495.587 167.723C495.623 166.849 495.826 166.031 496.195 165.267C496.567 164.51 497.09 163.828 497.763 163.221C498.436 162.615 499.221 162.128 500.119 161.76C501.011 161.394 501.906 161.193 502.805 161.155C503.71 161.115 504.561 161.234 505.358 161.512C506.163 161.795 506.885 162.234 507.524 162.831C508.168 163.425 508.674 164.171 509.042 165.069L512.46 173.409L510.608 174.168L507.19 165.828C506.928 165.189 506.569 164.664 506.112 164.254C505.664 163.846 505.156 163.551 504.588 163.369C504.03 163.19 503.43 163.119 502.791 163.155C502.154 163.198 501.517 163.35 500.878 163.612C500.24 163.874 499.676 164.214 499.186 164.633C498.705 165.055 498.325 165.528 498.046 166.05C497.776 166.576 497.624 167.141 497.591 167.746C497.56 168.356 497.675 168.981 497.937 169.62L501.355 177.96L499.502 178.719Z" fill="#12A5A5"/>
<path d="M513.56 198.732C512.633 199.017 511.716 199.139 510.811 199.098C509.906 199.056 509.068 198.858 508.298 198.503C507.53 198.153 506.856 197.656 506.275 197.01C505.695 196.365 505.263 195.582 504.98 194.661L503.609 190.209C503.323 189.282 503.238 188.385 503.353 187.518C503.467 186.652 503.743 185.855 504.18 185.128C504.619 184.407 505.201 183.775 505.926 183.232C506.651 182.688 507.477 182.274 508.404 181.988C509.325 181.705 510.235 181.585 511.134 181.628C512.039 181.669 512.875 181.865 513.644 182.214C514.42 182.568 515.1 183.07 515.682 183.722C516.27 184.372 516.707 185.16 516.993 186.087L518.363 190.539C518.647 191.46 518.727 192.352 518.604 193.214C518.488 194.074 518.207 194.866 517.762 195.588C517.325 196.316 516.744 196.951 516.019 197.494C515.3 198.036 514.481 198.448 513.56 198.732ZM512.971 196.819C513.63 196.616 514.219 196.328 514.739 195.957C515.258 195.586 515.676 195.151 515.992 194.652C516.316 194.157 516.523 193.61 516.611 193.01C516.707 192.415 516.653 191.788 516.45 191.129L515.079 186.677C514.876 186.017 514.566 185.462 514.148 185.012C513.738 184.566 513.259 184.226 512.71 183.993C512.17 183.765 511.579 183.64 510.939 183.619C510.301 183.604 509.653 183.698 508.993 183.902C508.333 184.105 507.741 184.393 507.215 184.766C506.698 185.143 506.277 185.579 505.953 186.074C505.637 186.573 505.434 187.123 505.346 187.722C505.26 188.327 505.319 188.96 505.522 189.62L506.893 194.071C507.096 194.731 507.402 195.281 507.809 195.72C508.219 196.167 508.694 196.504 509.235 196.733C509.783 196.966 510.377 197.089 511.015 197.104C511.659 197.117 512.311 197.022 512.971 196.819Z" fill="#12A5A5"/>
<path d="M510.776 217.093L510.378 215.131L517.241 213.74C517.917 213.603 518.526 213.347 519.068 212.972C519.61 212.596 520.055 212.14 520.405 211.605C520.763 211.074 521.008 210.483 521.142 209.831C521.283 209.185 521.285 208.523 521.148 207.847L520.935 206.794L509.172 209.178L508.774 207.216L522.499 204.434L523.11 207.449C523.237 208.075 523.276 208.691 523.226 209.299C523.184 209.912 523.068 210.5 522.876 211.064C522.685 211.627 522.427 212.158 522.103 212.655C521.778 213.153 521.398 213.605 520.963 214.012C521.521 214.211 522.047 214.477 522.539 214.809C523.032 215.141 523.476 215.529 523.871 215.974C524.267 216.418 524.603 216.912 524.879 217.454C525.162 218.001 525.367 218.587 525.494 219.212L526.107 222.237L512.382 225.018L511.984 223.056L523.747 220.672L523.532 219.61C523.395 218.933 523.135 218.325 522.754 217.785C522.378 217.243 521.922 216.794 521.385 216.438C520.855 216.087 520.267 215.841 519.621 215.699C518.976 215.564 518.315 215.565 517.638 215.702L510.776 217.093Z" fill="#12A5A5"/>
<path d="M515.144 246.5L513.584 232.102L527.506 230.593L529.066 244.991L527.076 245.207L525.732 232.799L515.79 233.876L517.134 246.284L515.144 246.5ZM520.922 244.164L519.868 234.436L521.858 234.221L522.912 243.949L520.922 244.164Z" fill="#12A5A5"/>
</svg>
