<svg width="44" height="40" viewBox="0 0 44 40" fill="none" xmlns="http://www.w3.org/2000/svg">
<path d="M38.6674 7.14657L38.667 7.14699L9.83069 35.9833L9.82938 35.9846C9.61984 36.1952 9.37071 36.3622 9.09633 36.4761C8.82216 36.5899 8.52821 36.6484 8.23136 36.6482C7.78382 36.6461 7.34685 36.5119 6.97527 36.2624C6.60325 36.0126 6.3134 35.6583 6.14217 35.2442C5.97093 34.8301 5.92594 34.3746 6.01287 33.9351C6.09974 33.4958 6.31446 33.092 6.63005 32.7743C6.63028 32.7741 6.6305 32.7739 6.63073 32.7736L35.4651 3.93924C35.6757 3.72898 35.9257 3.56225 36.2007 3.44858C36.4757 3.33492 36.7704 3.27653 37.068 3.27676C37.3656 3.277 37.6603 3.33585 37.9351 3.44995C38.21 3.56405 38.4597 3.73116 38.6699 3.94176C38.8802 4.15235 39.0469 4.4023 39.1606 4.67734C39.2743 4.95237 39.3326 5.24709 39.3324 5.54469C39.3322 5.84228 39.2733 6.13691 39.1592 6.41177C39.0451 6.68662 38.878 6.9363 38.6674 7.14657Z" stroke="#12a5a5" stroke-width="1.5"/>
<path d="M9.50872 17.235L1.67652 11.3994C1.67631 11.3992 1.6761 11.3991 1.67588 11.3989C1.39357 11.1874 1.1644 10.913 1.00651 10.5975C0.848502 10.2818 0.766235 9.93357 0.766235 9.58052C0.766235 9.22747 0.848502 8.87927 1.00651 8.56354C1.1644 8.24806 1.39357 7.97367 1.67588 7.76211C1.6761 7.76195 1.67631 7.76179 1.67652 7.76163L9.50905 1.92576L9.50908 1.92574C9.7478 1.74786 10.0192 1.61874 10.3078 1.54575C10.5965 1.47276 10.8966 1.45734 11.1912 1.50036C11.4858 1.54337 11.769 1.64399 12.0247 1.79647C12.2804 1.94894 12.5036 2.15029 12.6815 2.38901C12.8593 2.62773 12.9885 2.89915 13.0615 3.18777C13.1344 3.47639 13.1499 3.77656 13.1068 4.07114C13.0638 4.36573 12.9632 4.64895 12.8107 4.90465C12.6583 5.16035 12.4569 5.38351 12.2182 5.56139L7.62795 8.97894L6.81995 9.58052L7.62795 10.1821L12.2184 13.5998L12.2186 13.5999C12.6007 13.8843 12.8835 14.282 13.0267 14.7363C13.17 15.1907 13.1663 15.6786 13.0163 16.1308C12.8664 16.5829 12.5777 16.9763 12.1913 17.255C11.805 17.5337 11.3406 17.6835 10.8642 17.6831H10.8631C10.3751 17.6835 9.90014 17.5263 9.50872 17.235Z" stroke="#12a5a5" stroke-width="1.5"/>
<path d="M31.7977 34.6559L31.7982 34.6555L36.382 31.2377L37.1884 30.6365L36.382 30.0352L31.7982 26.6175L31.7916 26.6126L31.7849 26.6078C31.5394 26.4329 31.3312 26.2108 31.1725 25.9544C31.0139 25.6981 30.908 25.4126 30.8611 25.1148C30.8142 24.817 30.8272 24.5128 30.8993 24.2201C30.9715 23.9274 31.1013 23.652 31.2812 23.4101C31.4611 23.1682 31.6875 22.9647 31.9471 22.8114C32.2067 22.6581 32.4943 22.5581 32.793 22.5174C33.0917 22.4767 33.3955 22.4959 33.6867 22.5741C33.9779 22.6523 34.2505 22.7878 34.4886 22.9727L34.4946 22.9774L34.5007 22.9819L42.3397 28.8176C42.3399 28.8178 42.3402 28.8179 42.3404 28.8181C42.6227 29.0297 42.8518 29.304 43.0097 29.6195C43.1677 29.9352 43.25 30.2834 43.25 30.6365C43.25 30.9895 43.1677 31.3377 43.0097 31.6534C42.8518 31.9689 42.6227 32.2433 42.3403 32.4549C42.3401 32.455 42.3399 32.4552 42.3397 32.4553L34.5007 38.291L34.5004 38.2913C34.1108 38.5817 33.6379 38.7387 33.152 38.7391C32.6756 38.7394 32.2113 38.5896 31.8249 38.3109C31.4385 38.0322 31.1499 37.6389 30.9999 37.1867C30.8499 36.7345 30.8463 36.2466 30.9895 35.7923C31.1327 35.3379 31.4155 34.9403 31.7977 34.6559Z" stroke="#12a5a5" stroke-width="1.5"/>
</svg>
