<svg width="36" height="38" viewBox="0 0 36 38" fill="none" xmlns="http://www.w3.org/2000/svg">
<path d="M4.50723 29.25H5.25723V28.5V24.7V23.95H4.50723H2.5797C1.91915 23.95 1.40216 23.425 1.40216 22.8C1.40216 22.175 1.91915 21.65 2.5797 21.65H4.50723H5.25723V20.9V17.1V16.35H4.50723H2.5797C1.91915 16.35 1.40216 15.825 1.40216 15.2C1.40216 14.575 1.91915 14.05 2.5797 14.05H4.50723H5.25723V13.3V9.5V8.75H4.50723H2.5797C1.91915 8.75 1.40216 8.22499 1.40216 7.6C1.40216 6.97501 1.91915 6.45 2.5797 6.45H4.50723H5.25723V5.7V3.8C5.25723 2.12567 6.63721 0.75 8.36231 0.75H31.4927C33.2178 0.75 34.5978 2.12567 34.5978 3.8V34.2C34.5978 35.8743 33.2178 37.25 31.4927 37.25H8.36231C6.63721 37.25 5.25723 35.8743 5.25723 34.2V32.3V31.55H4.50723H2.5797C1.91915 31.55 1.40216 31.025 1.40216 30.4C1.40216 29.775 1.91915 29.25 2.5797 29.25H4.50723Z" stroke="#12a5a5" stroke-width="1.5"/>
<rect x="8.67172" y="4.05435" width="22.4565" height="29.8913" rx="1.25" stroke="#12a5a5" stroke-width="1.5"/>
<path d="M25.8343 24.6915C25.1021 25.3029 24.2063 25.6085 23.147 25.6085H17.282C16.1018 25.6157 15.2381 25.3384 14.6907 24.7768C14.1433 24.2152 13.8696 23.3266 13.8696 22.111V16.7154C13.8696 15.4998 14.1433 14.6112 14.6907 14.0496C15.2381 13.4809 16.1018 13.2037 17.282 13.2179H22.8271C24.0357 13.2179 24.9101 13.4987 25.4504 14.0603C25.9907 14.6148 26.2609 15.5069 26.2609 16.7368V20.6821C26.2609 21.393 26.076 21.9155 25.7063 22.2496C25.3367 22.5837 24.7679 22.7508 24.0001 22.7508C23.5736 22.7508 23.211 22.6797 22.9124 22.5375C22.6138 22.3954 22.3721 22.1181 22.1873 21.7058C21.8816 22.1394 21.5119 22.4309 21.0783 22.5802C20.6517 22.7224 20.1754 22.7935 19.6493 22.7935H19.5C18.5118 22.7935 17.776 22.5553 17.2926 22.079C16.8163 21.6027 16.5782 20.8741 16.5782 19.8931V19.4026C16.5782 18.3789 16.8163 17.6289 17.2926 17.1526C17.7689 16.6763 18.4976 16.4382 19.4787 16.4382H20.3531C20.673 16.4382 20.9574 16.4808 21.2062 16.5661C21.4622 16.6443 21.6968 16.8292 21.91 17.1206C21.9882 16.8292 22.0771 16.6443 22.1766 16.5661C22.2833 16.4808 22.3935 16.4382 22.5072 16.4382C22.6992 16.4382 22.8698 16.5164 23.0191 16.6728C23.1755 16.8221 23.2537 16.9927 23.2537 17.1846V20.6821C23.2537 20.9594 23.2857 21.1264 23.3496 21.1833C23.4207 21.2331 23.6376 21.258 24.0001 21.258C24.3769 21.258 24.5973 21.226 24.6613 21.162C24.7324 21.098 24.7679 20.9381 24.7679 20.6821V16.7368C24.7679 16.1894 24.7146 15.77 24.608 15.4785C24.5013 15.187 24.3058 14.988 24.0215 14.8814C23.7442 14.7676 23.3461 14.7107 22.8271 14.7107H17.282C16.5142 14.6965 16.0023 14.8209 15.7464 15.084C15.4904 15.347 15.3625 15.8908 15.3625 16.7154V22.111C15.3625 22.9285 15.4904 23.4688 15.7464 23.7318C16.0023 23.9948 16.5142 24.1228 17.282 24.1157H23.147C23.5451 24.1157 23.8651 24.073 24.1068 23.9877C24.3556 23.9024 24.6115 23.7531 24.8746 23.5399C24.9883 23.4261 25.1447 23.3693 25.3438 23.3693C25.5499 23.3693 25.7241 23.4439 25.8663 23.5932C26.0156 23.7354 26.0902 23.9095 26.0902 24.1157C26.0902 24.3503 26.0049 24.5422 25.8343 24.6915ZM18.0711 19.8931C18.0711 20.4689 18.1635 20.8492 18.3483 21.034C18.5403 21.2117 18.9242 21.3006 19.5 21.3006H19.6493C20.3958 21.3006 20.9325 21.1833 21.2595 20.9487C21.5937 20.7141 21.7607 20.3622 21.7607 19.8931V19.4239C21.7607 18.7912 21.6719 18.386 21.4942 18.2083C21.3235 18.0235 20.9432 17.931 20.3531 17.931H19.4787C18.9029 17.931 18.5225 18.0235 18.3377 18.2083C18.1599 18.386 18.0711 18.7841 18.0711 19.4026V19.8931Z" stroke="#12a5a5"/>
</svg>
