<svg width="37" height="37" viewBox="0 0 37 37" fill="none" xmlns="http://www.w3.org/2000/svg">
<path d="M27.0466 5.01218C27.3413 4.08118 28.6587 4.08118 28.9534 5.01217L29.5263 6.82212C29.6245 7.13243 29.8676 7.37553 30.1779 7.47375L31.9878 8.04661C32.9188 8.34128 32.9188 9.65872 31.9878 9.95339L30.1779 10.5263C29.8676 10.6245 29.6245 10.8676 29.5263 11.1779L28.9534 12.9878C28.6587 13.9188 27.3413 13.9188 27.0466 12.9878L26.4737 11.1779C26.3755 10.8676 26.1324 10.6245 25.8221 10.5263L24.0122 9.95339C23.0812 9.65872 23.0812 8.34128 24.0122 8.04661L25.8221 7.47375C26.1324 7.37553 26.3755 7.13243 26.4737 6.82212L27.0466 5.01218Z" fill="#c5c900"/>
<path fill-rule="evenodd" clip-rule="evenodd" d="M36.6594 24.35C33.9781 31.7844 26.9094 36.7812 18.9875 36.7812C8.62812 36.7812 0.21875 28.4937 0.21875 18.2562C0.21875 9.60311 6.19062 2.16874 14.7219 0.218738C15.0875 0.0968628 15.575 0.218738 15.9406 0.584363C16.1844 0.949988 16.3062 1.43749 16.1844 1.80311C15.575 3.50936 15.2094 5.33749 15.2094 7.16561C15.2094 16.0625 22.5219 23.2531 31.5406 23.2531C32.7594 23.2531 34.1 23.1312 35.3187 22.7656C35.6844 22.6437 36.1719 22.7656 36.5375 23.1312C36.7812 23.4969 36.9031 23.9844 36.6594 24.35ZM9.53262 23.588C8.63192 23.0843 7.4565 23.4166 7.31567 24.4388C7.17644 25.4495 7.32596 26.5344 7.76674 27.6013C8.47927 29.326 9.89451 30.8625 11.7011 31.8727C13.5078 32.8828 15.5578 33.284 17.4002 32.9879C18.54 32.8048 19.5426 32.364 20.3307 31.7162C21.1279 31.0609 20.7954 29.8856 19.8947 29.382C19.2943 29.0462 18.541 29.2888 17.9931 29.7049C17.5352 30.0527 16.9677 30.2904 16.3283 30.3931C15.221 30.5711 13.989 30.33 12.9032 29.7229C11.8175 29.1158 10.9669 28.1924 10.5387 27.1559C10.2914 26.5573 10.1967 25.9494 10.2532 25.3771C10.3209 24.6925 10.1331 23.9237 9.53262 23.588ZM16.4534 22.0122C16.1587 21.0812 14.8413 21.0812 14.5466 22.0122L14.3344 22.6827C14.2362 22.9931 13.9931 23.2362 13.6827 23.3344L13.0122 23.5466C12.0812 23.8413 12.0812 25.1587 13.0122 25.4534L13.6827 25.6656C13.9931 25.7638 14.2362 26.0069 14.3344 26.3173L14.5466 26.9878C14.8413 27.9188 16.1587 27.9188 16.4534 26.9878L16.6656 26.3173C16.7638 26.0069 17.0069 25.7638 17.3173 25.6656L17.9878 25.4534C18.9188 25.1587 18.9188 23.8413 17.9878 23.5466L17.3173 23.3344C17.0069 23.2362 16.7638 22.9931 16.6656 22.6827L16.4534 22.0122Z" fill="#c5c900"/>
</svg>
