<svg width="40" height="30" viewBox="0 0 40 30" fill="none" xmlns="http://www.w3.org/2000/svg">
<path d="M33.2181 3.36479C33.2075 3.345 33.19 3.32949 33.1687 3.32104C30.705 2.22783 28.105 1.44828 25.4339 1.00191C25.4096 0.997549 25.3845 1.0007 25.3622 1.01091C25.3399 1.02112 25.3215 1.03787 25.3096 1.05879C24.9556 1.68022 24.6342 2.31853 24.3467 2.97129C21.4674 2.54859 18.5386 2.54859 15.6593 2.97129C15.3698 2.31688 15.0433 1.6784 14.6811 1.05879C14.6687 1.03833 14.6502 1.02196 14.628 1.01181C14.6059 1.00167 14.581 0.998219 14.5568 1.00191C11.8854 1.44735 9.28526 2.22695 6.82183 3.32111C6.80074 3.32975 6.78295 3.34451 6.77091 3.36336C1.84452 10.4783 0.495003 17.4182 1.15703 24.2722C1.15889 24.289 1.16423 24.3053 1.17272 24.3201C1.18122 24.3348 1.19269 24.3478 1.20647 24.3582C4.07506 26.4123 7.28361 27.9802 10.6952 28.995C10.7192 29.002 10.7449 29.0016 10.7687 28.9941C10.7925 28.9865 10.8134 28.9721 10.8285 28.9527C11.5613 27.9885 12.2105 26.9675 12.7697 25.9001C12.7774 25.8855 12.7818 25.8694 12.7826 25.853C12.7834 25.8366 12.7806 25.8202 12.7743 25.8049C12.7681 25.7896 12.7586 25.7758 12.7465 25.7643C12.7343 25.7529 12.7198 25.744 12.7038 25.7384C11.68 25.3595 10.6888 24.9028 9.73957 24.3725C9.72233 24.3627 9.70784 24.349 9.6974 24.3325C9.68696 24.316 9.68088 24.2972 9.6797 24.2779C9.67852 24.2586 9.68227 24.2393 9.69063 24.2218C9.69898 24.2042 9.71169 24.1889 9.72761 24.1772C9.92679 24.0329 10.1261 23.8827 10.3163 23.7311C10.3332 23.7176 10.3536 23.709 10.3753 23.7062C10.397 23.7034 10.4191 23.7064 10.4391 23.7151C16.658 26.4599 23.3908 26.4599 29.5361 23.7151C29.5561 23.7059 29.5784 23.7024 29.6004 23.705C29.6225 23.7075 29.6433 23.7161 29.6604 23.7297C29.8507 23.8813 30.0499 24.0329 30.2506 24.1772C30.2666 24.1887 30.2794 24.204 30.2879 24.2215C30.2964 24.239 30.3003 24.2582 30.2993 24.2776C30.2982 24.2969 30.2923 24.3156 30.282 24.3322C30.2717 24.3488 30.2573 24.3626 30.2401 24.3725C29.293 24.9073 28.3009 25.3637 27.2744 25.7369C27.2585 25.7428 27.244 25.7518 27.2319 25.7635C27.2199 25.7751 27.2105 25.7891 27.2044 25.8045C27.1983 25.8199 27.1956 25.8364 27.1965 25.8529C27.1975 25.8694 27.202 25.8854 27.2098 25.9001C27.7783 26.9616 28.4267 27.9813 29.1495 28.9511C29.1642 28.9709 29.1849 28.9859 29.2089 28.9937C29.2328 29.0016 29.2587 29.002 29.2828 28.9948C32.7005 27.9834 35.9147 26.4154 38.7869 24.3582C38.8008 24.3483 38.8125 24.3357 38.821 24.3211C38.8295 24.3065 38.8348 24.2903 38.8363 24.2737C39.6289 16.3497 37.5094 9.46662 33.2181 3.36479ZM13.6984 20.0988C11.8261 20.0988 10.2833 18.4371 10.2833 16.3964C10.2833 14.3556 11.7962 12.6938 13.6984 12.6938C15.6156 12.6938 17.1434 14.3701 17.1135 16.3963C17.1135 18.4371 15.6006 20.0988 13.6984 20.0988ZM26.3251 20.0988C24.4528 20.0988 22.91 18.4371 22.91 16.3964C22.91 14.3556 24.4229 12.6938 26.3251 12.6938C28.2423 12.6938 29.7701 14.3701 29.7402 16.3963C29.7402 18.4371 28.2423 20.0988 26.3251 20.0988Z" stroke="#12A5A5" stroke-width="2"/>
</svg>
