<svg width="48" height="48" viewBox="0 0 48 48" fill="none" xmlns="http://www.w3.org/2000/svg">
<path d="M24 0C17.6348 0 11.5303 2.52856 7.02944 7.02944C2.52856 11.5303 -1.90735e-06 17.6348 -1.90735e-06 24C-1.90735e-06 30.3652 2.52856 36.4697 7.02944 40.9706C11.5303 45.4714 17.6348 48 24 48C30.3652 48 36.4697 45.4714 40.9706 40.9706C45.4714 36.4697 48 30.3652 48 24C48 17.6348 45.4714 11.5303 40.9706 7.02944C36.4697 2.52856 30.3652 0 24 0ZM24 3.92C35.028 3.92 44 12.892 44 24C44.0051 28.2218 42.6795 32.3379 40.2114 35.7632C37.7433 39.1885 34.2584 41.7487 30.252 43.08C30.1923 43.089 30.1322 43.0956 30.072 43.1C29.26 43.14 28.956 42.584 28.956 42.1L28.984 38.684C34.544 39.896 35.72 35.988 35.72 35.988C36.628 33.668 37.94 33.052 37.94 33.052C39.756 31.804 37.804 31.828 37.804 31.828C36.344 31.932 35.388 32.98 34.972 33.548L34.74 33.9C32.956 36.968 30.06 36.084 28.92 35.572C28.736 34.272 28.224 33.388 27.652 32.884C32.092 32.376 36.76 30.652 36.76 22.956C36.76 20.764 35.98 18.972 34.7 17.564L34.82 17.224C35.076 16.412 35.428 14.592 34.504 12.248L34.344 12.22C33.848 12.156 32.152 12.168 29.004 14.308C27.3733 13.862 25.6906 13.6346 24 13.632C22.3 13.64 20.588 13.864 18.992 14.312C15.172 11.712 13.496 12.248 13.496 12.248C12.408 15.016 13.096 17.056 13.296 17.568C12.016 18.968 11.244 20.764 11.244 22.956C11.244 30.676 15.92 32.372 20.376 32.868C19.656 33.488 19.016 34.716 19.016 36.588L19.04 42.1C19.04 42.62 18.7 43.228 17.748 43.08C13.7416 41.7487 10.2567 39.1885 7.78859 35.7632C5.32052 32.3379 3.99485 28.2218 4 24C4 12.892 12.972 3.92 24 3.92Z" fill="#12A5A5"/>
</svg>
