<svg width="42" height="41" viewBox="0 0 42 41" fill="none" xmlns="http://www.w3.org/2000/svg">
<path fill-rule="evenodd" clip-rule="evenodd" d="M15.933 1.50272C14.0816 -0.117454 11.1744 1.05713 10.968 3.50873L10.8277 5.17534C10.6881 6.83404 9.22473 8.06194 7.56698 7.91141L5.90133 7.76016C3.45115 7.53767 1.78957 10.1968 3.06362 12.3014L3.92974 13.7322C4.79174 15.1562 4.32961 17.0097 2.89998 17.8623L1.46354 18.719C-0.649471 19.9792 -0.430749 23.1071 1.83708 24.0609L3.37877 24.7094C4.91315 25.3547 5.62875 27.1259 4.97331 28.656L4.31475 30.1934C3.34601 32.4549 5.36149 34.8569 7.75686 34.2955L9.38525 33.914C11.0059 33.5342 12.6259 34.5465 12.995 36.1696L13.3659 37.8005C13.9114 40.1995 16.9538 40.958 18.5618 39.0959L19.6549 37.8301C20.7428 36.5702 22.6484 36.437 23.9011 37.5332L25.1597 38.6346C27.0112 40.2547 29.9184 39.0802 30.1248 36.6286L30.2651 34.962C30.4047 33.3032 31.8681 32.0753 33.5258 32.2259L35.1915 32.3771C37.6416 32.5996 39.3032 29.9405 38.0292 27.8359L37.163 26.4051C36.301 24.9811 36.7632 23.1276 38.1928 22.2749L39.6292 21.4183C41.7422 20.1581 41.5235 17.0302 39.2557 16.0763L37.714 15.4279C36.1796 14.7826 35.464 13.0114 36.1195 11.4813L36.778 9.94389C37.7468 7.68238 35.7313 5.28043 33.3359 5.84175L31.7075 6.22334C30.0869 6.60312 28.4669 5.59082 28.0977 3.9677L27.7269 2.33683C27.1813 -0.0621812 24.1389 -0.820736 22.531 1.04134L21.4379 2.3072C20.35 3.56705 18.4443 3.70031 17.1917 2.60413L15.933 1.50272ZM17.9896 4.41942C18.529 8.17151 13.6859 10.1423 11.4522 7.0797C13.5661 10.2262 10.0577 14.1031 6.71638 12.313C9.98615 14.2308 8.50738 19.2459 4.72023 19.0829C8.49826 19.392 9.34195 24.5521 5.8591 26.0484C9.39711 24.6877 12.3961 28.9707 9.90741 31.83C12.5046 29.0689 17.065 31.6266 16.0633 35.2825C17.2054 31.668 22.4239 31.9937 23.1076 35.7222C22.5683 31.9701 27.4113 29.9993 29.6451 33.0619C27.5312 29.9154 31.0395 26.0385 34.3809 27.8286C31.1111 25.9108 32.5899 20.8957 36.377 21.0587C32.599 20.7496 31.7553 15.5895 35.2382 14.0932C31.7002 15.4539 28.7011 11.1709 31.1899 8.31161C28.5926 11.0727 24.0323 8.515 25.0339 4.85908C23.8919 8.4736 18.6734 8.1479 17.9896 4.41942Z" fill="#c5c900"/>
<path d="M26.3077 23.8634C27.3471 24.532 28.7621 24.2337 29.1608 23.064C29.7028 21.4741 29.8052 19.7502 29.4352 18.0772C28.9019 15.6661 27.4311 13.5581 25.3463 12.2171C23.2614 10.8761 20.7333 10.4119 18.3182 10.9266C16.6423 11.2837 15.1161 12.0918 13.8942 13.2443C12.9951 14.0922 13.3105 15.5034 14.3499 16.172V16.172C15.0428 16.6177 15.9558 16.3968 16.57 15.8476C17.2854 15.2079 18.1622 14.7583 19.1205 14.5541C20.5719 14.2448 22.0913 14.5238 23.3442 15.3297C24.5972 16.1356 25.4811 17.4025 25.8016 18.8515C26.0131 19.8081 25.9677 20.7925 25.6822 21.7087C25.4372 22.4953 25.6148 23.4177 26.3077 23.8634V23.8634Z" fill="#c5c900"/>
<path d="M18.1367 19.6483C18.4275 18.9599 19.4029 18.9599 19.6937 19.6483L20.2015 20.8501C20.2871 21.0528 20.4484 21.2141 20.6511 21.2998L21.853 21.8075C22.5413 22.0983 22.5413 23.0737 21.853 23.3645L20.6511 23.8722C20.4484 23.9579 20.2871 24.1192 20.2015 24.3219L19.6937 25.5237C19.4029 26.2121 18.4275 26.2121 18.1367 25.5237L17.629 24.3219C17.5434 24.1192 17.3821 23.9579 17.1794 23.8722L15.9775 23.3645C15.2892 23.0737 15.2892 22.0983 15.9775 21.8075L17.1794 21.2998C17.3821 21.2141 17.5434 21.0528 17.629 20.8501L18.1367 19.6483Z" fill="#c5c900"/>
</svg>
