<svg width="32" height="25" viewBox="0 0 32 25" fill="none" xmlns="http://www.w3.org/2000/svg">
<path d="M29.4995 1C29.6061 1 29.7095 1.01123 29.8089 1.03238C29.8016 1.08152 29.7829 1.14823 29.7441 1.2248C29.694 1.32375 29.6206 1.41828 29.5308 1.49323L16.6895 12.215C16.3186 12.5247 15.7793 12.5249 15.4082 12.2154L2.53098 1.47805C2.44022 1.40237 2.3663 1.30654 2.31618 1.20609C2.27979 1.13315 2.26148 1.06917 2.2537 1.02071C2.33351 1.00714 2.41586 1 2.50043 1H29.4995ZM2.25035 0.943035C2.2505 0.942175 2.2506 0.941766 2.25062 0.941776C2.25063 0.941787 2.25056 0.942217 2.25035 0.943035Z" stroke="#12A5A5" stroke-width="2"/>
<path d="M1 21.7211V7.54504C1 6.69706 1.98917 6.23394 2.64044 6.77703L14.1274 16.3559C15.2407 17.2843 16.8586 17.2838 17.9714 16.3548L29.3591 6.84722C30.0103 6.30357 31 6.76659 31 7.61485V21.7211C31 22.5441 30.3225 23.2216 29.4995 23.2216H2.50047C1.6775 23.2216 1 22.5441 1 21.7211Z" stroke="#12A5A5" stroke-width="2"/>
</svg>
