<svg width="54" height="48" viewBox="0 0 54 48" fill="none" xmlns="http://www.w3.org/2000/svg">
<path d="M51.8439 25.2401C52.2544 24.9608 52.5 24.4965 52.5 24V10C52.5 9.17157 51.8284 8.5 51 8.5H35.2022C35.0709 7.76609 34.8227 6.81118 34.3471 5.8402C33.8326 4.78972 33.0357 3.68907 31.8082 2.85368C30.5698 2.01086 28.9832 1.5 27 1.5C25.0168 1.5 23.4302 2.01086 22.1918 2.85368C20.9643 3.68907 20.1674 4.78972 19.6529 5.8402C19.1773 6.81118 18.9291 7.76609 18.7978 8.5H3C2.17157 8.5 1.5 9.17157 1.5 10V24C1.5 24.4965 1.74564 24.9608 2.15606 25.2401M51.8431 25.2407L51.839 25.2434L51.8304 25.2493L51.8017 25.2684C51.7777 25.2844 51.7437 25.3069 51.7 25.3354C51.6127 25.3923 51.4864 25.4733 51.3229 25.5748C51.1743 25.6672 50.9948 25.7767 50.7857 25.9006V45C50.7857 45.8284 50.1141 46.5 49.2857 46.5H4.71429C3.88586 46.5 3.21429 45.8284 3.21429 45V25.9006C3.00522 25.7767 2.82572 25.6672 2.67707 25.5748C2.5136 25.4733 2.38734 25.3923 2.29997 25.3354C2.25628 25.3069 2.22231 25.2844 2.19825 25.2684L2.16964 25.2493L2.16096 25.2434L2.15693 25.2407M49.5 11.5V23.1737C49.2286 23.3382 48.8763 23.5452 48.4488 23.7832C47.3145 24.4148 45.6547 25.2624 43.5758 26.1113C39.729 27.6821 34.4847 29.242 28.5 29.4712V27.5C28.5 26.6716 27.8284 26 27 26C26.1716 26 25.5 26.6716 25.5 27.5V29.4712C19.5153 29.242 14.271 27.6821 10.4242 26.1113C8.3453 25.2624 6.6855 24.4148 5.55116 23.7832C5.12372 23.5452 4.77142 23.3382 4.5 23.1737V11.5H49.5ZM9.29009 28.8887C13.3836 30.5602 19.0222 32.2427 25.5 32.4732V34.5C25.5 35.3284 26.1716 36 27 36C27.8284 36 28.5 35.3284 28.5 34.5V32.4732C34.9778 32.2427 40.6164 30.5602 44.7099 28.8887C45.859 28.4195 46.8894 27.9499 47.7857 27.5114V43.5H6.21429V27.5114C7.11062 27.9499 8.14097 28.4195 9.29009 28.8887ZM32.1358 8.5H21.8642C21.97 8.07818 22.1241 7.61511 22.3471 7.1598C22.6897 6.46028 23.1786 5.81093 23.8797 5.33382C24.5698 4.86414 25.5546 4.5 27 4.5C28.4454 4.5 29.4302 4.86414 30.1203 5.33382C30.8214 5.81093 31.3103 6.46028 31.6529 7.1598C31.8759 7.61511 32.03 8.07818 32.1358 8.5Z" stroke="#12a5a5" stroke-width="2" stroke-linecap="round" stroke-linejoin="round"/>
</svg>
