<svg width="97" height="35" viewBox="0 0 97 35" fill="none" xmlns="http://www.w3.org/2000/svg">
<g clip-path="url(#clip0_26_57)">
<path d="M50.0792 11.5928L54.6941 11.303C54.7994 12.036 54.9924 12.5816 55.3083 12.9737C55.8171 13.5874 56.519 13.8943 57.449 13.8943C58.1333 13.8943 58.6773 13.7409 59.0458 13.417C59.3967 13.1612 59.6073 12.7521 59.6073 12.3259C59.6073 11.9167 59.4143 11.5246 59.0809 11.2689C58.7299 10.962 57.9052 10.6551 56.6067 10.3824C54.4835 9.92207 52.9569 9.30833 52.0621 8.52411C51.1672 7.79104 50.6583 6.717 50.6934 5.57477C50.6934 4.79055 50.939 4.00633 51.3953 3.3585C51.9217 2.62543 52.6411 2.04579 53.5009 1.72187C54.4309 1.32976 55.7294 1.12518 57.3613 1.12518C59.3616 1.12518 60.8882 1.4832 61.941 2.21627C62.9939 2.93229 63.6255 4.09157 63.8186 5.67706L59.2563 5.93278C59.1335 5.25085 58.8878 4.75645 58.4843 4.43254C58.0807 4.10862 57.5543 3.95519 56.8699 3.95519C56.3084 3.95519 55.8873 4.07453 55.6065 4.29615C55.3433 4.50073 55.1679 4.8076 55.1854 5.14856C55.1854 5.40429 55.3258 5.64296 55.5364 5.7964C55.7645 6.00097 56.3084 6.18851 57.1682 6.35899C59.2914 6.80224 60.8005 7.2455 61.7305 7.7058C62.6605 8.1661 63.3272 8.72869 63.7308 9.39357C64.152 10.0755 64.3625 10.8597 64.345 11.661C64.345 12.6157 64.0642 13.5704 63.5027 14.3717C62.9237 15.207 62.1165 15.8548 61.169 16.247C60.1688 16.6732 58.9054 16.8948 57.3963 16.8948C54.7292 16.8948 52.8868 16.4004 51.8515 15.3945C50.8162 14.3887 50.2021 13.1271 50.0792 11.5928ZM1.10546 16.6391V1.39795H9.19465C10.6861 1.39795 11.8442 1.51729 12.6339 1.77302C13.4059 2.01169 14.0903 2.50609 14.5465 3.17097C15.0554 3.90404 15.301 4.75645 15.2835 5.64296C15.3361 7.14321 14.5465 8.57526 13.1954 9.32538C12.669 9.6152 12.0899 9.81978 11.4933 9.92207C11.932 10.0414 12.3707 10.246 12.7567 10.4847C13.055 10.7233 13.3007 10.9961 13.5288 11.2859C13.792 11.5757 14.0201 11.8997 14.2131 12.2406L16.5644 16.6561H11.0546L8.45767 11.9679C8.12428 11.3712 7.84352 10.9791 7.58032 10.7915C7.22938 10.5529 6.80825 10.4335 6.38712 10.4335H5.96599V16.622H1.10546V16.6391ZM5.96599 7.56941H8.01899C8.45767 7.53532 8.8788 7.46712 9.29993 7.36483C9.61577 7.31369 9.89653 7.14321 10.0895 6.88748C10.5633 6.27375 10.4931 5.40429 9.91407 4.87579C9.59823 4.62007 8.98408 4.48368 8.10673 4.48368H5.96599V7.56941ZM0 29.698L4.61487 29.4082C4.72015 30.1413 4.91317 30.6868 5.22902 31.0789C5.72033 31.6926 6.43976 32.0166 7.36975 32.0166C8.05409 32.0166 8.59805 31.8631 8.96653 31.5392C9.31747 31.2664 9.52804 30.8743 9.52804 30.4481C9.52804 30.039 9.33502 29.6469 9.00163 29.3911C8.65069 29.0843 7.82598 28.7774 6.50995 28.5046C4.38676 28.0443 2.86017 27.4306 1.96527 26.6464C1.07037 25.9133 0.561505 24.8393 0.596599 23.697C0.596599 22.9128 0.842258 22.1286 1.29848 21.4808C1.82489 20.7477 2.54432 20.168 3.40412 19.8441C4.33412 19.452 5.6326 19.2474 7.26447 19.2474C9.26483 19.2474 10.7914 19.6055 11.8442 20.3385C12.8971 21.0716 13.5112 22.2138 13.7042 23.7993L9.142 24.055C9.01918 23.3731 8.77352 22.8787 8.36994 22.5548C7.9839 22.2309 7.43994 22.0775 6.75561 22.0945C6.1941 22.0945 5.77297 22.2138 5.49222 22.4525C5.21147 22.6571 5.05355 22.964 5.07109 23.3049C5.07109 23.5606 5.21147 23.7993 5.42203 23.9528C5.65014 24.1573 6.1941 24.3449 7.05391 24.5153C9.1771 24.9586 10.6861 25.4019 11.6161 25.8622C12.5461 26.3225 13.2129 26.885 13.6165 27.5499C14.0376 28.2319 14.2482 29.0161 14.2482 29.8003C14.2482 30.755 13.9499 31.6926 13.4059 32.4939C12.8269 33.3293 12.0197 33.9771 11.0722 34.3692C10.072 34.7954 8.80861 35.017 7.29957 35.017C4.63242 35.017 2.78998 34.5227 1.7547 33.5168C0.719428 32.4939 0.140376 31.2323 0 29.698Z" fill="#12A5A5"/>
<path d="M23.3375 28.5046L27.5839 29.7491C27.3558 30.7891 26.882 31.7779 26.2328 32.6473C25.6362 33.4145 24.8466 34.0112 23.9517 34.4033C23.0392 34.7954 21.8811 35 20.4774 35C18.7753 35 17.3715 34.7613 16.3012 34.284C15.2133 33.8066 14.2833 32.9542 13.4936 31.7438C12.704 30.5334 12.318 28.982 12.318 27.0896C12.318 24.5665 13.0023 22.623 14.3885 21.2762C15.7748 19.9294 17.7225 19.2474 20.2493 19.2474C22.2321 19.2474 23.7762 19.6395 24.9168 20.4067C26.0398 21.1909 26.882 22.3843 27.4435 23.9868L23.1621 24.9074C23.0568 24.5494 22.8989 24.1914 22.6883 23.8846C22.4251 23.5265 22.0917 23.2538 21.6881 23.0492C21.2845 22.8446 20.8283 22.7594 20.3721 22.7594C19.2666 22.7594 18.4244 23.1856 17.8453 24.055C17.4066 24.6858 17.1785 25.6917 17.1785 27.0555C17.1785 28.7433 17.4417 29.9026 17.9681 30.5334C18.4945 31.1641 19.2315 31.471 20.1966 31.471C21.1266 31.471 21.8285 31.2153 22.3023 30.7209C22.776 30.1924 23.127 29.4593 23.3375 28.5046ZM33.2516 19.5032H38.0946V24.8393H43.3938V19.5032H48.2719V34.7443H43.3938V28.5728H38.0946V34.7443H33.2516V19.5032Z" fill="#12A5A5"/>
<path d="M47.6051 27.1237C47.6051 24.6347 48.3245 22.6912 49.7458 21.3103C51.1672 19.9294 53.1675 19.2304 55.7118 19.2304C58.3263 19.2304 60.3267 19.9123 61.748 21.2762C63.1693 22.6401 63.8712 24.5495 63.8712 27.0044C63.8712 28.7945 63.5554 30.2436 62.9412 31.3858C62.3446 32.511 61.4146 33.4316 60.2741 34.0453C59.0984 34.6761 57.642 35 55.9049 35C54.1326 35 52.6762 34.7272 51.5181 34.1817C50.3249 33.6021 49.3423 32.6985 48.693 31.5904C47.9736 30.397 47.6051 28.9138 47.6051 27.1237ZM52.4481 27.1408C52.4481 28.6751 52.7464 29.7833 53.3254 30.4652C53.9045 31.1301 54.7117 31.471 55.7294 31.471C56.7647 31.471 57.5718 31.1471 58.1509 30.4822C58.7299 29.8174 59.0107 28.641 59.0107 26.9362C59.0107 25.5042 58.7124 24.4472 58.1158 23.7993C57.5192 23.1345 56.712 22.8105 55.6943 22.8105C54.7994 22.7764 53.9396 23.1515 53.343 23.8164C52.7464 24.4813 52.4481 25.5894 52.4481 27.1408ZM68.837 27.1237C68.837 24.6347 69.5564 22.6912 70.9778 21.3103C72.3991 19.9294 74.3994 19.2304 76.9437 19.2304C79.5583 19.2304 81.5762 19.9123 82.9799 21.2762C84.3837 22.6401 85.1031 24.5495 85.1031 27.0044C85.1031 28.7945 84.7873 30.2436 84.1731 31.3858C83.5765 32.511 82.6465 33.4316 81.506 34.0453C80.3303 34.6761 78.8739 35 77.1368 35C75.3645 35 73.9081 34.7272 72.75 34.1817C71.5568 33.6021 70.5742 32.6985 69.9249 31.5904C69.2055 30.397 68.837 28.9138 68.837 27.1237ZM73.68 27.1408C73.68 28.6751 73.9783 29.7833 74.5573 30.4652C75.1364 31.1301 75.9436 31.471 76.9613 31.471C77.9966 31.471 78.8037 31.1471 79.3828 30.4822C79.9618 29.8174 80.2426 28.641 80.2426 26.9362C80.2426 25.5042 79.9443 24.4472 79.3477 23.7993C78.7511 23.1345 77.9439 22.8105 76.9262 22.8105C76.0313 22.7764 75.1539 23.1515 74.5749 23.8164C73.9783 24.4813 73.68 25.5894 73.68 27.1408Z" fill="#12A5A5"/>
<path d="M84.5943 19.5032H89.4373V30.9937H97V34.7443H84.5767V19.5032H84.5943Z" fill="#12A5A5"/>
<mask id="mask0_26_57" style="mask-type:luminance" maskUnits="userSpaceOnUse" x="63" y="2" width="22" height="20">
<path d="M79.2562 18.6236C84.1321 15.0537 85.6356 9.00214 82.6145 5.10708C79.5934 1.21201 73.1916 0.948409 68.3157 4.51831C63.4399 8.0882 61.9364 14.1398 64.9575 18.0348C67.9786 21.9299 74.3804 22.1935 79.2562 18.6236Z" fill="white"/>
</mask>
<g mask="url(#mask0_26_57)">
<mask id="mask1_26_57" style="mask-type:luminance" maskUnits="userSpaceOnUse" x="52" y="-9" width="44" height="42">
<path d="M52.5226 9.63916L77.7189 -8.80852L95.154 13.6701L69.9577 32.1177L52.5226 9.63916Z" fill="white"/>
</mask>
<g mask="url(#mask1_26_57)">
<path d="M81.8076 5.69782C84.3795 9.01365 83.235 14.4716 78.6433 17.8334C74.0517 21.1952 68.3362 20.7599 65.7643 17.4441C63.1925 14.1282 64.337 8.67029 68.9286 5.30848C73.5203 1.94667 79.2358 2.38199 81.8076 5.69782Z" stroke="#12A5A5" stroke-width="2"/>
<path d="M68.8545 10.4506L70.6093 9.25719L72.7675 12.2406C73.136 12.718 73.4168 13.2294 73.6273 13.792C73.7502 14.2182 73.7151 14.6785 73.5396 15.0877C73.3115 15.5991 72.943 16.0253 72.4517 16.3322C71.8726 16.7243 71.3813 16.9459 70.9602 17.0141C70.5566 17.0823 70.1355 17.0141 69.7494 16.8436C69.3283 16.6391 68.9598 16.3492 68.6791 15.9742L70.1881 14.6103C70.311 14.7979 70.4689 14.9683 70.6443 15.1047C70.7672 15.19 70.9076 15.2411 71.0655 15.2411C71.1883 15.2411 71.3111 15.19 71.3989 15.1218C71.5743 15.0195 71.6972 14.8149 71.6796 14.6103C71.627 14.3205 71.5041 14.0307 71.3111 13.8091L68.8545 10.4506ZM74.1187 12.3429L75.7154 11.1154C75.8909 11.32 76.119 11.4735 76.3647 11.5587C76.7156 11.661 77.0841 11.5928 77.3824 11.3712C77.593 11.2348 77.7684 11.0473 77.8386 10.8086C77.9439 10.5017 77.7684 10.1607 77.4526 10.0585C77.4 10.0414 77.3473 10.0244 77.2947 10.0244C77.0841 10.0073 76.7156 10.0926 76.1717 10.3142C75.2768 10.6722 74.5749 10.8086 74.0485 10.7574C73.5396 10.7063 73.0658 10.4506 72.7851 10.0244C72.5745 9.73454 72.4692 9.39358 72.4517 9.05261C72.4517 8.6605 72.557 8.26839 72.7851 7.94448C73.1185 7.48417 73.5221 7.09207 74.0134 6.7852C74.7503 6.2908 75.3996 6.05212 75.9611 6.05212C76.5226 6.05212 77.049 6.30785 77.5403 6.83634L75.9611 8.04677C75.6452 7.65466 75.0487 7.56942 74.6451 7.87628L74.5924 7.92743C74.417 8.02972 74.2941 8.18315 74.2239 8.37068C74.1713 8.50707 74.2064 8.6605 74.2941 8.77984C74.3643 8.86508 74.4696 8.93327 74.5924 8.93327C74.7328 8.95032 74.9785 8.88213 75.3294 8.72869C76.2068 8.37068 76.8735 8.1661 77.3298 8.09791C77.7158 8.02972 78.1194 8.06381 78.4879 8.21725C78.8213 8.35363 79.102 8.59231 79.295 8.88213C79.5407 9.22309 79.6811 9.63225 79.6986 10.0585C79.7162 10.5017 79.5933 10.9279 79.3477 11.303C79.0318 11.7633 78.6282 12.1554 78.1545 12.4623C77.1894 13.1101 76.3998 13.3829 75.7681 13.2806C75.0837 13.1783 74.5222 12.8373 74.1187 12.3429Z" fill="#12A5A5"/>
</g>
</g>
</g>
<defs>
<clipPath id="clip0_26_57">
<rect width="97" height="35" fill="white"/>
</clipPath>
</defs>
</svg>
