<svg width="40" height="42" viewBox="0 0 40 42" fill="none" xmlns="http://www.w3.org/2000/svg">
<path fill-rule="evenodd" clip-rule="evenodd" d="M14.5714 19C14.5714 19.3673 14.8754 19.6667 15.25 19.6667C15.6246 19.6667 15.9286 19.3673 15.9286 19C15.9286 18.6327 15.6246 18.3333 15.25 18.3333C14.8754 18.3333 14.5714 18.6327 14.5714 19ZM15.9286 31C15.9286 30.6327 15.6246 30.3333 15.25 30.3333C14.8754 30.3333 14.5714 30.6327 14.5714 31C14.5714 31.3673 14.8754 31.6667 15.25 31.6667C15.6246 31.6667 15.9286 31.3673 15.9286 31ZM10.5 19C10.5 18.6327 10.196 18.3333 9.82143 18.3333C9.44686 18.3333 9.14286 18.6327 9.14286 19C9.14286 19.3673 9.44686 19.6667 9.82143 19.6667C10.196 19.6667 10.5 19.3673 10.5 19ZM10.5 27C10.5 26.6327 10.196 26.3333 9.82143 26.3333C9.44686 26.3333 9.14286 26.6327 9.14286 27C9.14286 27.3673 9.44686 27.6667 9.82143 27.6667C10.196 27.6667 10.5 27.3673 10.5 27ZM14.5714 12.3333C14.5714 12.7007 14.8754 13 15.25 13C15.6246 13 15.9286 12.7007 15.9286 12.3333C15.9286 11.966 15.6246 11.6667 15.25 11.6667C14.8754 11.6667 14.5714 11.966 14.5714 12.3333ZM10.5 13V17.1227C11.0754 17.324 11.5274 17.7687 11.7316 18.3333H13.3398C13.6207 17.5587 14.3665 17 15.25 17C16.3724 17 17.2857 17.8973 17.2857 19C17.2857 19.868 16.7164 20.6007 15.9286 20.8773V29.1227C16.7164 29.3993 17.2857 30.132 17.2857 31C17.2857 31.868 16.7164 32.6007 15.9286 32.8773V35C15.9286 35.368 15.6252 35.6667 15.25 35.6667C14.8747 35.6667 14.5714 35.368 14.5714 35V32.8767C13.8786 32.6347 13.3622 32.0387 13.2462 31.3067L10.6988 28.8047C10.6968 28.8033 10.6968 28.8007 10.6948 28.7987C10.4294 28.924 10.1356 29 9.82143 29C8.69907 29 7.78571 28.1027 7.78571 27C7.78571 25.8973 8.69907 25 9.82143 25C10.9438 25 11.8571 25.8973 11.8571 27C11.8571 27.308 11.7798 27.5973 11.6522 27.858C11.6542 27.86 11.6563 27.8607 11.6583 27.862L13.6309 29.8007C13.8691 29.4913 14.1935 29.2553 14.5714 29.1227V20.8767C13.996 20.676 13.5441 20.2313 13.3398 19.6667H11.7316C11.4507 20.4413 10.7049 21 9.82143 21C8.69907 21 7.78571 20.1027 7.78571 19C7.78571 18.132 8.35504 17.3993 9.14286 17.1227V12.3333C9.14286 11.9653 9.44618 11.6667 9.82143 11.6667H13.3398C13.5441 11.102 13.996 10.6573 14.5714 10.456V8.33333C14.5714 7.96533 14.8747 7.66667 15.25 7.66667C15.6252 7.66667 15.9286 7.96533 15.9286 8.33333V10.456C16.7164 10.7327 17.2857 11.4653 17.2857 12.3333C17.2857 13.436 16.3724 14.3333 15.25 14.3333C14.3665 14.3333 13.6207 13.7747 13.3398 13H10.5ZM37.3938 25.83C38.4042 24.9573 39 23.6947 39 22.3333C39 20.9067 38.3547 19.596 37.2459 18.716C37.5071 18.1807 37.6429 17.5973 37.6429 17C37.6429 15.624 36.908 14.3567 35.7483 13.6333C36.0984 13.034 36.2857 12.358 36.2857 11.6667C36.2857 9.94667 35.1735 8.45133 33.564 7.89933C33.5687 7.82133 33.5714 7.744 33.5714 7.66667C33.5714 5.46067 31.7454 3.66667 29.5 3.66667C28.9524 3.66667 28.419 3.776 27.921 3.98667C27.3374 2.25067 25.6593 1 23.7321 1C20.8767 1 19.6071 3.53067 19.335 4.86933C19.3302 4.89133 19.3364 4.91267 19.335 4.93533C19.333 4.958 19.3214 4.97667 19.3214 5V36.2933C19.1681 38.186 17.532 39.6667 15.5893 39.6667C13.6533 39.6667 12.022 38.1807 11.8748 36.2827C11.8476 35.9353 11.5328 35.6667 11.1786 35.6667C10.9669 35.6667 10.7674 35.764 10.6384 35.9293C10.1119 36.61 9.31929 37 8.46429 37C6.96736 37 5.75 35.804 5.75 34.3333C5.75 33.728 5.96443 33.1493 6.37157 32.6593C6.55479 32.4387 6.57514 32.1273 6.42111 31.8853C6.26775 31.6433 5.97732 31.5233 5.69096 31.5893C5.46364 31.6413 5.26075 31.6667 5.07143 31.6667C3.5745 31.6667 2.35714 30.4707 2.35714 29C2.35714 27.9007 3.06761 26.9007 4.12414 26.5113C4.37589 26.4187 4.54825 26.1893 4.56386 25.9267C4.57946 25.6633 4.43561 25.4153 4.19811 25.2947C3.06218 24.7193 2.35714 23.584 2.35714 22.3333C2.35714 21.1573 2.97261 20.0907 4.00404 19.48C4.16486 19.3847 4.27818 19.228 4.31754 19.0473C4.35621 18.866 4.31686 18.678 4.20896 18.5267C3.88529 18.0727 3.71429 17.5453 3.71429 17C3.71429 15.8927 4.43221 14.8907 5.49961 14.506C5.71064 14.43 5.87011 14.256 5.92507 14.042C5.97936 13.8273 5.92168 13.6 5.77171 13.4353C5.31979 12.94 5.07143 12.312 5.07143 11.6667C5.07143 10.3747 6.01396 9.274 7.31139 9.04867C7.49325 9.01667 7.65543 8.91333 7.75789 8.762C7.86036 8.61067 7.89564 8.42467 7.85629 8.24733C7.80879 8.03933 7.78571 7.84933 7.78571 7.66667C7.78571 6.196 9.00307 5 10.5 5C11.0876 5 11.6542 5.19267 12.1394 5.55733C12.3369 5.70533 12.6009 5.736 12.8268 5.63733C13.0541 5.538 13.2075 5.32533 13.2285 5.08267C13.3575 3.54133 14.6929 2.33333 16.2679 2.33333C17.0238 2.33333 17.6487 2.572 18.178 3.06267C18.4515 3.31533 18.881 3.30267 19.1375 3.03467C19.3947 2.76667 19.3825 2.34533 19.1097 2.09267C18.3273 1.36733 17.3712 1 16.2679 1C14.3407 1 12.6626 2.25067 12.079 3.98667C11.581 3.776 11.0476 3.66667 10.5 3.66667C8.25461 3.66667 6.42857 5.46067 6.42857 7.66667C6.42857 7.744 6.43129 7.82133 6.43604 7.89933C4.82646 8.45133 3.71429 9.94667 3.71429 11.6667C3.71429 12.358 3.90157 13.034 4.25171 13.6333C3.09204 14.3567 2.35714 15.624 2.35714 17C2.35714 17.5973 2.49286 18.1807 2.75411 18.716C1.64532 19.596 1 20.9067 1 22.3333C1 23.6947 1.59579 24.9573 2.60618 25.83C1.61479 26.5747 1 27.744 1 29C1 31.062 2.59668 32.7647 4.63918 32.9773C4.47632 33.4093 4.39286 33.8653 4.39286 34.3333C4.39286 36.5393 6.21889 38.3333 8.46429 38.3333C9.30707 38.3333 10.1091 38.082 10.7823 37.6213C11.4744 39.5907 13.3873 41 15.5893 41C18.2411 41 20.4757 38.972 20.6765 36.384C20.6772 36.3753 20.6731 36.3673 20.6731 36.3587C20.6738 36.3493 20.6786 36.3427 20.6786 36.3333V5.07333C20.779 4.664 21.4487 2.33333 23.7321 2.33333C25.3071 2.33333 26.6425 3.54133 26.7715 5.08267C26.7925 5.32533 26.9459 5.538 27.1732 5.63733C27.3991 5.736 27.6631 5.70533 27.8606 5.55733C28.3457 5.19267 28.9124 5 29.5 5C30.9969 5 32.2143 6.196 32.2143 7.66667C32.2143 7.84933 32.1912 8.03933 32.1437 8.24733C32.1044 8.42467 32.1396 8.61067 32.2421 8.762C32.3446 8.91333 32.5067 9.01667 32.6886 9.04867C33.986 9.274 34.9286 10.3747 34.9286 11.6667C34.9286 12.312 34.6802 12.94 34.2283 13.4353C34.0783 13.6 34.0206 13.8273 34.0749 14.042C34.1299 14.256 34.2894 14.43 34.5004 14.506C35.5678 14.8907 36.2857 15.8927 36.2857 17C36.2857 17.5453 36.1147 18.0727 35.791 18.5267C35.6831 18.678 35.6438 18.866 35.6825 19.0473C35.7218 19.228 35.8351 19.3847 35.996 19.48C37.0274 20.0907 37.6429 21.1573 37.6429 22.3333C37.6429 23.584 36.9378 24.7193 35.8019 25.2947C35.5644 25.4153 35.4205 25.6633 35.4361 25.9267C35.4517 26.1893 35.6241 26.4187 35.8759 26.5113C36.9324 26.9007 37.6429 27.9007 37.6429 29C37.6429 30.4707 36.4255 31.6667 34.9286 31.6667C34.7392 31.6667 34.5364 31.6413 34.309 31.5893C34.024 31.5233 33.7329 31.6433 33.5789 31.8853C33.4249 32.1273 33.4452 32.4387 33.6284 32.6593C34.0356 33.1493 34.25 33.728 34.25 34.3333C34.25 35.804 33.0326 37 31.5357 37C30.678 37 29.8868 36.6053 29.3656 35.9167C29.1906 35.6867 28.8859 35.5927 28.6084 35.682C28.5079 35.7147 28.4197 35.7687 28.3485 35.8373C28.2222 35.948 28.1388 36.1053 28.1252 36.2827C27.978 38.1807 26.3467 39.6667 24.4107 39.6667C23.5577 39.6667 22.753 39.3913 22.0832 38.8707C21.788 38.642 21.3626 38.6913 21.1298 38.9793C20.8971 39.268 20.9473 39.6873 21.2404 39.916C22.1395 40.6147 23.266 41 24.4107 41C26.614 41 28.5283 39.588 29.2191 37.6167C29.8902 38.0807 30.6909 38.3333 31.5357 38.3333C33.7811 38.3333 35.6071 36.5393 35.6071 34.3333C35.6071 33.8653 35.5237 33.4093 35.3608 32.9773C37.4033 32.7647 39 31.062 39 29C39 27.744 38.3852 26.5747 37.3938 25.83ZM25.4286 31C25.4286 31.368 25.7319 31.6667 26.1071 31.6667C27.0965 31.6667 28.1429 32.6947 28.1429 33.6667C28.1429 34.0347 28.4462 34.3333 28.8214 34.3333C29.1967 34.3333 29.5 34.0347 29.5 33.6667C29.5 31.9533 27.8511 30.3333 26.1071 30.3333C25.7319 30.3333 25.4286 30.632 25.4286 31ZM31.5357 13C30.5464 13 29.5 11.972 29.5 11C29.5 10.632 29.1967 10.3333 28.8214 10.3333C28.4462 10.3333 28.1429 10.632 28.1429 11C28.1429 12.7133 29.7918 14.3333 31.5357 14.3333C31.911 14.3333 32.2143 14.0347 32.2143 13.6667C32.2143 13.2987 31.911 13 31.5357 13ZM23.3929 27.6667C23.7681 27.6667 24.0714 27.368 24.0714 27C24.0714 26.028 25.1178 25 26.1071 25C26.4824 25 26.7857 24.7013 26.7857 24.3333C26.7857 23.9653 26.4824 23.6667 26.1071 23.6667C24.3632 23.6667 22.7143 25.2867 22.7143 27C22.7143 27.368 23.0176 27.6667 23.3929 27.6667ZM26.1071 19.6667C26.4824 19.6667 26.7857 19.368 26.7857 19C26.7857 18.632 26.4824 18.3333 26.1071 18.3333C25.1178 18.3333 24.0714 17.3053 24.0714 16.3333C24.0714 15.9653 23.7681 15.6667 23.3929 15.6667C23.0176 15.6667 22.7143 15.9653 22.7143 16.3333C22.7143 18.0467 24.3632 19.6667 26.1071 19.6667ZM32.8929 17C32.5176 17 32.2143 17.2987 32.2143 17.6667C32.2143 18.6387 31.1679 19.6667 30.1786 19.6667C29.8033 19.6667 29.5 19.9653 29.5 20.3333C29.5 20.7013 29.8033 21 30.1786 21C31.9225 21 33.5714 19.38 33.5714 17.6667C33.5714 17.2987 33.2681 17 32.8929 17ZM30.1786 25C29.8033 25 29.5 25.2987 29.5 25.6667C29.5 26.0347 29.8033 26.3333 30.1786 26.3333C31.1679 26.3333 32.2143 27.3613 32.2143 28.3333C32.2143 28.7013 32.5176 29 32.8929 29C33.2681 29 33.5714 28.7013 33.5714 28.3333C33.5714 26.62 31.9225 25 30.1786 25ZM22.7143 10.3333C22.7143 8.62 24.3632 7 26.1071 7C26.4824 7 26.7857 7.29867 26.7857 7.66667C26.7857 8.03467 26.4824 8.33333 26.1071 8.33333C25.1178 8.33333 24.0714 9.36133 24.0714 10.3333C24.0714 10.7013 23.7681 11 23.3929 11C23.0176 11 22.7143 10.7013 22.7143 10.3333Z" stroke="#12a5a5"/>
</svg>
